%TF.GenerationSoftware,Altium Limited,Altium Designer,25.1.2 (22)*%
G04 Layer_Physical_Order=2*
G04 Layer_Color=36540*
%FSLAX45Y45*%
%MOMM*%
%TF.SameCoordinates,3D214C36-D050-49FB-A800-149662506FFD*%
%TF.FilePolarity,Positive*%
%TF.FileFunction,Copper,L2,Inr,Signal*%
%TF.Part,Single*%
G01*
G75*
%TA.AperFunction,ComponentPad*%
%ADD50C,0.65000*%
%ADD51O,2.10000X1.00000*%
%ADD52O,1.80000X1.00000*%
%TA.AperFunction,ViaPad*%
%ADD53C,5.00000*%
%ADD54C,0.40640*%
%ADD55C,0.50800*%
G36*
X3974104Y26556D02*
X3831855D01*
X3828951Y36716D01*
X3839662Y50675D01*
X3847259Y69017D01*
X3848179Y76000D01*
X3733800D01*
X3619421D01*
X3620341Y69017D01*
X3627938Y50675D01*
X3638649Y36716D01*
X3635745Y26556D01*
X3428856D01*
X3425951Y36716D01*
X3436662Y50675D01*
X3444260Y69017D01*
X3445179Y76000D01*
X3315801D01*
X3186421D01*
X3187341Y69017D01*
X3194938Y50675D01*
X3205649Y36716D01*
X3202744Y26556D01*
X2214948D01*
X2212576Y36436D01*
X2227141Y43857D01*
X2262211Y69337D01*
X2292863Y99989D01*
X2318343Y135059D01*
X2338023Y173683D01*
X2351419Y214910D01*
X2358200Y257725D01*
Y266700D01*
X1807400D01*
Y257725D01*
X1814181Y214910D01*
X1827577Y173683D01*
X1847257Y135059D01*
X1872737Y99989D01*
X1903389Y69337D01*
X1938459Y43857D01*
X1953024Y36436D01*
X1950652Y26556D01*
X25896D01*
Y3374104D01*
X1944882D01*
X1947253Y3364224D01*
X1938459Y3359743D01*
X1903389Y3334263D01*
X1872737Y3303611D01*
X1847257Y3268541D01*
X1827577Y3229917D01*
X1814181Y3188690D01*
X1807400Y3145875D01*
Y3136900D01*
X2358200D01*
Y3145875D01*
X2351419Y3188690D01*
X2338023Y3229917D01*
X2318343Y3268541D01*
X2292863Y3303611D01*
X2262211Y3334263D01*
X2227141Y3359743D01*
X2218347Y3364224D01*
X2220718Y3374104D01*
X3974104D01*
Y26556D01*
D02*
G37*
%LPC*%
G36*
X2358200Y3111500D02*
X2095500D01*
Y2848800D01*
X2104475D01*
X2147290Y2855581D01*
X2188517Y2868977D01*
X2227141Y2888657D01*
X2262211Y2914137D01*
X2292863Y2944789D01*
X2318343Y2979859D01*
X2338023Y3018483D01*
X2351419Y3059710D01*
X2358200Y3102525D01*
Y3111500D01*
D02*
G37*
G36*
X2070100D02*
X1807400D01*
Y3102525D01*
X1814181Y3059710D01*
X1827577Y3018483D01*
X1847257Y2979859D01*
X1872737Y2944789D01*
X1903389Y2914137D01*
X1938459Y2888657D01*
X1977083Y2868977D01*
X2018310Y2855581D01*
X2061125Y2848800D01*
X2070100D01*
Y3111500D01*
D02*
G37*
G36*
X3080473Y2842260D02*
X3066327D01*
X3053257Y2836846D01*
X3047018Y2830607D01*
X3042976Y2826952D01*
X3033794Y2830555D01*
X3030043Y2834306D01*
X3016973Y2839720D01*
X3002827D01*
X2989757Y2834306D01*
X2979754Y2824303D01*
X2974340Y2811233D01*
Y2797087D01*
X2979754Y2784017D01*
X2989757Y2774014D01*
X3002827Y2768600D01*
X3016973D01*
X3030043Y2774014D01*
X3036282Y2780253D01*
X3040324Y2783908D01*
X3049506Y2780305D01*
X3053257Y2776554D01*
X3066327Y2771140D01*
X3080473D01*
X3093543Y2776554D01*
X3103546Y2786557D01*
X3108960Y2799627D01*
Y2813773D01*
X3103546Y2826843D01*
X3093543Y2836846D01*
X3080473Y2842260D01*
D02*
G37*
G36*
X2889973Y2740660D02*
X2875827D01*
X2862757Y2735246D01*
X2852754Y2725243D01*
X2847340Y2712173D01*
Y2698027D01*
X2852754Y2684957D01*
X2862757Y2674954D01*
X2875827Y2669540D01*
X2889973D01*
X2903043Y2674954D01*
X2913046Y2684957D01*
X2918460Y2698027D01*
Y2712173D01*
X2913046Y2725243D01*
X2903043Y2735246D01*
X2889973Y2740660D01*
D02*
G37*
G36*
X2839173Y2651760D02*
X2825027D01*
X2811957Y2646346D01*
X2801954Y2636343D01*
X2796540Y2623273D01*
Y2609127D01*
X2801954Y2596057D01*
X2811957Y2586054D01*
X2825027Y2580640D01*
X2839173D01*
X2852243Y2586054D01*
X2862246Y2596057D01*
X2867660Y2609127D01*
Y2623273D01*
X2862246Y2636343D01*
X2852243Y2646346D01*
X2839173Y2651760D01*
D02*
G37*
G36*
X2699473Y2600960D02*
X2685327D01*
X2672257Y2595546D01*
X2662254Y2585543D01*
X2656840Y2572473D01*
Y2558327D01*
X2662254Y2545257D01*
X2672257Y2535254D01*
X2685327Y2529840D01*
X2699473D01*
X2712543Y2535254D01*
X2722546Y2545257D01*
X2727960Y2558327D01*
Y2572473D01*
X2722546Y2585543D01*
X2712543Y2595546D01*
X2699473Y2600960D01*
D02*
G37*
G36*
X1416773D02*
X1402627D01*
X1389557Y2595546D01*
X1379554Y2585543D01*
X1374140Y2572473D01*
Y2558327D01*
X1379554Y2545257D01*
X1389557Y2535254D01*
X1402627Y2529840D01*
X1416773D01*
X1429843Y2535254D01*
X1439846Y2545257D01*
X1445260Y2558327D01*
Y2572473D01*
X1439846Y2585543D01*
X1429843Y2595546D01*
X1416773Y2600960D01*
D02*
G37*
G36*
X1302473Y2588260D02*
X1288327D01*
X1275257Y2582846D01*
X1265254Y2572843D01*
X1259840Y2559773D01*
Y2545627D01*
X1265254Y2532557D01*
X1275257Y2522554D01*
X1288327Y2517140D01*
X1302473D01*
X1315543Y2522554D01*
X1325546Y2532557D01*
X1330960Y2545627D01*
Y2559773D01*
X1325546Y2572843D01*
X1315543Y2582846D01*
X1302473Y2588260D01*
D02*
G37*
G36*
X1188173Y2562860D02*
X1174027D01*
X1160957Y2557446D01*
X1150954Y2547443D01*
X1145540Y2534373D01*
Y2520227D01*
X1150954Y2507157D01*
X1160957Y2497154D01*
X1174027Y2491740D01*
X1188173D01*
X1201243Y2497154D01*
X1211246Y2507157D01*
X1216660Y2520227D01*
Y2534373D01*
X1211246Y2547443D01*
X1201243Y2557446D01*
X1188173Y2562860D01*
D02*
G37*
G36*
X3105873Y2550160D02*
X3091727D01*
X3078657Y2544746D01*
X3068654Y2534743D01*
X3063240Y2521673D01*
Y2507527D01*
X3068654Y2494457D01*
X3078657Y2484454D01*
X3091727Y2479040D01*
X3105873D01*
X3118943Y2484454D01*
X3128946Y2494457D01*
X3134360Y2507527D01*
Y2521673D01*
X3128946Y2534743D01*
X3118943Y2544746D01*
X3105873Y2550160D01*
D02*
G37*
G36*
X1334266Y3111500D02*
X1206500D01*
Y2984500D01*
X1333500D01*
Y3002716D01*
X1340684Y3009900D01*
X1431489Y3009899D01*
X1456386Y3008677D01*
X1505222Y2998963D01*
X1551224Y2979907D01*
X1592623Y2952241D01*
X1611092Y2935501D01*
X1611091Y2935500D01*
X1611099Y2935501D01*
X1624144Y2922456D01*
X1640762Y2904136D01*
X1668276Y2863096D01*
X1687322Y2817504D01*
X1697179Y2769087D01*
X1698531Y2744390D01*
X1698530D01*
X1698531Y2744389D01*
X1698972Y2670422D01*
X1699258Y2658157D01*
X1692158Y2650890D01*
X1686959D01*
Y2474080D01*
X1792638D01*
Y2649027D01*
X1776658D01*
X1776657Y2727703D01*
X1776658Y2744763D01*
X1773315Y2778719D01*
X1766659Y2812183D01*
X1756755Y2844833D01*
X1743698Y2876355D01*
X1727614Y2906446D01*
X1708657Y2934815D01*
X1687011Y2961189D01*
X1674948Y2973251D01*
X1674948Y2973252D01*
Y2973252D01*
X1667515Y2980684D01*
X1653074Y2994622D01*
X1621916Y3019929D01*
X1588710Y3042483D01*
X1553699Y3062118D01*
X1535420Y3070404D01*
X1517019Y3074556D01*
X1479775Y3080574D01*
X1442231Y3084284D01*
X1404530Y3085671D01*
X1385673Y3085200D01*
X1385672Y3085201D01*
X1385672Y3085201D01*
X1334266Y3085201D01*
Y3111500D01*
D02*
G37*
G36*
X3017178Y2541925D02*
X3003032D01*
X2989962Y2536511D01*
X2979959Y2526508D01*
X2974545Y2513438D01*
Y2499291D01*
X2979959Y2486222D01*
X2989962Y2476219D01*
X3003032Y2470805D01*
X3017178D01*
X3030248Y2476219D01*
X3040251Y2486222D01*
X3045665Y2499291D01*
Y2513438D01*
X3040251Y2526508D01*
X3030248Y2536511D01*
X3017178Y2541925D01*
D02*
G37*
G36*
X2788373Y2486660D02*
X2774227D01*
X2761157Y2481246D01*
X2751154Y2471243D01*
X2745740Y2458173D01*
Y2444027D01*
X2751154Y2430957D01*
X2761157Y2420954D01*
X2774227Y2415540D01*
X2788373D01*
X2801443Y2420954D01*
X2811446Y2430957D01*
X2816860Y2444027D01*
Y2458173D01*
X2811446Y2471243D01*
X2801443Y2481246D01*
X2788373Y2486660D01*
D02*
G37*
G36*
X3220173Y2473960D02*
X3206027D01*
X3192957Y2468546D01*
X3182954Y2458543D01*
X3177540Y2445473D01*
Y2431327D01*
X3182954Y2418257D01*
X3192957Y2408254D01*
X3206027Y2402840D01*
X3220173D01*
X3233243Y2408254D01*
X3243246Y2418257D01*
X3248660Y2431327D01*
Y2445473D01*
X3243246Y2458543D01*
X3233243Y2468546D01*
X3220173Y2473960D01*
D02*
G37*
G36*
X1556473Y2448560D02*
X1542327D01*
X1529257Y2443146D01*
X1519254Y2433143D01*
X1513840Y2420073D01*
Y2405927D01*
X1519254Y2392857D01*
X1529257Y2382854D01*
X1542327Y2377440D01*
X1556473D01*
X1569543Y2382854D01*
X1579546Y2392857D01*
X1584960Y2405927D01*
Y2420073D01*
X1579546Y2433143D01*
X1569543Y2443146D01*
X1556473Y2448560D01*
D02*
G37*
G36*
X3042373Y2416720D02*
X3028227D01*
X3015157Y2411306D01*
X3005154Y2401303D01*
X2999740Y2388233D01*
Y2374087D01*
X3005154Y2361017D01*
X3015157Y2351014D01*
X3028227Y2345600D01*
X3042373D01*
X3055443Y2351014D01*
X3065446Y2361017D01*
X3070860Y2374087D01*
Y2388233D01*
X3065446Y2401303D01*
X3055443Y2411306D01*
X3042373Y2416720D01*
D02*
G37*
G36*
X2267673Y2016760D02*
X2253527D01*
X2240457Y2011346D01*
X2230454Y2001343D01*
X2225040Y1988273D01*
Y1974127D01*
X2230454Y1961057D01*
X2240457Y1951054D01*
X2253527Y1945640D01*
X2267673D01*
X2280743Y1951054D01*
X2290746Y1961057D01*
X2296160Y1974127D01*
Y1988273D01*
X2290746Y2001343D01*
X2280743Y2011346D01*
X2267673Y2016760D01*
D02*
G37*
G36*
X2878284Y1666240D02*
X2862116D01*
X2847179Y1660053D01*
X2835747Y1648621D01*
X2829560Y1633684D01*
Y1617516D01*
X2835747Y1602579D01*
X2847179Y1591147D01*
X2862116Y1584960D01*
X2878284D01*
X2893221Y1591147D01*
X2904653Y1602579D01*
X2910840Y1617516D01*
Y1633684D01*
X2904653Y1648621D01*
X2893221Y1660053D01*
X2878284Y1666240D01*
D02*
G37*
G36*
X2136773Y1632060D02*
X2122627D01*
X2109557Y1626646D01*
X2099554Y1616643D01*
X2094140Y1603573D01*
Y1589427D01*
X2099554Y1576357D01*
X2109557Y1566354D01*
X2122627Y1560940D01*
X2136773D01*
X2149843Y1566354D01*
X2159846Y1576357D01*
X2165260Y1589427D01*
Y1603573D01*
X2159846Y1616643D01*
X2149843Y1626646D01*
X2136773Y1632060D01*
D02*
G37*
G36*
X2878284Y1551940D02*
X2862116D01*
X2847179Y1545753D01*
X2835747Y1534321D01*
X2829560Y1519384D01*
Y1503216D01*
X2835747Y1488279D01*
X2847179Y1476847D01*
X2862116Y1470660D01*
X2878284D01*
X2893221Y1476847D01*
X2904653Y1488279D01*
X2910840Y1503216D01*
Y1519384D01*
X2904653Y1534321D01*
X2893221Y1545753D01*
X2878284Y1551940D01*
D02*
G37*
G36*
X2136773Y1522060D02*
X2122627D01*
X2109557Y1516646D01*
X2099554Y1506643D01*
X2094140Y1493573D01*
Y1479427D01*
X2099554Y1466357D01*
X2109557Y1456354D01*
X2122627Y1450940D01*
X2136773D01*
X2149843Y1456354D01*
X2159846Y1466357D01*
X2165260Y1479427D01*
Y1493573D01*
X2159846Y1506643D01*
X2149843Y1516646D01*
X2136773Y1522060D01*
D02*
G37*
G36*
X2293073Y1292860D02*
X2278927D01*
X2265857Y1287446D01*
X2255854Y1277443D01*
X2250440Y1264373D01*
Y1250227D01*
X2255854Y1237157D01*
X2265857Y1227154D01*
X2278927Y1221740D01*
X2293073D01*
X2306143Y1227154D01*
X2316146Y1237157D01*
X2321560Y1250227D01*
Y1264373D01*
X2316146Y1277443D01*
X2306143Y1287446D01*
X2293073Y1292860D01*
D02*
G37*
G36*
X1734273Y1115060D02*
X1720127D01*
X1707057Y1109646D01*
X1697054Y1099643D01*
X1691640Y1086573D01*
Y1072427D01*
X1697054Y1059357D01*
X1707057Y1049354D01*
X1720127Y1043940D01*
X1734273D01*
X1747343Y1049354D01*
X1757346Y1059357D01*
X1762760Y1072427D01*
Y1086573D01*
X1757346Y1099643D01*
X1747343Y1109646D01*
X1734273Y1115060D01*
D02*
G37*
G36*
X1645373D02*
X1631227D01*
X1618157Y1109646D01*
X1608154Y1099643D01*
X1602740Y1086573D01*
Y1072427D01*
X1608154Y1059357D01*
X1618157Y1049354D01*
X1631227Y1043940D01*
X1645373D01*
X1658443Y1049354D01*
X1668446Y1059357D01*
X1673860Y1072427D01*
Y1086573D01*
X1668446Y1099643D01*
X1658443Y1109646D01*
X1645373Y1115060D01*
D02*
G37*
G36*
X2636984Y1107440D02*
X2620816D01*
X2605879Y1101253D01*
X2594447Y1089821D01*
X2588260Y1074884D01*
Y1058716D01*
X2594447Y1043779D01*
X2605879Y1032347D01*
X2620816Y1026160D01*
X2636984D01*
X2651921Y1032347D01*
X2663353Y1043779D01*
X2669540Y1058716D01*
Y1074884D01*
X2663353Y1089821D01*
X2651921Y1101253D01*
X2636984Y1107440D01*
D02*
G37*
G36*
X1303484Y1069340D02*
X1287316D01*
X1272379Y1063153D01*
X1260947Y1051721D01*
X1254760Y1036784D01*
Y1020616D01*
X1260947Y1005679D01*
X1272379Y994247D01*
X1287316Y988060D01*
X1303484D01*
X1318421Y994247D01*
X1329853Y1005679D01*
X1336040Y1020616D01*
Y1036784D01*
X1329853Y1051721D01*
X1318421Y1063153D01*
X1303484Y1069340D01*
D02*
G37*
G36*
X1633684Y980440D02*
X1617516D01*
X1602579Y974253D01*
X1600200Y971874D01*
X1597821Y974253D01*
X1582884Y980440D01*
X1566716D01*
X1551779Y974253D01*
X1549400Y971874D01*
X1547021Y974253D01*
X1532084Y980440D01*
X1515916D01*
X1500979Y974253D01*
X1489547Y962821D01*
X1483360Y947884D01*
Y931716D01*
X1489547Y916779D01*
X1500979Y905347D01*
X1515916Y899160D01*
X1532084D01*
X1547021Y905347D01*
X1549400Y907726D01*
X1551779Y905347D01*
X1566716Y899160D01*
X1582884D01*
X1597821Y905347D01*
X1600200Y907726D01*
X1602579Y905347D01*
X1617516Y899160D01*
X1633684D01*
X1648621Y905347D01*
X1660053Y916779D01*
X1666240Y931716D01*
Y947884D01*
X1660053Y962821D01*
X1648621Y974253D01*
X1633684Y980440D01*
D02*
G37*
G36*
X1087584D02*
X1071416D01*
X1056479Y974253D01*
X1054100Y971874D01*
X1051721Y974253D01*
X1036784Y980440D01*
X1020616D01*
X1005679Y974253D01*
X1003300Y971874D01*
X1000921Y974253D01*
X985984Y980440D01*
X969816D01*
X954879Y974253D01*
X943447Y962821D01*
X937260Y947884D01*
Y931716D01*
X943447Y916779D01*
X954879Y905347D01*
X969816Y899160D01*
X985984D01*
X1000921Y905347D01*
X1003300Y907726D01*
X1005679Y905347D01*
X1020616Y899160D01*
X1036784D01*
X1051721Y905347D01*
X1054100Y907726D01*
X1056479Y905347D01*
X1071416Y899160D01*
X1087584D01*
X1102521Y905347D01*
X1113953Y916779D01*
X1120140Y931716D01*
Y947884D01*
X1113953Y962821D01*
X1102521Y974253D01*
X1087584Y980440D01*
D02*
G37*
G36*
X3370800Y1028751D02*
X3328501D01*
Y965400D01*
X3445179D01*
X3444260Y972383D01*
X3436662Y990725D01*
X3424576Y1006476D01*
X3408826Y1018562D01*
X3390484Y1026159D01*
X3370800Y1028751D01*
D02*
G37*
G36*
X3773800D02*
X3746500D01*
Y965400D01*
X3848179D01*
X3847259Y972383D01*
X3839662Y990725D01*
X3827576Y1006476D01*
X3811825Y1018562D01*
X3793483Y1026159D01*
X3773800Y1028751D01*
D02*
G37*
G36*
X3721100D02*
X3693800D01*
X3674117Y1026159D01*
X3655775Y1018562D01*
X3640024Y1006476D01*
X3627938Y990725D01*
X3620341Y972383D01*
X3619421Y965400D01*
X3721100D01*
Y1028751D01*
D02*
G37*
G36*
X3303101D02*
X3260800D01*
X3241116Y1026159D01*
X3222775Y1018562D01*
X3207024Y1006476D01*
X3194938Y990725D01*
X3187341Y972383D01*
X3186421Y965400D01*
X3303101D01*
Y1028751D01*
D02*
G37*
G36*
X2573484Y929640D02*
X2557316D01*
X2542379Y923453D01*
X2533650Y914724D01*
X2524921Y923453D01*
X2509984Y929640D01*
X2493816D01*
X2478879Y923453D01*
X2470150Y914724D01*
X2461421Y923453D01*
X2446484Y929640D01*
X2430316D01*
X2415379Y923453D01*
X2403947Y912021D01*
X2397760Y897084D01*
Y880916D01*
X2403947Y865979D01*
X2415379Y854547D01*
X2430316Y848360D01*
X2446484D01*
X2461421Y854547D01*
X2470150Y863276D01*
X2478879Y854547D01*
X2493816Y848360D01*
X2509984D01*
X2524921Y854547D01*
X2533650Y863276D01*
X2542379Y854547D01*
X2557316Y848360D01*
X2562860D01*
Y842816D01*
X2569047Y827879D01*
X2580479Y816447D01*
X2595416Y810260D01*
X2611584D01*
X2626521Y816447D01*
X2637953Y827879D01*
X2644140Y842816D01*
Y858984D01*
X2637953Y873921D01*
X2626521Y885353D01*
X2611584Y891540D01*
X2606040D01*
Y897084D01*
X2599853Y912021D01*
X2588421Y923453D01*
X2573484Y929640D01*
D02*
G37*
G36*
X3848179Y940000D02*
X3746500D01*
Y876649D01*
X3773800D01*
X3793483Y879241D01*
X3811825Y886838D01*
X3827576Y898924D01*
X3839662Y914675D01*
X3847259Y933016D01*
X3848179Y940000D01*
D02*
G37*
G36*
X3721100D02*
X3619421D01*
X3620341Y933016D01*
X3627938Y914675D01*
X3640024Y898924D01*
X3655775Y886838D01*
X3674117Y879241D01*
X3693800Y876649D01*
X3721100D01*
Y940000D01*
D02*
G37*
G36*
X3445179D02*
X3328501D01*
Y876649D01*
X3370800D01*
X3390484Y879241D01*
X3408826Y886838D01*
X3424576Y898924D01*
X3436662Y914675D01*
X3444260Y933016D01*
X3445179Y940000D01*
D02*
G37*
G36*
X3303101D02*
X3186421D01*
X3187341Y933016D01*
X3194938Y914675D01*
X3207024Y898924D01*
X3222775Y886838D01*
X3241116Y879241D01*
X3260800Y876649D01*
X3303101D01*
Y940000D01*
D02*
G37*
G36*
X3375296Y857440D02*
X3356304D01*
X3338757Y850172D01*
X3325328Y836743D01*
X3318060Y819196D01*
Y800204D01*
X3325328Y782657D01*
X3338757Y769228D01*
X3356304Y761960D01*
X3375296D01*
X3392843Y769228D01*
X3406272Y782657D01*
X3413540Y800204D01*
Y819196D01*
X3406272Y836743D01*
X3392843Y850172D01*
X3375296Y857440D01*
D02*
G37*
G36*
X3106884Y713740D02*
X3090716D01*
X3075779Y707553D01*
X3064347Y696121D01*
X3058160Y681184D01*
Y667817D01*
X3051984Y662058D01*
X3048983Y660620D01*
X3043384Y662940D01*
X3027216D01*
X3012279Y656753D01*
X3003550Y648024D01*
X2994821Y656753D01*
X2979884Y662940D01*
X2963716D01*
X2948779Y656753D01*
X2937347Y645321D01*
X2931160Y630384D01*
Y614216D01*
X2937347Y599279D01*
X2948779Y587847D01*
X2963716Y581660D01*
X2979884D01*
X2994821Y587847D01*
X3003550Y596576D01*
X3012279Y587847D01*
X3027216Y581660D01*
X3043384D01*
X3058321Y587847D01*
X3067050Y596576D01*
X3075779Y587847D01*
X3090716Y581660D01*
X3106884D01*
X3121821Y587847D01*
X3133253Y599279D01*
X3139440Y614216D01*
Y618602D01*
X3149600Y622811D01*
X3154857Y617554D01*
X3167927Y612140D01*
X3182073D01*
X3195143Y617554D01*
X3205146Y627557D01*
X3210560Y640627D01*
Y654773D01*
X3205146Y667843D01*
X3195143Y677846D01*
X3182073Y683260D01*
X3167927D01*
X3154857Y677846D01*
X3149600Y672589D01*
X3139440Y676798D01*
Y681184D01*
X3133253Y696121D01*
X3121821Y707553D01*
X3106884Y713740D01*
D02*
G37*
G36*
X337273Y822960D02*
X323127D01*
X310057Y817546D01*
X300054Y807543D01*
X294640Y794473D01*
Y780327D01*
X300054Y767257D01*
X305311Y762000D01*
X300054Y756743D01*
X294640Y743673D01*
Y729527D01*
X300054Y716457D01*
X305311Y711200D01*
X300054Y705943D01*
X294640Y692873D01*
Y678727D01*
X300054Y665657D01*
X305311Y660400D01*
X300054Y655143D01*
X294640Y642073D01*
Y627927D01*
X300054Y614857D01*
X310057Y604854D01*
X323127Y599440D01*
X337273D01*
X350343Y604854D01*
X360346Y614857D01*
X365760Y627927D01*
Y642073D01*
X360346Y655143D01*
X355089Y660400D01*
X360346Y665657D01*
X365760Y678727D01*
Y692873D01*
X360346Y705943D01*
X355089Y711200D01*
X360346Y716457D01*
X365760Y729527D01*
Y743673D01*
X360346Y756743D01*
X355089Y762000D01*
X360346Y767257D01*
X365760Y780327D01*
Y794473D01*
X360346Y807543D01*
X350343Y817546D01*
X337273Y822960D01*
D02*
G37*
G36*
X3182073Y391160D02*
X3167927D01*
X3154857Y385746D01*
X3144854Y375743D01*
X3139440Y362673D01*
Y348527D01*
X3144854Y335457D01*
X3154857Y325454D01*
X3167927Y320040D01*
X3182073D01*
X3195143Y325454D01*
X3205146Y335457D01*
X3210560Y348527D01*
Y362673D01*
X3205146Y375743D01*
X3195143Y385746D01*
X3182073Y391160D01*
D02*
G37*
G36*
X2104475Y554800D02*
X2095500D01*
Y292100D01*
X2358200D01*
Y301075D01*
X2351419Y343890D01*
X2338023Y385117D01*
X2318343Y423741D01*
X2292863Y458811D01*
X2262211Y489463D01*
X2227141Y514943D01*
X2188517Y534623D01*
X2147290Y548019D01*
X2104475Y554800D01*
D02*
G37*
G36*
X2070100D02*
X2061125D01*
X2018310Y548019D01*
X1977083Y534623D01*
X1938459Y514943D01*
X1903389Y489463D01*
X1872737Y458811D01*
X1847257Y423741D01*
X1827577Y385117D01*
X1814181Y343890D01*
X1807400Y301075D01*
Y292100D01*
X2070100D01*
Y554800D01*
D02*
G37*
G36*
X3375296Y279440D02*
X3356304D01*
X3338757Y272172D01*
X3325328Y258743D01*
X3318060Y241196D01*
Y222204D01*
X3325328Y204657D01*
X3338757Y191228D01*
X3356304Y183960D01*
X3375296D01*
X3392843Y191228D01*
X3406272Y204657D01*
X3413540Y222204D01*
Y241196D01*
X3406272Y258743D01*
X3392843Y272172D01*
X3375296Y279440D01*
D02*
G37*
G36*
X3370800Y164751D02*
X3328501D01*
Y101400D01*
X3445179D01*
X3444260Y108384D01*
X3436662Y126725D01*
X3424576Y142476D01*
X3408826Y154562D01*
X3390484Y162159D01*
X3370800Y164751D01*
D02*
G37*
G36*
X3773800D02*
X3746500D01*
Y101400D01*
X3848179D01*
X3847259Y108384D01*
X3839662Y126725D01*
X3827576Y142476D01*
X3811825Y154562D01*
X3793483Y162159D01*
X3773800Y164751D01*
D02*
G37*
G36*
X3721100D02*
X3693800D01*
X3674117Y162159D01*
X3655775Y154562D01*
X3640024Y142476D01*
X3627938Y126725D01*
X3620341Y108384D01*
X3619421Y101400D01*
X3721100D01*
Y164751D01*
D02*
G37*
G36*
X3303101D02*
X3260800D01*
X3241116Y162159D01*
X3222775Y154562D01*
X3207024Y142476D01*
X3194938Y126725D01*
X3187341Y108384D01*
X3186421Y101400D01*
X3303101D01*
Y164751D01*
D02*
G37*
%LPD*%
D50*
X3365800Y809700D02*
D03*
Y231700D02*
D03*
D51*
X3315800Y88700D02*
D03*
Y952700D02*
D03*
D52*
X3733800Y88700D02*
D03*
Y952700D02*
D03*
D53*
X2082800Y279400D02*
D03*
Y3124200D02*
D03*
D54*
X177800Y622300D02*
D03*
Y850900D02*
D03*
X50800Y673100D02*
D03*
Y736600D02*
D03*
Y800100D02*
D03*
X330200Y635000D02*
D03*
Y685800D02*
D03*
Y736600D02*
D03*
Y787400D02*
D03*
X2717800Y1295400D02*
D03*
Y1231900D02*
D03*
Y1168400D02*
D03*
X2336800Y774700D02*
D03*
X2476500Y825500D02*
D03*
X584200Y660400D02*
D03*
Y876300D02*
D03*
X1028700Y3289300D02*
D03*
X1117600D02*
D03*
X1206500D02*
D03*
X2730500Y2857500D02*
D03*
X3124200Y1549400D02*
D03*
X3035300D02*
D03*
X3213100D02*
D03*
X2451100Y1473200D02*
D03*
Y1739900D02*
D03*
X2628900Y1612900D02*
D03*
X2679700D02*
D03*
X2730500D02*
D03*
X2387600Y723900D02*
D03*
X2882900Y393700D02*
D03*
X1651000Y711200D02*
D03*
X1346200D02*
D03*
X1041400D02*
D03*
X850900Y431800D02*
D03*
X952500D02*
D03*
X965200Y622300D02*
D03*
X901700D02*
D03*
X838200D02*
D03*
X3162300Y203200D02*
D03*
Y152400D02*
D03*
X3175000Y889000D02*
D03*
Y838200D02*
D03*
X3098800D02*
D03*
X2895600Y800100D02*
D03*
X2527300Y812800D02*
D03*
X2565400Y774700D02*
D03*
X2501900Y1092200D02*
D03*
X2400300D02*
D03*
X1968500Y1282700D02*
D03*
Y1498600D02*
D03*
Y1701800D02*
D03*
X1143000Y1282700D02*
D03*
X1346200D02*
D03*
X1562100D02*
D03*
X1765300D02*
D03*
X304800D02*
D03*
X508000D02*
D03*
X723900D02*
D03*
X927100D02*
D03*
X1143000Y1498600D02*
D03*
X1346200D02*
D03*
X1562100D02*
D03*
X1765300D02*
D03*
X304800D02*
D03*
X508000D02*
D03*
X723900D02*
D03*
X927100D02*
D03*
X1130300Y1701800D02*
D03*
X1333500D02*
D03*
X1549400D02*
D03*
X1752600D02*
D03*
X304800D02*
D03*
X508000D02*
D03*
X723900D02*
D03*
X927100D02*
D03*
X1346200Y1917700D02*
D03*
X1549400D02*
D03*
X1765300D02*
D03*
X1968500D02*
D03*
X508000D02*
D03*
X711200D02*
D03*
X927100D02*
D03*
X1130300D02*
D03*
X1346200Y2133600D02*
D03*
X1549400D02*
D03*
X1765300D02*
D03*
X1968500D02*
D03*
X508000D02*
D03*
X711200D02*
D03*
X927100D02*
D03*
X1130300D02*
D03*
Y2336800D02*
D03*
X927100D02*
D03*
X711200D02*
D03*
X508000D02*
D03*
X2933700Y2374900D02*
D03*
X3251200Y2336800D02*
D03*
X3403600Y2730500D02*
D03*
X3517900Y2374900D02*
D03*
X2933700Y2654300D02*
D03*
X3213100Y2844800D02*
D03*
X2933700Y2603500D02*
D03*
X1549400Y2413000D02*
D03*
X2260600Y1981200D02*
D03*
X2129700Y1596500D02*
D03*
X2286000Y1257300D02*
D03*
X2129700Y1486500D02*
D03*
X3098800Y2514600D02*
D03*
X3010105Y2506365D02*
D03*
X3009900Y2804160D02*
D03*
X3073400Y2806700D02*
D03*
X3175000Y647700D02*
D03*
Y355600D02*
D03*
X1727200Y1079500D02*
D03*
X1638300D02*
D03*
X3213100Y2438400D02*
D03*
X2781300Y2451100D02*
D03*
X2832100Y2616200D02*
D03*
X1409700Y2565400D02*
D03*
X3035300Y2381160D02*
D03*
X1181100Y2527300D02*
D03*
X2692400Y2565400D02*
D03*
X2882900Y2705100D02*
D03*
X1295400Y2552700D02*
D03*
D55*
X3860800Y3147060D02*
D03*
X3937000Y2994660D02*
D03*
X3860800Y2842260D02*
D03*
X3937000Y2689860D02*
D03*
X3860800Y2537460D02*
D03*
X3937000Y2385060D02*
D03*
X3860800Y2232660D02*
D03*
X3937000Y2080260D02*
D03*
X3860800Y1927860D02*
D03*
X3937000Y1775460D02*
D03*
X3860800Y1623060D02*
D03*
X3937000Y1470660D02*
D03*
X3860800Y1318260D02*
D03*
X3937000Y1165860D02*
D03*
X3860800Y1013460D02*
D03*
X3937000Y861060D02*
D03*
X3860800Y708660D02*
D03*
X3937000Y556260D02*
D03*
X3860800Y403860D02*
D03*
X3937000Y251460D02*
D03*
X3708400Y3147060D02*
D03*
X3784600Y2994660D02*
D03*
X3708400Y2842260D02*
D03*
X3784600Y2689860D02*
D03*
X3708400Y2537460D02*
D03*
X3784600Y2385060D02*
D03*
X3708400Y2232660D02*
D03*
X3784600Y2080260D02*
D03*
X3708400Y1927860D02*
D03*
X3784600Y1775460D02*
D03*
X3708400Y1623060D02*
D03*
X3784600Y1470660D02*
D03*
X3708400Y1318260D02*
D03*
X3784600Y1165860D02*
D03*
X3708400Y708660D02*
D03*
X3784600Y556260D02*
D03*
X3708400Y403860D02*
D03*
X3784600Y251460D02*
D03*
X3556000Y3147060D02*
D03*
X3632200Y2994660D02*
D03*
X3556000Y2842260D02*
D03*
X3632200Y2689860D02*
D03*
X3556000Y2537460D02*
D03*
X3632200Y2385060D02*
D03*
Y2080260D02*
D03*
X3556000Y1927860D02*
D03*
X3632200Y1775460D02*
D03*
X3556000Y1623060D02*
D03*
X3632200Y1470660D02*
D03*
X3556000Y1318260D02*
D03*
X3632200Y1165860D02*
D03*
X3556000Y1013460D02*
D03*
X3632200Y861060D02*
D03*
X3556000Y708660D02*
D03*
X3632200Y556260D02*
D03*
X3556000Y403860D02*
D03*
X3632200Y251460D02*
D03*
X3556000Y99060D02*
D03*
X3403600Y3147060D02*
D03*
X3479800Y2994660D02*
D03*
X3403600Y2842260D02*
D03*
X3479800Y2689860D02*
D03*
Y2080260D02*
D03*
X3403600Y1927860D02*
D03*
X3479800Y1775460D02*
D03*
X3403600Y1623060D02*
D03*
X3479800Y1470660D02*
D03*
X3403600Y1318260D02*
D03*
X3479800Y1165860D02*
D03*
Y861060D02*
D03*
Y556260D02*
D03*
Y251460D02*
D03*
X3251200Y3147060D02*
D03*
X3327400Y2994660D02*
D03*
Y2689860D02*
D03*
X3251200Y1927860D02*
D03*
X3327400Y1775460D02*
D03*
X3251200Y1623060D02*
D03*
X3327400Y1470660D02*
D03*
Y1165860D02*
D03*
X3098800Y3147060D02*
D03*
X3175000Y2994660D02*
D03*
X3098800Y2232660D02*
D03*
X3175000Y1775460D02*
D03*
X3098800Y1623060D02*
D03*
X3175000Y1165860D02*
D03*
X3098800Y1013460D02*
D03*
Y99060D02*
D03*
X2946400Y3147060D02*
D03*
X3022600Y2994660D02*
D03*
Y2080260D02*
D03*
X2946400Y1927860D02*
D03*
Y1013460D02*
D03*
X3022600Y861060D02*
D03*
Y251460D02*
D03*
X2946400Y99060D02*
D03*
X2794000Y3147060D02*
D03*
X2870200Y2994660D02*
D03*
Y2080260D02*
D03*
X2794000Y1927860D02*
D03*
X2870200Y861060D02*
D03*
Y251460D02*
D03*
X2794000Y99060D02*
D03*
X2641600Y3147060D02*
D03*
X2717800Y2994660D02*
D03*
X2641600Y2842260D02*
D03*
X2717800Y2385060D02*
D03*
Y2080260D02*
D03*
X2641600Y1927860D02*
D03*
Y403860D02*
D03*
X2717800Y251460D02*
D03*
X2641600Y99060D02*
D03*
X2489200Y3147060D02*
D03*
X2565400Y2994660D02*
D03*
X2489200Y2842260D02*
D03*
X2565400Y2689860D02*
D03*
Y2080260D02*
D03*
X2489200Y1927860D02*
D03*
Y403860D02*
D03*
X2565400Y251460D02*
D03*
X2489200Y99060D02*
D03*
X2413000Y2994660D02*
D03*
X2336800Y2842260D02*
D03*
X2413000Y2689860D02*
D03*
X2336800Y2537460D02*
D03*
X2413000Y2080260D02*
D03*
Y251460D02*
D03*
X2336800Y99060D02*
D03*
X2260600Y2689860D02*
D03*
Y1470660D02*
D03*
X2108200Y2689860D02*
D03*
X1879600Y2842260D02*
D03*
X1955800Y2689860D02*
D03*
X1727200Y3147060D02*
D03*
X1803400Y2994660D02*
D03*
X1727200Y708660D02*
D03*
Y99060D02*
D03*
X1574800Y1623060D02*
D03*
Y708660D02*
D03*
X1651000Y251460D02*
D03*
X1574800Y99060D02*
D03*
X1422400Y2842260D02*
D03*
X1498600Y2689860D02*
D03*
X1422400Y708660D02*
D03*
X1498600Y251460D02*
D03*
X1422400Y99060D02*
D03*
X1270000Y2842260D02*
D03*
X1346200Y2689860D02*
D03*
X1270000Y2232660D02*
D03*
X1346200Y1775460D02*
D03*
X1270000Y708660D02*
D03*
X1346200Y251460D02*
D03*
X1270000Y99060D02*
D03*
X1193800Y2689860D02*
D03*
X1117600Y2232660D02*
D03*
Y1623060D02*
D03*
Y708660D02*
D03*
X1193800Y251460D02*
D03*
X965200Y3147060D02*
D03*
Y2842260D02*
D03*
X1041400Y2689860D02*
D03*
X965200Y2232660D02*
D03*
Y708660D02*
D03*
Y99060D02*
D03*
X812800Y3147060D02*
D03*
Y2842260D02*
D03*
X889000Y2689860D02*
D03*
X812800Y2232660D02*
D03*
X889000Y861060D02*
D03*
X812800Y708660D02*
D03*
X889000Y251460D02*
D03*
X812800Y99060D02*
D03*
X660400Y3147060D02*
D03*
X736600Y2994660D02*
D03*
X660400Y2842260D02*
D03*
X736600Y2689860D02*
D03*
X660400Y2232660D02*
D03*
X736600Y861060D02*
D03*
Y251460D02*
D03*
X660400Y99060D02*
D03*
X508000Y3147060D02*
D03*
X584200Y2994660D02*
D03*
X508000Y2842260D02*
D03*
X584200Y2689860D02*
D03*
X508000Y2232660D02*
D03*
Y1623060D02*
D03*
X584200Y251460D02*
D03*
X508000Y99060D02*
D03*
X355600Y3147060D02*
D03*
X431800Y2994660D02*
D03*
X355600Y2842260D02*
D03*
X431800Y2689860D02*
D03*
X355600Y2232660D02*
D03*
X431800Y251460D02*
D03*
X355600Y99060D02*
D03*
X203200Y3147060D02*
D03*
X279400Y2994660D02*
D03*
Y1775460D02*
D03*
Y1165860D02*
D03*
Y251460D02*
D03*
X203200Y99060D02*
D03*
X1425804Y3123256D02*
D03*
X1664597Y2698860D02*
D03*
X1583535Y3087598D02*
D03*
X1653222Y3045763D02*
D03*
X1270000Y3136900D02*
D03*
X1651000Y2501900D02*
D03*
X1793004Y2849447D02*
D03*
X1360182Y2978335D02*
D03*
X1828800Y2489200D02*
D03*
X1651000Y2565400D02*
D03*
X1502219Y2958293D02*
D03*
X1506498Y3113517D02*
D03*
X1430102Y2974275D02*
D03*
X1758992Y2923268D02*
D03*
X1355679Y3122881D02*
D03*
X1168400Y3048000D02*
D03*
Y3111500D02*
D03*
X1828800Y2616200D02*
D03*
X1651000Y2628900D02*
D03*
X1624427Y2854666D02*
D03*
X1168400Y2984500D02*
D03*
X1704587Y2441748D02*
D03*
X1771151Y2443589D02*
D03*
X1711889Y2989509D02*
D03*
X1270000Y2959100D02*
D03*
X1828800Y2552700D02*
D03*
X1572194Y2916941D02*
D03*
X1813170Y2674625D02*
D03*
X1655728Y2779655D02*
D03*
X2870200Y1511300D02*
D03*
Y1625600D02*
D03*
X2628900Y1066800D02*
D03*
X1295400Y1028700D02*
D03*
X2603500Y850900D02*
D03*
X1625600Y939800D02*
D03*
X1574800D02*
D03*
X1524000D02*
D03*
X1079500D02*
D03*
X1028700D02*
D03*
X977900D02*
D03*
X2565400Y889000D02*
D03*
X2501900D02*
D03*
X2438400D02*
D03*
X2971800Y622300D02*
D03*
X3035300D02*
D03*
X3098800D02*
D03*
Y673100D02*
D03*
%TF.MD5,6099b47b8e45cabc10695c3fa9e32146*%
M02*
