M48
;Layer_Color=9474304
;FILE_FORMAT=2:5
INCH,LZ
;TYPE=PLATED
T01F00S00C0.00800
T03F00S00C0.08661
;TYPE=NON_PLATED
T04F00S00C0.02559
%
T01
X0008Y00039
X0014
X002
X0026
X0032
X0038
X0035Y00099
X0029
X0023
X0017
X0011
X0013Y0025
Y0027
Y0029
Y0031
X0007Y00335
X0002Y00315
Y0029
Y00265
X0007Y00245
X0023Y0026
Y00345
X0029Y00339
X0035
X00385Y0037
X00405
X00425
X0041Y0028
X0044Y00279
X005
X0053Y0028
X0056Y00279
X0051Y00405
X0053Y00505
X0045
X00365
X00285
X002
X0012
X0011Y00459
X0012Y0059
X002
Y00639
X00285Y0059
X00365
X0045
X0044Y00639
X0053Y0059
X0038Y00279
Y00245
X00355
X0033
X0032Y00279
X00335Y0017
X00375
X0047Y00099
X0053
X0056Y00039
X005
X0062
X0068
X0065Y00099
X0059
X0062Y00279
X0065Y0028
X0068Y00279
X0064Y0037
X0062
X006
X00645Y00425
X0068
X00695Y00505
X00775
Y0059
X0083846Y0058524
Y0062854
X0089Y00579
X00965Y0058
X01035Y00635
X01055
X01075
X0113Y0064
Y00595
X01195Y0061
X0123
X01265
X0128Y00639
X0134
X014
X0146
X0152
X0155Y00579
X0149
X0143
X0137
X0131
X0134Y00519
X014
X0146
X0152
X0155Y00459
X0149
X0143
X0137
X0131
X0125
X0122Y00399
X0116
X0119Y00339
X0122Y0033
X0125
Y0035
Y00255
X0122Y00245
Y00265
X01195Y00245
X0117
X0114Y00315
X0113Y00339
X01025Y00335
X0101Y0035
X00985
X0096
X00975Y00325
X00995Y0032
X0101Y00305
X0092
X0094Y00285
X00945Y0043
X00985
X01035Y0042
X0107Y0046
Y00485
Y0051
X009Y00495
X00615Y00505
Y0059
X0062Y00639
X00695Y0059
X0122Y00639
X014Y00399
X0143Y00339
X0137
X014Y00279
X0146
X0152
X0155Y00339
X0152Y00399
X0155Y00219
X0149
X0143
X0137
X014Y00159
X0146
X0152
X0155Y00099
X0149
X0143
X0137
X014Y00039
X01245Y0006
Y0008
X0125Y0014
X01225
X012
X0119Y00099
X0113
X0107
X0101
X0095
X0098Y00159
X0104
X01135Y00155
X0116Y00039
X0122
X011
X0104
X0098
X0092
X00965Y00685
X0098Y00759
X0104
X011
X0116
X0119Y00819
X0113
X0107
X0101
X0095
X0089Y0078
X00775Y00755
X00695
X0061
Y0067
X0069
X00775
Y0084
X00695
X0061
Y0095
X006711Y0096132
X006973Y0096204
X0072Y0098
Y01005
Y0103
X0071385Y01053
X0077Y01059
X0083
X0089
X0095
X0101
X0104Y01119
X01075Y01125
X0107Y01179
X0113
X0119
X0125
X0131
X0137
X0143
X0149
X0155
X0152Y01239
X0146
X014
X0134
X0128
X0122
X0116
X011
X0104
X0098
X0101Y01179
X0095
X0098Y01119
X0092
Y00999
X0106Y0101
X01115Y0103
X01155Y01025
Y01045
X01135Y01065
X01185Y01104
X0121Y01105
X01265Y0112
X0134Y01119
Y01075
X0137Y01059
X0143
X0149
X0155
X0152Y01119
X0146
X014
Y00999
X0146
X0152
X0155Y00939
X0149
X0143
X01385Y00935
X0127838Y0092708
X01285Y0091
X01265Y0096
X0122Y0099
X0118508Y0098676
X01195Y0093747
X01155Y00935
X0107Y00939
X01095Y00965
X0122Y00879
X0128Y00759
X0134
X014
X0146
X0152
X0155Y00819
X0149
X0143
X0137
Y00699
X0143
X0149
X0155
X0152Y00879
X0146
X0131Y01059
Y00699
X0125
X0065Y00985
Y0101
Y01035
X0065535Y0106254
X0065186Y0109435
X0063954Y0112388
X0061897Y011484
X0059143Y0116468
X0056303Y0117097
X0059311Y0122579
X0062344Y0121559
X0065087Y0119912
X0067397Y0117697
X0071Y01179
X0069252Y0115089
X0070591Y0112183
X0074Y01119
X0068Y01239
X0059Y01059
X0053
X0047
X0041
X0035
X0029
X0023
X0017
X002Y01119
X0026
X0032
X0038
X005
Y01165
X005355Y0117257
X0053373Y0122948
X0056134Y0122963
X005Y01235
X00475Y01295
X0044
X00405
X0032Y01239
X0026
X002
X0014
X0008
X0011Y01179
X0017
X0023
X0029
X0014Y01119
Y00879
X002
Y0084
X0028
X0026Y00879
X0032
X0038
X00365Y0084
X00445
X0044Y00879
X00445Y0092
X00365
X0028
X002
Y00755
X0028
X00365
X00445
Y0067
X00525
X0053Y00699
Y00755
Y0084
X005Y00879
X0051Y01005
X00555Y0101
X00465Y00995
X0056Y01119
X00365Y0067
X00285
X002
X0012
X0011Y00699
T03
X0082Y0011
Y0123
T04
X0132512Y0009122
Y0031878
M30
