G04*
G04 #@! TF.GenerationSoftware,Altium Limited,Altium Designer,25.1.2 (22)*
G04*
G04 Layer_Color=8388736*
%FSLAX25Y25*%
%MOIN*%
G70*
G04*
G04 #@! TF.SameCoordinates,BC9CED47-F142-4A9A-8343-85A8FF64AE5F*
G04*
G04*
G04 #@! TF.FilePolarity,Negative*
G04*
G01*
G75*
%ADD15R,0.03900X0.11200*%
%ADD16R,0.02400X0.06700*%
%ADD23R,0.02400X0.02000*%
%ADD24R,0.01800X0.03100*%
%ADD26R,0.05700X0.06900*%
%ADD30R,0.01200X0.02400*%
%ADD31R,0.03000X0.04300*%
%ADD32R,0.02000X0.02700*%
%ADD34R,0.01000X0.03000*%
%ADD38R,0.02775X0.00981*%
%ADD39R,0.05512X0.06299*%
%ADD40R,0.00800X0.02800*%
%ADD41R,0.01600X0.02800*%
%ADD44R,0.03550X0.06306*%
%ADD45R,0.06306X0.03550*%
%ADD46R,0.04731X0.04731*%
%ADD47C,0.02400*%
%ADD48R,0.02172X0.01581*%
%ADD49R,0.04337X0.06699*%
%ADD50R,0.04934X0.04737*%
%ADD51R,0.09461X0.04934*%
%ADD52R,0.02762X0.02920*%
%ADD53R,0.02172X0.02959*%
%ADD54R,0.01400X0.03400*%
%ADD55R,0.02956X0.01578*%
%ADD56R,0.02562X0.02759*%
%ADD57R,0.01637X0.00791*%
%ADD58R,0.02920X0.02762*%
%ADD59R,0.02959X0.02172*%
%ADD60R,0.09461X0.03359*%
%ADD61R,0.09855X0.03359*%
%ADD62R,0.04343X0.04737*%
%ADD63R,0.02808X0.03280*%
%ADD64C,0.02559*%
%ADD65O,0.09068X0.04737*%
%ADD66O,0.07887X0.04737*%
%ADD67C,0.20485*%
D15*
X42673Y6900D02*
D03*
X3500D02*
D03*
D16*
X35390Y19498D02*
D03*
X30468D02*
D03*
X25547D02*
D03*
X20626D02*
D03*
X15705D02*
D03*
X10784D02*
D03*
D23*
X55500Y116000D02*
D03*
Y120000D02*
D03*
D24*
X113000Y61800D02*
D03*
Y51500D02*
D03*
D26*
X126500Y104400D02*
D03*
D30*
X108791Y21664D02*
D03*
X111350D02*
D03*
X113909D02*
D03*
Y29564D02*
D03*
X111350D02*
D03*
X108791D02*
D03*
D31*
X109480Y25614D02*
D03*
X113221D02*
D03*
D32*
X95500Y23500D02*
D03*
Y27500D02*
D03*
D34*
X113453Y110600D02*
D03*
X111484D02*
D03*
X109516D02*
D03*
X107547D02*
D03*
Y98200D02*
D03*
X109516D02*
D03*
X111484D02*
D03*
X113453D02*
D03*
D38*
X104330Y45563D02*
D03*
Y47532D02*
D03*
Y49500D02*
D03*
Y51468D02*
D03*
X92500D02*
D03*
Y49500D02*
D03*
Y47532D02*
D03*
Y45563D02*
D03*
D39*
X98415Y48516D02*
D03*
D40*
X26937Y32000D02*
D03*
X24969D02*
D03*
X21032D02*
D03*
X19063D02*
D03*
Y28500D02*
D03*
X21032D02*
D03*
X24969D02*
D03*
X26937D02*
D03*
D41*
X23000Y32000D02*
D03*
Y28500D02*
D03*
D44*
X72823Y100847D02*
D03*
X68492D02*
D03*
X64161D02*
D03*
X59831D02*
D03*
X55500D02*
D03*
X51169D02*
D03*
X46839D02*
D03*
X42508D02*
D03*
X38177D02*
D03*
X33847D02*
D03*
X29516D02*
D03*
X25185D02*
D03*
X20854D02*
D03*
X16524D02*
D03*
Y42185D02*
D03*
X20854D02*
D03*
X25185D02*
D03*
X29516D02*
D03*
X33847D02*
D03*
X38177D02*
D03*
X42508D02*
D03*
X46839D02*
D03*
X51169D02*
D03*
X55500D02*
D03*
X59831D02*
D03*
X64161D02*
D03*
X68492D02*
D03*
X72823D02*
D03*
D45*
X5500Y97500D02*
D03*
Y93169D02*
D03*
Y88839D02*
D03*
Y84508D02*
D03*
Y80177D02*
D03*
Y75846D02*
D03*
Y71516D02*
D03*
Y67185D02*
D03*
Y62854D02*
D03*
Y58524D02*
D03*
Y54193D02*
D03*
Y49862D02*
D03*
Y45531D02*
D03*
X83846D02*
D03*
Y49862D02*
D03*
Y54193D02*
D03*
Y58524D02*
D03*
Y62854D02*
D03*
Y67185D02*
D03*
Y71516D02*
D03*
Y75846D02*
D03*
Y80177D02*
D03*
Y84508D02*
D03*
Y88839D02*
D03*
Y93169D02*
D03*
Y97500D02*
D03*
D46*
X73610Y92185D02*
D03*
Y83917D02*
D03*
Y75650D02*
D03*
Y67382D02*
D03*
Y59114D02*
D03*
Y50846D02*
D03*
X65342Y92185D02*
D03*
Y83917D02*
D03*
Y75650D02*
D03*
Y67382D02*
D03*
Y59114D02*
D03*
Y50846D02*
D03*
X57075Y92185D02*
D03*
Y83917D02*
D03*
Y75650D02*
D03*
Y67382D02*
D03*
Y59114D02*
D03*
Y50846D02*
D03*
X48807Y92185D02*
D03*
Y83917D02*
D03*
Y75650D02*
D03*
Y67382D02*
D03*
Y59114D02*
D03*
Y50846D02*
D03*
X40539Y92185D02*
D03*
Y83917D02*
D03*
Y75650D02*
D03*
Y67382D02*
D03*
Y59114D02*
D03*
Y50846D02*
D03*
X32272Y92185D02*
D03*
Y83917D02*
D03*
Y75650D02*
D03*
Y67382D02*
D03*
Y59114D02*
D03*
Y50846D02*
D03*
X24004Y92185D02*
D03*
Y83917D02*
D03*
Y75650D02*
D03*
Y67382D02*
D03*
Y59114D02*
D03*
Y50846D02*
D03*
X15736Y92185D02*
D03*
Y83917D02*
D03*
Y75650D02*
D03*
Y67382D02*
D03*
Y59114D02*
D03*
Y50846D02*
D03*
D47*
X92000Y88000D02*
D03*
X5000Y110500D02*
D03*
Y116000D02*
D03*
X92000Y78000D02*
D03*
Y93000D02*
D03*
Y83000D02*
D03*
D48*
X3161Y31559D02*
D03*
Y29000D02*
D03*
Y26441D02*
D03*
X10839D02*
D03*
Y29000D02*
D03*
Y31559D02*
D03*
D49*
X7000Y29000D02*
D03*
D50*
X37992Y120000D02*
D03*
X50000D02*
D03*
D51*
X43996Y114193D02*
D03*
Y125807D02*
D03*
D52*
X102732Y27500D02*
D03*
X99268D02*
D03*
D53*
X99327Y23500D02*
D03*
X102673D02*
D03*
X130673Y14000D02*
D03*
X127327D02*
D03*
X127500Y25500D02*
D03*
X130847D02*
D03*
D54*
X124531Y98700D02*
D03*
X126500D02*
D03*
X128469D02*
D03*
Y110100D02*
D03*
X126500D02*
D03*
X124531D02*
D03*
D55*
X96346Y70091D02*
D03*
Y56508D02*
D03*
D56*
X99693Y69500D02*
D03*
Y57098D02*
D03*
X93000Y69500D02*
D03*
Y57098D02*
D03*
D57*
X124209Y92022D02*
D03*
Y93400D02*
D03*
Y94778D02*
D03*
X128791D02*
D03*
Y93400D02*
D03*
Y92022D02*
D03*
D58*
X119000Y30465D02*
D03*
Y27000D02*
D03*
X118500Y110400D02*
D03*
Y106935D02*
D03*
Y98668D02*
D03*
Y102132D02*
D03*
X138500Y88000D02*
D03*
Y91465D02*
D03*
X105500Y57000D02*
D03*
Y60465D02*
D03*
X100240Y41000D02*
D03*
Y37535D02*
D03*
X96240Y41000D02*
D03*
Y37535D02*
D03*
X60000Y34500D02*
D03*
Y31035D02*
D03*
X38500Y34500D02*
D03*
Y31035D02*
D03*
X42500Y34500D02*
D03*
Y31035D02*
D03*
D59*
X115500Y89653D02*
D03*
Y93000D02*
D03*
X111500Y89653D02*
D03*
Y93000D02*
D03*
X119500Y89653D02*
D03*
Y93000D02*
D03*
X134000Y98500D02*
D03*
Y95153D02*
D03*
Y88000D02*
D03*
Y91347D02*
D03*
Y105847D02*
D03*
Y102500D02*
D03*
X113000Y42500D02*
D03*
Y45847D02*
D03*
X105500Y66154D02*
D03*
Y69500D02*
D03*
X64000Y31154D02*
D03*
Y34500D02*
D03*
D60*
X122803Y52495D02*
D03*
D61*
X123000Y58400D02*
D03*
D62*
X48685Y33000D02*
D03*
X54000D02*
D03*
D63*
X71981Y108217D02*
D03*
X68359D02*
D03*
D64*
X132512Y31878D02*
D03*
Y9122D02*
D03*
D65*
X130543Y3492D02*
D03*
Y37508D02*
D03*
D66*
X147000Y3492D02*
D03*
Y37508D02*
D03*
D67*
X82000Y11000D02*
D03*
Y123000D02*
D03*
M02*
