G04*
G04 #@! TF.GenerationSoftware,Altium Limited,Altium Designer,25.1.2 (22)*
G04*
G04 Layer_Physical_Order=1*
G04 Layer_Color=255*
%FSLAX25Y25*%
%MOIN*%
G70*
G04*
G04 #@! TF.SameCoordinates,FC2E8108-2B61-49F6-95E9-6E453CE652F1*
G04*
G04*
G04 #@! TF.FilePolarity,Positive*
G04*
G01*
G75*
%ADD12C,0.01000*%
%ADD13C,0.00600*%
%ADD15R,0.03900X0.11200*%
%ADD16R,0.02400X0.06700*%
%ADD17C,0.02000*%
%ADD18R,0.01772X0.01181*%
%ADD19R,0.04134X0.03937*%
%ADD20R,0.08661X0.04134*%
%ADD21R,0.02362X0.02520*%
%ADD22R,0.01772X0.02559*%
%ADD23R,0.02400X0.02000*%
%ADD24R,0.01800X0.03100*%
%ADD25R,0.01200X0.03200*%
%ADD26R,0.05700X0.06900*%
%ADD27R,0.02756X0.01378*%
%ADD28R,0.02362X0.02559*%
%ADD29R,0.01437X0.00591*%
%ADD30R,0.01200X0.02400*%
%ADD31R,0.03000X0.04300*%
%ADD32R,0.02000X0.02700*%
%ADD33R,0.02520X0.02362*%
%ADD34R,0.01000X0.03000*%
%ADD35R,0.02559X0.01772*%
%ADD36R,0.08661X0.02559*%
%ADD37R,0.09055X0.02559*%
%ADD38R,0.02775X0.00981*%
%ADD39R,0.05512X0.06299*%
%ADD40R,0.00800X0.02800*%
%ADD41R,0.01600X0.02800*%
%ADD42R,0.03543X0.03937*%
%ADD43R,0.02008X0.02480*%
%ADD64C,0.02559*%
%ADD68C,0.01800*%
%ADD69R,0.03150X0.05906*%
%ADD70R,0.05906X0.03150*%
%ADD71R,0.04331X0.04331*%
%ADD72R,0.03937X0.06299*%
%ADD73C,0.01600*%
%ADD74C,0.02000*%
%ADD75C,0.00800*%
%ADD76C,0.00900*%
%ADD77C,0.01200*%
%ADD78O,0.08268X0.03937*%
%ADD79O,0.07087X0.03937*%
%ADD80C,0.19685*%
%ADD81C,0.01600*%
G36*
X156461Y1046D02*
X150860D01*
X150746Y1445D01*
X151168Y1995D01*
X151467Y2717D01*
X151503Y2992D01*
X147000D01*
X142497D01*
X142533Y2717D01*
X142832Y1995D01*
X143254Y1445D01*
X143140Y1046D01*
X134994D01*
X134880Y1445D01*
X135302Y1995D01*
X135601Y2717D01*
X135637Y2992D01*
X130543D01*
X125450D01*
X125486Y2717D01*
X125785Y1995D01*
X126207Y1445D01*
X126092Y1046D01*
X87203D01*
X87109Y1434D01*
X87683Y1727D01*
X89063Y2730D01*
X90270Y3937D01*
X91273Y5317D01*
X92048Y6838D01*
X92576Y8461D01*
X92843Y10147D01*
Y10500D01*
X71157D01*
Y10147D01*
X71425Y8461D01*
X71952Y6838D01*
X72727Y5317D01*
X73730Y3937D01*
X74937Y2730D01*
X76317Y1727D01*
X76891Y1434D01*
X76797Y1046D01*
X1020D01*
Y41160D01*
X1389Y41313D01*
X9351Y33351D01*
X9649Y33152D01*
X9791Y33124D01*
X9853Y32750D01*
X9853Y32750D01*
X9853Y32750D01*
Y32269D01*
X9803Y32150D01*
Y25222D01*
X8041Y23459D01*
X7851Y23000D01*
Y16148D01*
X8041Y15689D01*
X8500Y15499D01*
X13000D01*
X13459Y15689D01*
X13505Y15799D01*
X13905Y15720D01*
Y15548D01*
X17505D01*
Y23448D01*
X17505Y23448D01*
X17505D01*
X17703Y23761D01*
X19612Y25670D01*
X20012Y25504D01*
Y23448D01*
X18826D01*
Y15548D01*
X22426D01*
Y23448D01*
X22051D01*
Y28500D01*
Y32000D01*
X22031Y32098D01*
Y34000D01*
X21943D01*
X21879Y34320D01*
X21680Y34617D01*
X19649Y36649D01*
X19351Y36848D01*
X19000Y36918D01*
X12380D01*
X6418Y42880D01*
Y43357D01*
X9053D01*
Y47687D01*
Y52018D01*
Y56349D01*
Y60680D01*
Y65010D01*
Y69341D01*
Y75094D01*
X9352Y75153D01*
X9650Y75352D01*
X12149Y77851D01*
X12348Y78149D01*
X12418Y78500D01*
Y109500D01*
X12348Y109851D01*
X12149Y110149D01*
X6600Y115698D01*
Y116318D01*
X6356Y116906D01*
X5906Y117356D01*
X5318Y117600D01*
X4682D01*
X4094Y117356D01*
X3644Y116906D01*
X3400Y116318D01*
Y115682D01*
X3644Y115094D01*
X4094Y114644D01*
X4682Y114400D01*
X5302D01*
X10582Y109120D01*
Y106738D01*
X10213Y106585D01*
X6600Y110198D01*
Y110818D01*
X6356Y111406D01*
X5906Y111856D01*
X5318Y112100D01*
X4682D01*
X4094Y111856D01*
X3644Y111406D01*
X3400Y110818D01*
Y110182D01*
X3644Y109594D01*
X4094Y109144D01*
X4682Y108900D01*
X5302D01*
X9082Y105120D01*
Y100063D01*
X9053Y99675D01*
X1947D01*
Y95325D01*
Y90995D01*
Y86664D01*
Y82333D01*
Y78002D01*
Y73672D01*
Y69341D01*
Y65010D01*
Y60680D01*
Y56349D01*
Y50780D01*
X1862D01*
X1511Y50710D01*
X1419Y50649D01*
X1020Y50863D01*
Y132839D01*
X76570D01*
X76664Y132450D01*
X76317Y132273D01*
X74937Y131270D01*
X73730Y130063D01*
X72727Y128683D01*
X71952Y127162D01*
X71425Y125539D01*
X71157Y123853D01*
Y123500D01*
X92843D01*
Y123853D01*
X92576Y125539D01*
X92048Y127162D01*
X91273Y128683D01*
X90270Y130063D01*
X89063Y131270D01*
X87683Y132273D01*
X87336Y132450D01*
X87430Y132839D01*
X156461D01*
Y1046D01*
D02*
G37*
G36*
X18045Y32720D02*
Y32344D01*
X18043Y32334D01*
Y26985D01*
X15549Y24491D01*
X15149Y24657D01*
Y32150D01*
X14959Y32609D01*
X14782Y32682D01*
X14861Y33082D01*
X17683D01*
X18045Y32720D01*
D02*
G37*
G36*
X14500Y24409D02*
X13000Y23181D01*
Y16148D01*
X8500D01*
Y23000D01*
X10453Y24953D01*
Y32150D01*
X14500D01*
Y24409D01*
D02*
G37*
%LPC*%
G36*
X92843Y122500D02*
X82500D01*
Y112157D01*
X82853D01*
X84539Y112425D01*
X86162Y112952D01*
X87683Y113727D01*
X89063Y114730D01*
X90270Y115937D01*
X91273Y117317D01*
X92048Y118838D01*
X92576Y120461D01*
X92843Y122147D01*
Y122500D01*
D02*
G37*
G36*
X81500D02*
X71157D01*
Y122147D01*
X71425Y120461D01*
X71952Y118838D01*
X72727Y117317D01*
X73730Y115937D01*
X74937Y114730D01*
X76317Y113727D01*
X77838Y112952D01*
X79461Y112425D01*
X81147Y112157D01*
X81500D01*
Y122500D01*
D02*
G37*
G36*
X127287Y116022D02*
X127287Y116022D01*
X111400D01*
X110971Y115936D01*
X110607Y115693D01*
X110607Y115693D01*
X108723Y113809D01*
X108480Y113445D01*
X108394Y113016D01*
X108394Y113016D01*
Y110600D01*
X108416Y110492D01*
Y108500D01*
X110363D01*
Y103843D01*
X110313Y103793D01*
X110100Y103279D01*
Y102722D01*
X110118Y102678D01*
X109779Y102451D01*
X103152Y109078D01*
X102755Y109344D01*
X102287Y109437D01*
X73585D01*
Y110058D01*
X70377D01*
Y106377D01*
X73585D01*
Y106990D01*
X101780D01*
X105970Y102800D01*
X105804Y102400D01*
X105721D01*
X105207Y102187D01*
X104813Y101793D01*
X104600Y101278D01*
Y100722D01*
X104813Y100207D01*
X105207Y99813D01*
X105721Y99600D01*
X106279D01*
X106426Y99502D01*
Y98200D01*
X106447Y98092D01*
Y96100D01*
X107885D01*
X108100Y95779D01*
Y95222D01*
X108313Y94707D01*
X108707Y94313D01*
X109221Y94100D01*
X109620D01*
Y91514D01*
X109620D01*
Y91139D01*
X109620D01*
Y88168D01*
X113380D01*
Y88168D01*
X113620D01*
Y88168D01*
X117379D01*
Y88168D01*
X117621D01*
Y88168D01*
X121379D01*
Y88736D01*
X121653D01*
X122005Y88806D01*
X122302Y89005D01*
X123149Y89851D01*
X123348Y90149D01*
X123418Y90500D01*
Y91127D01*
X124971D01*
Y90509D01*
X125049Y90119D01*
X125270Y89788D01*
X127779Y87279D01*
X128110Y87058D01*
X128500Y86980D01*
X132121D01*
Y86514D01*
X135880D01*
Y86777D01*
X136640D01*
Y86219D01*
X140360D01*
Y89781D01*
X136640D01*
Y89223D01*
X136171D01*
X135880Y89486D01*
Y89861D01*
X135880D01*
Y92832D01*
X135223D01*
Y93668D01*
X135880D01*
Y96639D01*
X135880D01*
Y97014D01*
X135880D01*
Y99986D01*
X135223D01*
Y101014D01*
X135880D01*
Y103986D01*
X132121D01*
Y101014D01*
X132776D01*
Y99986D01*
X132121D01*
Y99724D01*
X129668D01*
Y100350D01*
X129950D01*
Y108450D01*
X129668D01*
Y112300D01*
X129590D01*
Y113718D01*
X129505Y114148D01*
X129262Y114512D01*
X129262Y114512D01*
X128080Y115693D01*
X127716Y115936D01*
X127287Y116022D01*
D02*
G37*
G36*
X47933Y123740D02*
X40059D01*
Y116260D01*
X47933D01*
Y117532D01*
X52567D01*
Y118573D01*
X53800D01*
Y118500D01*
X57098D01*
X57698Y118453D01*
X59305Y118067D01*
X60832Y117435D01*
X62241Y116571D01*
X63192Y115759D01*
X63484Y115498D01*
X63485Y115496D01*
X63752Y115207D01*
X64743Y114047D01*
X65746Y112410D01*
X66481Y110635D01*
X66855Y109076D01*
Y106477D01*
X67065D01*
Y104299D01*
X66417D01*
Y97394D01*
X70567D01*
Y104299D01*
X69920D01*
Y106849D01*
X69938Y106858D01*
X69863Y107812D01*
Y109958D01*
X69575D01*
X69200Y111519D01*
X68293Y113707D01*
X67055Y115727D01*
X65517Y117528D01*
X65517Y117528D01*
X65517D01*
X65216Y117778D01*
X63921Y118884D01*
X62130Y119982D01*
X60188Y120786D01*
X58145Y121276D01*
X57200Y121351D01*
Y121500D01*
X53800D01*
Y121427D01*
X52567D01*
Y122468D01*
X47933D01*
Y123740D01*
D02*
G37*
G36*
X23029Y104399D02*
X18679D01*
Y97294D01*
X23029D01*
Y104399D01*
D02*
G37*
G36*
X55778Y106900D02*
X55221D01*
X54707Y106687D01*
X54313Y106293D01*
X54100Y105779D01*
Y105221D01*
X54275Y104799D01*
X54146Y104508D01*
X54055Y104399D01*
X27341D01*
Y97294D01*
X45573D01*
Y96500D01*
X45600Y96362D01*
Y96222D01*
X45654Y96092D01*
X45681Y95954D01*
X45759Y95837D01*
X45813Y95707D01*
X45913Y95608D01*
X45991Y95491D01*
X46108Y95412D01*
X46207Y95313D01*
X46337Y95259D01*
X46454Y95181D01*
X46592Y95154D01*
X46722Y95100D01*
X46862D01*
X47000Y95073D01*
X47138Y95100D01*
X47278D01*
X47408Y95154D01*
X47546Y95181D01*
X47663Y95259D01*
X47793Y95313D01*
X47892Y95412D01*
X48009Y95491D01*
X48087Y95608D01*
X48187Y95707D01*
X48241Y95837D01*
X48319Y95954D01*
X48346Y96092D01*
X48400Y96222D01*
Y96362D01*
X48427Y96500D01*
Y97294D01*
X49880D01*
X50148Y96894D01*
X50100Y96779D01*
Y96222D01*
X50313Y95707D01*
X50707Y95313D01*
X51222Y95100D01*
X51779D01*
X52293Y95313D01*
X52687Y95707D01*
X52900Y96222D01*
Y96779D01*
X52852Y96894D01*
X53120Y97294D01*
X57880D01*
X58148Y96894D01*
X58100Y96779D01*
Y96222D01*
X58313Y95707D01*
X58707Y95313D01*
X59222Y95100D01*
X59778D01*
X60293Y95313D01*
X60687Y95707D01*
X60900Y96222D01*
Y96779D01*
X60852Y96894D01*
X61120Y97294D01*
X62006D01*
Y104399D01*
X56945D01*
X56854Y104508D01*
X56725Y104799D01*
X56900Y105221D01*
Y105779D01*
X56687Y106293D01*
X56293Y106687D01*
X55778Y106900D01*
D02*
G37*
G36*
X87399Y95344D02*
X80294D01*
Y90995D01*
Y86664D01*
Y82333D01*
Y78002D01*
Y73672D01*
X87399D01*
Y74623D01*
X88647D01*
X91490Y71780D01*
X91325Y71380D01*
X91219D01*
Y67620D01*
X91777D01*
Y58978D01*
X91219D01*
Y55219D01*
X94781D01*
Y58978D01*
X94223D01*
Y67620D01*
X94781D01*
Y71380D01*
X94223D01*
Y72000D01*
X94130Y72468D01*
X93865Y72865D01*
X90138Y76592D01*
X90120Y76709D01*
X90307Y76956D01*
X90758Y76979D01*
X91094Y76644D01*
X91682Y76400D01*
X92318D01*
X92906Y76644D01*
X93356Y77094D01*
X93600Y77682D01*
Y78318D01*
X93356Y78906D01*
X92906Y79356D01*
X92318Y79600D01*
X91682D01*
X91094Y79356D01*
X90655Y78918D01*
X90062D01*
X89890Y79090D01*
X89851Y79356D01*
X89855Y79465D01*
X89881Y79583D01*
X91698Y81400D01*
X92318D01*
X92906Y81644D01*
X93356Y82094D01*
X93600Y82682D01*
Y83318D01*
X93356Y83906D01*
X92906Y84356D01*
X92318Y84600D01*
X91682D01*
X91094Y84356D01*
X90644Y83906D01*
X90400Y83318D01*
Y82698D01*
X88797Y81095D01*
X87399D01*
Y83590D01*
X88508D01*
X88859Y83660D01*
X89157Y83859D01*
X91698Y86400D01*
X92318D01*
X92906Y86644D01*
X93356Y87094D01*
X93600Y87682D01*
Y88318D01*
X93356Y88906D01*
X92906Y89356D01*
X92318Y89600D01*
X91682D01*
X91094Y89356D01*
X90644Y88906D01*
X90400Y88318D01*
Y87698D01*
X88128Y85426D01*
X87399D01*
Y86664D01*
Y92082D01*
X90655D01*
X91094Y91644D01*
X91682Y91400D01*
X92318D01*
X92906Y91644D01*
X93356Y92094D01*
X93600Y92682D01*
Y93318D01*
X93356Y93906D01*
X92906Y94356D01*
X92318Y94600D01*
X91682D01*
X91094Y94356D01*
X90655Y93918D01*
X87399D01*
Y95344D01*
D02*
G37*
G36*
X101474Y71380D02*
X97912D01*
Y67620D01*
X98469D01*
Y58978D01*
X97912D01*
Y55219D01*
X101474D01*
Y55826D01*
X103640D01*
Y55219D01*
X107360D01*
Y58781D01*
X103640D01*
Y58273D01*
X101474D01*
Y58978D01*
X100916D01*
Y67620D01*
X101474D01*
Y68277D01*
X103621D01*
Y68014D01*
X107379D01*
Y70986D01*
X103621D01*
Y70723D01*
X101474D01*
Y71380D01*
D02*
G37*
G36*
X113318Y66100D02*
X112682D01*
X112094Y65856D01*
X111644Y65406D01*
X111400Y64818D01*
Y64182D01*
X111500Y63940D01*
Y59650D01*
X111500D01*
X111523Y59615D01*
X111400Y59318D01*
Y58682D01*
X111644Y58094D01*
X112094Y57644D01*
X112682Y57400D01*
X113318D01*
X113906Y57644D01*
X114356Y58094D01*
X114600Y58682D01*
Y59318D01*
X114477Y59615D01*
X114500Y59650D01*
X114500D01*
Y63940D01*
X114600Y64182D01*
Y64818D01*
X114356Y65406D01*
X113906Y65856D01*
X113318Y66100D01*
D02*
G37*
G36*
X65279Y48400D02*
X64722D01*
X64207Y48187D01*
X63813Y47793D01*
X63600Y47278D01*
Y46722D01*
X63813Y46207D01*
X63882Y46138D01*
X63744Y45738D01*
X61525D01*
X61405Y45787D01*
X58256D01*
X58136Y45738D01*
X57656D01*
Y45257D01*
X57607Y45138D01*
Y39232D01*
X57656Y39113D01*
Y38632D01*
X57937D01*
X58091Y38479D01*
Y33319D01*
X58140Y33200D01*
Y32719D01*
X58621D01*
X58740Y32669D01*
X61260D01*
X61379Y32719D01*
X61860D01*
Y32965D01*
X65280D01*
X65399Y33014D01*
X65879D01*
Y33495D01*
X65929Y33614D01*
Y38000D01*
X65833Y38232D01*
X66088Y38632D01*
X70667D01*
Y45738D01*
X68900D01*
Y46279D01*
X68687Y46793D01*
X68293Y47187D01*
X67778Y47400D01*
X67221D01*
X66800Y47225D01*
X66596Y47253D01*
X66351Y47397D01*
X66187Y47793D01*
X65793Y48187D01*
X65279Y48400D01*
D02*
G37*
G36*
X52000Y48131D02*
X50000D01*
X49842Y48100D01*
X49682D01*
X49533Y48039D01*
X49376Y48007D01*
X49242Y47918D01*
X49094Y47856D01*
X48980Y47743D01*
X48847Y47653D01*
X48757Y47520D01*
X48644Y47406D01*
X48582Y47258D01*
X48493Y47124D01*
X48461Y46967D01*
X48400Y46818D01*
Y46658D01*
X48369Y46500D01*
X48400Y46342D01*
Y46182D01*
X48418Y46138D01*
X48303Y45888D01*
X48140Y45738D01*
X44202D01*
X44083Y45787D01*
X36602D01*
X36483Y45738D01*
X36002D01*
Y45257D01*
X35953Y45138D01*
Y39232D01*
X36002Y39113D01*
Y38632D01*
X36284D01*
X36591Y38326D01*
Y33319D01*
X36640Y33200D01*
Y32719D01*
X37121D01*
X37240Y32669D01*
X43760D01*
X43879Y32719D01*
X44360D01*
Y33200D01*
X44409Y33319D01*
Y35412D01*
X44542Y35545D01*
X44732Y36004D01*
Y38632D01*
X48945D01*
Y37919D01*
X46595Y35568D01*
X46313D01*
Y35088D01*
X46264Y34969D01*
Y31032D01*
X46313Y30912D01*
Y30432D01*
X46794D01*
X46913Y30382D01*
X50457D01*
X50576Y30432D01*
X51057D01*
Y30912D01*
X51106Y31032D01*
Y34699D01*
X53203Y36797D01*
X53394Y37256D01*
Y45138D01*
X53376Y45182D01*
Y45640D01*
X53418Y45742D01*
X53507Y45876D01*
X53539Y46033D01*
X53600Y46182D01*
Y46342D01*
X53631Y46500D01*
X53600Y46658D01*
Y46818D01*
X53539Y46967D01*
X53507Y47124D01*
X53418Y47258D01*
X53356Y47406D01*
X53243Y47520D01*
X53154Y47653D01*
X53020Y47743D01*
X52906Y47856D01*
X52758Y47918D01*
X52624Y48007D01*
X52467Y48039D01*
X52318Y48100D01*
X52158D01*
X52000Y48131D01*
D02*
G37*
G36*
X101771Y52265D02*
X95059D01*
Y44766D01*
X101771D01*
Y52265D01*
D02*
G37*
G36*
X127734Y54374D02*
X117872D01*
Y50615D01*
X121376D01*
Y49394D01*
X115909Y43927D01*
X114938D01*
X114880Y43986D01*
Y44361D01*
X114880Y44386D01*
Y47332D01*
X114122D01*
Y49350D01*
X114500D01*
Y53650D01*
X111500D01*
Y49350D01*
X111878D01*
Y47332D01*
X111120D01*
Y44386D01*
X111120Y44361D01*
Y43986D01*
X110734Y43927D01*
X104271D01*
X103724Y43819D01*
X103397Y43600D01*
X103182D01*
X102594Y43356D01*
X102144Y42906D01*
X101900Y42318D01*
Y41682D01*
X102144Y41094D01*
X102594Y40644D01*
X103182Y40400D01*
X103818D01*
X104406Y40644D01*
X104835Y41073D01*
X111120D01*
Y41014D01*
X114880D01*
Y41073D01*
X116500D01*
X116500Y41073D01*
X117046Y41181D01*
X117509Y41491D01*
X123812Y47794D01*
X124122Y48257D01*
X124231Y48803D01*
X124231Y48803D01*
Y50615D01*
X127734D01*
Y54374D01*
D02*
G37*
G36*
X31691Y45738D02*
X14349D01*
Y38632D01*
X31691D01*
Y45738D01*
D02*
G37*
G36*
X132709Y40502D02*
X131043D01*
Y38008D01*
X135637D01*
X135601Y38283D01*
X135302Y39005D01*
X134826Y39625D01*
X134206Y40101D01*
X133484Y40400D01*
X132709Y40502D01*
D02*
G37*
G36*
X148575D02*
X147500D01*
Y38008D01*
X151503D01*
X151467Y38283D01*
X151168Y39005D01*
X150692Y39625D01*
X150072Y40101D01*
X149350Y40400D01*
X148575Y40502D01*
D02*
G37*
G36*
X146500D02*
X145425D01*
X144650Y40400D01*
X143928Y40101D01*
X143308Y39625D01*
X142832Y39005D01*
X142533Y38283D01*
X142497Y38008D01*
X146500D01*
Y40502D01*
D02*
G37*
G36*
X130043D02*
X128378D01*
X127603Y40400D01*
X126881Y40101D01*
X126261Y39625D01*
X125785Y39005D01*
X125486Y38283D01*
X125450Y38008D01*
X130043D01*
Y40502D01*
D02*
G37*
G36*
X151503Y37008D02*
X147500D01*
Y34514D01*
X148575D01*
X149350Y34616D01*
X150072Y34915D01*
X150692Y35391D01*
X151168Y36011D01*
X151467Y36733D01*
X151503Y37008D01*
D02*
G37*
G36*
X146500D02*
X142497D01*
X142533Y36733D01*
X142832Y36011D01*
X143308Y35391D01*
X143928Y34915D01*
X144650Y34616D01*
X145425Y34514D01*
X146500D01*
Y37008D01*
D02*
G37*
G36*
X135637D02*
X131043D01*
Y34514D01*
X132709D01*
X133484Y34616D01*
X134206Y34915D01*
X134826Y35391D01*
X135302Y36011D01*
X135601Y36733D01*
X135637Y37008D01*
D02*
G37*
G36*
X130043D02*
X125450D01*
X125486Y36733D01*
X125785Y36011D01*
X126261Y35391D01*
X126881Y34915D01*
X127603Y34616D01*
X128378Y34514D01*
X130043D01*
Y37008D01*
D02*
G37*
G36*
X132886Y33757D02*
X132138D01*
X131447Y33471D01*
X130918Y32943D01*
X130632Y32252D01*
Y31504D01*
X130918Y30813D01*
X131447Y30285D01*
X132138Y29998D01*
X132886D01*
X133577Y30285D01*
X134105Y30813D01*
X134391Y31504D01*
Y32252D01*
X134105Y32943D01*
X133577Y33471D01*
X132886Y33757D01*
D02*
G37*
G36*
X87399Y69360D02*
X80294D01*
Y65010D01*
Y60680D01*
Y56349D01*
Y52018D01*
Y47687D01*
Y43357D01*
X82827D01*
Y37269D01*
X61726Y16168D01*
X33091D01*
X32269Y16990D01*
Y23448D01*
X30110D01*
X27957Y25602D01*
Y28500D01*
Y32000D01*
X27937Y32098D01*
Y34000D01*
X23968D01*
Y32098D01*
X23949Y32000D01*
Y28500D01*
Y23448D01*
X23747D01*
Y15548D01*
X25905D01*
X28675Y12779D01*
X29006Y12558D01*
X29396Y12480D01*
X63000D01*
X63390Y12558D01*
X63721Y12779D01*
X89721Y38779D01*
X89942Y39110D01*
X90020Y39500D01*
Y47464D01*
X90329Y47742D01*
X90404Y47764D01*
X90513Y47731D01*
Y44472D01*
X91378D01*
Y40000D01*
X91378Y40000D01*
X91464Y39571D01*
X91707Y39207D01*
X93490Y37424D01*
X93490Y37424D01*
X93854Y37180D01*
X94283Y37095D01*
X94351Y36705D01*
Y32500D01*
X94541Y32041D01*
X95000Y31851D01*
X100573D01*
X100902Y31521D01*
X100902Y25743D01*
X100813Y25379D01*
X100502Y25379D01*
X97841D01*
Y24724D01*
X97100D01*
Y25450D01*
X93900D01*
Y21550D01*
X97100D01*
Y22276D01*
X97841D01*
Y21621D01*
X100746Y21621D01*
X100964Y21538D01*
X101139Y21443D01*
X104041Y18541D01*
X104500Y18351D01*
X109973D01*
X110432Y18541D01*
X110622Y19000D01*
Y19864D01*
X112550D01*
Y19864D01*
X112709D01*
Y19864D01*
X115109D01*
Y22815D01*
X123500D01*
X123959Y23005D01*
X124149Y23464D01*
Y23904D01*
X124549Y24171D01*
X124722Y24100D01*
X125278D01*
X125614Y24239D01*
X126006Y24016D01*
X126014Y24005D01*
Y23620D01*
X128986D01*
Y27380D01*
X126014D01*
Y26995D01*
X126006Y26984D01*
X125614Y26761D01*
X125278Y26900D01*
X124722D01*
X124549Y26829D01*
X124149Y27096D01*
Y28181D01*
X123959Y28640D01*
X123500Y28831D01*
X115681D01*
X115222Y28640D01*
X114995Y28414D01*
X113278Y28414D01*
X113257Y28523D01*
X113014Y28887D01*
X113014Y28887D01*
X112550Y29350D01*
Y31364D01*
X110150D01*
Y31364D01*
X109991D01*
Y31364D01*
X107649D01*
Y34500D01*
X107459Y34959D01*
X103243Y39176D01*
X102784Y39366D01*
X95008D01*
X94941Y39338D01*
X94748D01*
X93622Y40465D01*
Y44472D01*
X94487D01*
Y48409D01*
Y52559D01*
X90513D01*
Y52559D01*
X90113Y52529D01*
X88902Y53739D01*
X88571Y53960D01*
X88181Y54038D01*
X87399D01*
Y56885D01*
X87722Y57100D01*
X88279D01*
X88793Y57313D01*
X89187Y57707D01*
X89400Y58222D01*
Y58779D01*
X89187Y59293D01*
X88793Y59687D01*
X88279Y59900D01*
X87722D01*
X87399Y60115D01*
Y61385D01*
X87722Y61600D01*
X88279D01*
X88793Y61813D01*
X89187Y62207D01*
X89400Y62722D01*
Y63279D01*
X89187Y63793D01*
X88793Y64187D01*
X88279Y64400D01*
X87722D01*
X87399Y64615D01*
Y65010D01*
Y69360D01*
D02*
G37*
G36*
X128813Y15879D02*
X125841D01*
Y15600D01*
X125441Y15333D01*
X125278Y15400D01*
X124722D01*
X124207Y15187D01*
X123915Y14895D01*
X123856Y14906D01*
X123406Y15356D01*
X122818Y15600D01*
X122182D01*
X121594Y15356D01*
X121250Y15013D01*
X120906Y15356D01*
X120318Y15600D01*
X119682D01*
X119094Y15356D01*
X118644Y14906D01*
X118400Y14318D01*
Y13682D01*
X118644Y13094D01*
X119094Y12644D01*
X119682Y12400D01*
X120318D01*
X120906Y12644D01*
X121250Y12987D01*
X121594Y12644D01*
X122182Y12400D01*
X122818D01*
X123406Y12644D01*
X123856Y13094D01*
X123915Y13105D01*
X124207Y12813D01*
X124722Y12600D01*
X125278D01*
X125441Y12667D01*
X125841Y12400D01*
Y12121D01*
X128813D01*
Y15879D01*
D02*
G37*
G36*
X82853Y21843D02*
X82500D01*
Y11500D01*
X92843D01*
Y11853D01*
X92576Y13539D01*
X92048Y15162D01*
X91273Y16683D01*
X90270Y18063D01*
X89063Y19270D01*
X87683Y20273D01*
X86162Y21048D01*
X84539Y21576D01*
X82853Y21843D01*
D02*
G37*
G36*
X81500D02*
X81147D01*
X79461Y21576D01*
X77838Y21048D01*
X76317Y20273D01*
X74937Y19270D01*
X73730Y18063D01*
X72727Y16683D01*
X71952Y15162D01*
X71425Y13539D01*
X71157Y11853D01*
Y11500D01*
X81500D01*
Y21843D01*
D02*
G37*
G36*
X132886Y11002D02*
X132138D01*
X131447Y10715D01*
X130918Y10187D01*
X130632Y9496D01*
Y8748D01*
X130918Y8057D01*
X131447Y7529D01*
X132138Y7243D01*
X132886D01*
X133577Y7529D01*
X134105Y8057D01*
X134391Y8748D01*
Y9496D01*
X134105Y10187D01*
X133577Y10715D01*
X132886Y11002D01*
D02*
G37*
G36*
X132709Y6486D02*
X131043D01*
Y3992D01*
X135637D01*
X135601Y4267D01*
X135302Y4989D01*
X134826Y5609D01*
X134206Y6085D01*
X133484Y6384D01*
X132709Y6486D01*
D02*
G37*
G36*
X148575D02*
X147500D01*
Y3992D01*
X151503D01*
X151467Y4267D01*
X151168Y4989D01*
X150692Y5609D01*
X150072Y6085D01*
X149350Y6384D01*
X148575Y6486D01*
D02*
G37*
G36*
X146500D02*
X145425D01*
X144650Y6384D01*
X143928Y6085D01*
X143308Y5609D01*
X142832Y4989D01*
X142533Y4267D01*
X142497Y3992D01*
X146500D01*
Y6486D01*
D02*
G37*
G36*
X130043D02*
X128378D01*
X127603Y6384D01*
X126881Y6085D01*
X126261Y5609D01*
X125785Y4989D01*
X125486Y4267D01*
X125450Y3992D01*
X130043D01*
Y6486D01*
D02*
G37*
%LPD*%
G36*
X125100Y112722D02*
X125131Y112645D01*
Y108500D01*
X123932D01*
X123213Y109219D01*
X117240D01*
Y113000D01*
X125100D01*
Y112722D01*
D02*
G37*
G36*
X127347Y113254D02*
Y112300D01*
X127269D01*
Y108450D01*
X125814D01*
X125781Y108500D01*
Y112645D01*
X125749Y112722D01*
Y113000D01*
X125593Y113378D01*
X125763Y113778D01*
X126822D01*
X127347Y113254D01*
D02*
G37*
G36*
X116747Y113378D02*
X116591Y113000D01*
Y109219D01*
X116640Y109099D01*
Y108619D01*
X117121D01*
X117240Y108570D01*
X122699D01*
X123050Y108450D01*
Y100849D01*
X112953D01*
X112494Y100659D01*
X112345Y100300D01*
X110739D01*
Y100984D01*
X110656Y101401D01*
X110777Y101562D01*
X110955Y101710D01*
X111222Y101600D01*
X111778D01*
X112293Y101813D01*
X112687Y102207D01*
X112900Y102722D01*
Y103279D01*
X112687Y103793D01*
X112606Y103874D01*
Y104922D01*
X113006Y105189D01*
X113222Y105100D01*
X113778D01*
X114293Y105313D01*
X114687Y105707D01*
X114900Y106221D01*
Y106779D01*
X114687Y107293D01*
X114574Y107406D01*
Y110600D01*
X114553Y110708D01*
Y112700D01*
X111309D01*
X111156Y113070D01*
X111865Y113778D01*
X116577D01*
X116747Y113378D01*
D02*
G37*
G36*
X125131Y97100D02*
X123932D01*
X123545Y97487D01*
X114739D01*
X113953Y96700D01*
X112953D01*
Y100200D01*
X123831D01*
X123932Y100300D01*
X125131D01*
Y97100D01*
D02*
G37*
G36*
X123331Y96782D02*
Y96500D01*
X123812D01*
X123932Y96451D01*
X124738D01*
X125100Y96279D01*
Y95741D01*
X125055Y95673D01*
X124321D01*
X124209Y95696D01*
X122778D01*
X122427Y95626D01*
X122129Y95427D01*
X121327Y94625D01*
X120927Y94791D01*
Y95000D01*
X120900Y95138D01*
Y95279D01*
X120846Y95408D01*
X120819Y95546D01*
X120741Y95663D01*
X120687Y95793D01*
X120588Y95892D01*
X120509Y96009D01*
X120392Y96087D01*
X120293Y96187D01*
X120163Y96241D01*
X120046Y96319D01*
X119908Y96346D01*
X119779Y96400D01*
X119638D01*
X119500Y96427D01*
X119362Y96400D01*
X119221D01*
X119092Y96346D01*
X118954Y96319D01*
X118837Y96241D01*
X118707Y96187D01*
X118608Y96087D01*
X118491Y96009D01*
X118412Y95892D01*
X118313Y95793D01*
X118259Y95663D01*
X118181Y95546D01*
X118154Y95408D01*
X118100Y95279D01*
Y95138D01*
X118073Y95000D01*
Y94486D01*
X117621D01*
Y91514D01*
X117621D01*
Y91440D01*
X117220Y91139D01*
X113620D01*
Y91139D01*
X113440D01*
X113380Y91539D01*
Y94486D01*
X112402D01*
Y96100D01*
X112833D01*
X112953Y96051D01*
X113953D01*
X114072Y96100D01*
X114553D01*
Y96382D01*
X115008Y96837D01*
X123276D01*
X123331Y96782D01*
D02*
G37*
G36*
X127473Y94087D02*
Y93883D01*
X128679D01*
X128791Y93860D01*
X128815Y93865D01*
X132121D01*
Y93668D01*
X132776D01*
Y92832D01*
X132121D01*
Y89861D01*
X132121D01*
Y89486D01*
X132121D01*
Y89020D01*
X128922D01*
X127011Y90931D01*
Y94289D01*
X127073Y94323D01*
X127473Y94087D01*
D02*
G37*
G36*
X61405Y38000D02*
X65280D01*
Y33614D01*
X61555D01*
X61260Y33319D01*
X58740D01*
Y38748D01*
X58256Y39232D01*
Y45138D01*
X61405D01*
Y38000D01*
D02*
G37*
G36*
X44083Y36004D02*
X43760Y35681D01*
Y33319D01*
X37240D01*
Y38594D01*
X36602Y39232D01*
Y45138D01*
X44083D01*
Y36004D01*
D02*
G37*
G36*
X52744Y37256D02*
X50457Y34969D01*
Y31032D01*
X46913D01*
Y34969D01*
X49595Y37650D01*
Y45138D01*
X52744D01*
Y37256D01*
D02*
G37*
G36*
X123500Y23464D02*
X111721D01*
Y27764D01*
X115264Y27764D01*
X115681Y28181D01*
X123500D01*
Y23464D01*
D02*
G37*
G36*
X107000Y34500D02*
Y22864D01*
X109973D01*
Y19000D01*
X104500D01*
X101551Y21949D01*
X101551Y31949D01*
X101000Y32500D01*
X95000D01*
Y38697D01*
X95008Y38717D01*
X102784D01*
X107000Y34500D01*
D02*
G37*
D12*
X55500Y100847D02*
Y105500D01*
X111400Y114900D02*
X127287D01*
X128469Y113718D01*
X109516Y113016D02*
X111400Y114900D01*
X128469Y110100D02*
Y113718D01*
X113453Y98200D02*
Y98668D01*
X115500Y89653D02*
X119500D01*
X111500D02*
X115500D01*
X51169Y100847D02*
X51500Y100516D01*
Y96500D02*
Y100516D01*
X59500D02*
X59831Y100847D01*
X59500Y96500D02*
Y100516D01*
X109516Y110600D02*
Y113016D01*
X103500Y42000D02*
X103771D01*
X104271Y42500D01*
X113000Y45847D02*
Y51500D01*
X92500Y40000D02*
Y45563D01*
Y40000D02*
X94283Y38217D01*
X95559D01*
X96240Y37535D01*
X111350Y28964D02*
Y29564D01*
Y28964D02*
X112221Y28094D01*
Y26614D02*
Y28094D01*
Y26614D02*
X113221Y25614D01*
X111484Y103016D02*
X111500Y103000D01*
X111484Y103016D02*
Y110600D01*
X107547Y98200D02*
Y100299D01*
X106961Y100885D02*
X107547Y100299D01*
X106115Y100885D02*
X106961D01*
X106000Y101000D02*
X106115Y100885D01*
X113453Y106547D02*
Y110600D01*
D13*
X111484Y93016D02*
X111500Y93000D01*
X111484Y93016D02*
Y98200D01*
X119500Y89653D02*
X121653D01*
X122500Y90500D02*
Y92600D01*
X121653Y89653D02*
X122500Y90500D01*
Y92600D02*
X123295Y93395D01*
X119575Y93075D02*
X121075D01*
X122778Y94778D01*
X124209D01*
X119500Y93000D02*
X119575Y93075D01*
X123295Y93395D02*
X124204D01*
X124209Y93400D01*
X83846Y62854D02*
X83992Y63000D01*
X88000D01*
X84016Y93000D02*
X92000D01*
X83846Y93169D02*
X84016Y93000D01*
X88508Y84508D02*
X92000Y88000D01*
X83846Y84508D02*
X88508D01*
X128791Y94778D02*
X128796Y94783D01*
X133629D01*
X134000Y95153D01*
X12000Y36000D02*
X19000D01*
X5500Y42500D02*
X12000Y36000D01*
X5500Y42500D02*
Y45531D01*
X89000Y78000D02*
X92000D01*
X83846Y80177D02*
X89177D01*
X92000Y83000D01*
X5500Y75846D02*
X5655Y76001D01*
X9001D02*
X11500Y78500D01*
Y109500D01*
X5655Y76001D02*
X9001D01*
X5000Y116000D02*
X11500Y109500D01*
X9177Y80177D02*
X10000Y81000D01*
X5000Y110500D02*
X10000Y105500D01*
Y81000D02*
Y105500D01*
X5500Y80177D02*
X9177D01*
X19000Y36000D02*
X21032Y33968D01*
X10000Y34000D02*
X18063D01*
X18963Y33100D01*
Y32100D02*
Y33100D01*
X21032Y32000D02*
Y33968D01*
X18963Y32100D02*
X19063Y32000D01*
X1500Y42500D02*
X10000Y34000D01*
X20626Y19498D02*
X21032Y19904D01*
X83846Y49862D02*
X84209Y49500D01*
X25547Y17348D02*
Y19498D01*
X1500Y42500D02*
Y49500D01*
X1862Y49862D01*
X5500D01*
X15705Y19498D02*
X16000Y19794D01*
D15*
X42673Y6900D02*
D03*
X3500D02*
D03*
D16*
X35390Y19498D02*
D03*
X30468D02*
D03*
X25547D02*
D03*
X20626D02*
D03*
X15705D02*
D03*
X10784D02*
D03*
D17*
X92000Y88000D02*
D03*
X5000Y110500D02*
D03*
Y116000D02*
D03*
X92000Y78000D02*
D03*
Y93000D02*
D03*
Y83000D02*
D03*
X113000Y59000D02*
D03*
Y64500D02*
D03*
X50000Y46500D02*
D03*
X52000D02*
D03*
X53500Y117400D02*
D03*
X57600D02*
D03*
X103500Y35500D02*
D03*
X105000Y34000D02*
D03*
X67110Y96132D02*
D03*
X50000Y116500D02*
D03*
Y123500D02*
D03*
X122500Y14000D02*
D03*
X120000D02*
D03*
X56134Y122963D02*
D03*
X65535Y106254D02*
D03*
X62344Y121559D02*
D03*
X65087Y119912D02*
D03*
X70591Y112183D02*
D03*
X60000Y116500D02*
D03*
X59311Y122579D02*
D03*
X69252Y115089D02*
D03*
X53373Y122948D02*
D03*
X63954Y112388D02*
D03*
X69730Y96204D02*
D03*
X67397Y117697D02*
D03*
X61897Y114840D02*
D03*
X71385Y105300D02*
D03*
X65186Y109435D02*
D03*
X103500Y42000D02*
D03*
X103000Y33000D02*
D03*
X64000Y37000D02*
D03*
X62000D02*
D03*
X60000D02*
D03*
X42500D02*
D03*
X40500D02*
D03*
X38500D02*
D03*
X101500Y34500D02*
D03*
X98500D02*
D03*
X96000D02*
D03*
X117000Y24500D02*
D03*
X119500D02*
D03*
X122000D02*
D03*
Y26500D02*
D03*
D18*
X3661Y31559D02*
D03*
Y29000D02*
D03*
Y26441D02*
D03*
X11339D02*
D03*
Y29000D02*
D03*
Y31559D02*
D03*
D19*
X37992Y120000D02*
D03*
X50000D02*
D03*
D20*
X43996Y114193D02*
D03*
Y125807D02*
D03*
D21*
X102732Y27500D02*
D03*
X99268D02*
D03*
D22*
X99327Y23500D02*
D03*
X102673D02*
D03*
X130673Y14000D02*
D03*
X127327D02*
D03*
X127500Y25500D02*
D03*
X130847D02*
D03*
D23*
X55500Y116000D02*
D03*
Y120000D02*
D03*
D24*
X113000Y61800D02*
D03*
Y51500D02*
D03*
D25*
X124531Y98700D02*
D03*
X126500D02*
D03*
X128469D02*
D03*
Y110100D02*
D03*
X126500D02*
D03*
X124531D02*
D03*
D26*
X126500Y104400D02*
D03*
D27*
X96346Y70091D02*
D03*
Y56508D02*
D03*
D28*
X99693Y69500D02*
D03*
Y57098D02*
D03*
X93000Y69500D02*
D03*
Y57098D02*
D03*
D29*
X124209Y92022D02*
D03*
Y93400D02*
D03*
Y94778D02*
D03*
X128791D02*
D03*
Y93400D02*
D03*
Y92022D02*
D03*
D30*
X108791Y21664D02*
D03*
X111350D02*
D03*
X113909D02*
D03*
Y29564D02*
D03*
X111350D02*
D03*
X108791D02*
D03*
D31*
X109480Y25614D02*
D03*
X113221D02*
D03*
D32*
X95500Y23500D02*
D03*
Y27500D02*
D03*
D33*
X119000Y30465D02*
D03*
Y27000D02*
D03*
X118500Y110400D02*
D03*
Y106935D02*
D03*
Y98668D02*
D03*
Y102132D02*
D03*
X138500Y88000D02*
D03*
Y91465D02*
D03*
X105500Y57000D02*
D03*
Y60465D02*
D03*
X100240Y41000D02*
D03*
Y37535D02*
D03*
X96240Y41000D02*
D03*
Y37535D02*
D03*
X60000Y34500D02*
D03*
Y31035D02*
D03*
X38500Y34500D02*
D03*
Y31035D02*
D03*
X42500Y34500D02*
D03*
Y31035D02*
D03*
D34*
X113453Y110600D02*
D03*
X111484D02*
D03*
X109516D02*
D03*
X107547D02*
D03*
Y98200D02*
D03*
X109516D02*
D03*
X111484D02*
D03*
X113453D02*
D03*
D35*
X115500Y89653D02*
D03*
Y93000D02*
D03*
X111500Y89653D02*
D03*
Y93000D02*
D03*
X119500Y89653D02*
D03*
Y93000D02*
D03*
X134000Y98500D02*
D03*
Y95153D02*
D03*
Y88000D02*
D03*
Y91347D02*
D03*
Y105847D02*
D03*
Y102500D02*
D03*
X113000Y42500D02*
D03*
Y45847D02*
D03*
X105500Y66154D02*
D03*
Y69500D02*
D03*
X64000Y31154D02*
D03*
Y34500D02*
D03*
D36*
X122803Y52495D02*
D03*
D37*
X123000Y58400D02*
D03*
D38*
X104330Y45563D02*
D03*
Y47532D02*
D03*
Y49500D02*
D03*
Y51468D02*
D03*
X92500D02*
D03*
Y49500D02*
D03*
Y47532D02*
D03*
Y45563D02*
D03*
D39*
X98415Y48516D02*
D03*
D40*
X26937Y32000D02*
D03*
X24969D02*
D03*
X21032D02*
D03*
X19063D02*
D03*
Y28500D02*
D03*
X21032D02*
D03*
X24969D02*
D03*
X26937D02*
D03*
D41*
X23000Y32000D02*
D03*
Y28500D02*
D03*
D42*
X48685Y33000D02*
D03*
X54000D02*
D03*
D43*
X71981Y108217D02*
D03*
X68359D02*
D03*
D64*
X132512Y31878D02*
D03*
Y9122D02*
D03*
D68*
X64492Y116508D02*
G03*
X56054Y120000I-8442J-8457D01*
G01*
X68327Y108973D02*
G03*
X64495Y116505I-13485J-2119D01*
G01*
X68492Y106857D02*
G03*
X68327Y108973I-13650J-4D01*
G01*
X68492Y100847D02*
Y106849D01*
X50000Y120000D02*
X56043D01*
D69*
X72823Y100847D02*
D03*
X68492D02*
D03*
X64161D02*
D03*
X59831D02*
D03*
X55500D02*
D03*
X51169D02*
D03*
X46839D02*
D03*
X42508D02*
D03*
X38177D02*
D03*
X33847D02*
D03*
X29516D02*
D03*
X25185D02*
D03*
X20854D02*
D03*
X16524D02*
D03*
Y42185D02*
D03*
X20854D02*
D03*
X25185D02*
D03*
X29516D02*
D03*
X33847D02*
D03*
X38177D02*
D03*
X42508D02*
D03*
X46839D02*
D03*
X51169D02*
D03*
X55500D02*
D03*
X59831D02*
D03*
X64161D02*
D03*
X68492D02*
D03*
X72823D02*
D03*
D70*
X5500Y97500D02*
D03*
Y93169D02*
D03*
Y88839D02*
D03*
Y84508D02*
D03*
Y80177D02*
D03*
Y75846D02*
D03*
Y71516D02*
D03*
Y67185D02*
D03*
Y62854D02*
D03*
Y58524D02*
D03*
Y54193D02*
D03*
Y49862D02*
D03*
Y45531D02*
D03*
X83846D02*
D03*
Y49862D02*
D03*
Y54193D02*
D03*
Y58524D02*
D03*
Y62854D02*
D03*
Y67185D02*
D03*
Y71516D02*
D03*
Y75846D02*
D03*
Y80177D02*
D03*
Y84508D02*
D03*
Y88839D02*
D03*
Y93169D02*
D03*
Y97500D02*
D03*
D71*
X73610Y92185D02*
D03*
Y83917D02*
D03*
Y75650D02*
D03*
Y67382D02*
D03*
Y59114D02*
D03*
Y50846D02*
D03*
X65342Y92185D02*
D03*
Y83917D02*
D03*
Y75650D02*
D03*
Y67382D02*
D03*
Y59114D02*
D03*
Y50846D02*
D03*
X57075Y92185D02*
D03*
Y83917D02*
D03*
Y75650D02*
D03*
Y67382D02*
D03*
Y59114D02*
D03*
Y50846D02*
D03*
X48807Y92185D02*
D03*
Y83917D02*
D03*
Y75650D02*
D03*
Y67382D02*
D03*
Y59114D02*
D03*
Y50846D02*
D03*
X40539Y92185D02*
D03*
Y83917D02*
D03*
Y75650D02*
D03*
Y67382D02*
D03*
Y59114D02*
D03*
Y50846D02*
D03*
X32272Y92185D02*
D03*
Y83917D02*
D03*
Y75650D02*
D03*
Y67382D02*
D03*
Y59114D02*
D03*
Y50846D02*
D03*
X24004Y92185D02*
D03*
Y83917D02*
D03*
Y75650D02*
D03*
Y67382D02*
D03*
Y59114D02*
D03*
Y50846D02*
D03*
X15736Y92185D02*
D03*
Y83917D02*
D03*
Y75650D02*
D03*
Y67382D02*
D03*
Y59114D02*
D03*
Y50846D02*
D03*
D72*
X7500Y29000D02*
D03*
D73*
X113000Y59000D02*
Y64500D01*
X119500Y93000D02*
Y95000D01*
X113000Y42500D02*
X116500D01*
X104271D02*
X113000D01*
X46839Y100847D02*
X47000Y100685D01*
Y96500D02*
Y100685D01*
X105451Y57049D02*
X105500Y57000D01*
X116500Y42500D02*
X122803Y48803D01*
Y52495D01*
D74*
X51744Y42760D02*
Y46244D01*
X52000Y46500D01*
X50000D02*
X52000D01*
X50000D02*
X50595Y45906D01*
Y42760D02*
Y45906D01*
X51169Y42185D02*
X51744Y42760D01*
X50595D02*
X51169Y42185D01*
D75*
X30468Y17348D02*
X32669Y15148D01*
X62148D01*
X30468Y17348D02*
Y21648D01*
X125991Y90509D02*
X128500Y88000D01*
X125991Y90509D02*
Y95275D01*
X128500Y88000D02*
X134000D01*
X67500Y43177D02*
X68492Y42185D01*
X67500Y43177D02*
Y46000D01*
X64161Y42185D02*
X65000Y43024D01*
Y47000D01*
X83846Y58524D02*
X83870Y58500D01*
X88000D01*
X125991Y95275D02*
X126500Y95784D01*
Y98700D01*
X90000Y49500D02*
X92500D01*
X83846Y54193D02*
X85021Y53018D01*
X88181D01*
X89731Y51468D01*
X92500D01*
X21032Y28500D02*
Y32000D01*
Y19904D02*
Y28500D01*
X83846Y36847D02*
Y45531D01*
X62148Y15148D02*
X83846Y36847D01*
X63000Y13500D02*
X89000Y39500D01*
X29396Y13500D02*
X63000D01*
X25547Y17348D02*
X29396Y13500D01*
X89000Y39500D02*
Y47649D01*
X87148Y49500D02*
X89000Y47649D01*
X84209Y49500D02*
X87148D01*
X26937Y25180D02*
X30468Y21648D01*
X26937Y25180D02*
Y28500D01*
X24969Y20077D02*
X25547Y19498D01*
X24969Y20077D02*
Y28500D01*
X26937D02*
Y32000D01*
X24969Y28500D02*
Y32000D01*
X19063Y28500D02*
Y32334D01*
X125000Y25500D02*
X127500D01*
X125000Y14000D02*
X127327D01*
X19063Y26563D02*
Y28500D01*
X16000Y23500D02*
X19063Y26563D01*
X16000Y19794D02*
Y23500D01*
D76*
X68024Y109228D02*
X68052Y109256D01*
X64492Y116508D02*
X64495Y116505D01*
X68492Y106857D02*
X68492Y106849D01*
D77*
X115500Y93000D02*
Y95000D01*
X138500Y91465D02*
X138924Y91888D01*
Y93923D02*
X139000Y94000D01*
X138924Y91888D02*
Y93923D01*
X134000Y105847D02*
Y108000D01*
X126500Y110100D02*
Y113000D01*
X109500Y95500D02*
X109508Y95508D01*
Y98192D02*
X109516Y98200D01*
X109508Y95508D02*
Y98192D01*
X95500Y23500D02*
X99327D01*
X118500Y98668D02*
X118756Y98923D01*
X71964Y108213D02*
X102287D01*
X109516Y100984D01*
X83846Y75846D02*
X89153D01*
X93000Y72000D01*
Y69500D02*
Y72000D01*
Y57098D02*
Y69500D01*
X99693D02*
X105500D01*
X99693Y57098D02*
Y69500D01*
X99742Y57049D02*
X105451D01*
X109516Y98200D02*
Y100984D01*
X124531Y110100D02*
Y110250D01*
Y98684D02*
Y98700D01*
X128469Y98500D02*
Y98700D01*
Y98500D02*
X134000D01*
Y102500D01*
Y91347D02*
Y95153D01*
Y88000D02*
X138500D01*
D78*
X130543Y3492D02*
D03*
Y37508D02*
D03*
D79*
X147000Y3492D02*
D03*
Y37508D02*
D03*
D80*
X82000Y11000D02*
D03*
Y123000D02*
D03*
D81*
X114000Y32500D02*
D03*
X40000Y17000D02*
D03*
X1800Y30300D02*
D03*
Y27800D02*
D03*
X3500Y33500D02*
D03*
X55500Y105500D02*
D03*
X115500Y95000D02*
D03*
X119500D02*
D03*
X139000Y94000D02*
D03*
X130500Y93000D02*
D03*
X134000Y108000D02*
D03*
X126500Y113000D02*
D03*
X121500Y110000D02*
D03*
X121100Y99400D02*
D03*
X109500Y95500D02*
D03*
X107500Y113500D02*
D03*
X152000Y123900D02*
D03*
X148000Y115900D02*
D03*
X152000Y107900D02*
D03*
X148000Y99900D02*
D03*
X152000Y91900D02*
D03*
X148000Y83900D02*
D03*
X152000Y75900D02*
D03*
X148000Y67900D02*
D03*
X152000Y59900D02*
D03*
X148000Y51900D02*
D03*
X152000Y43900D02*
D03*
Y27900D02*
D03*
X148000Y19900D02*
D03*
X152000Y11900D02*
D03*
X144000Y123900D02*
D03*
X140000Y115900D02*
D03*
X144000Y107900D02*
D03*
X140000Y99900D02*
D03*
X144000Y91900D02*
D03*
X140000Y83900D02*
D03*
X144000Y75900D02*
D03*
X140000Y67900D02*
D03*
X144000Y59900D02*
D03*
X140000Y51900D02*
D03*
X144000Y43900D02*
D03*
X140000Y35900D02*
D03*
X144000Y27900D02*
D03*
X140000Y19900D02*
D03*
X144000Y11900D02*
D03*
X140000Y3900D02*
D03*
X136000Y123900D02*
D03*
X132000Y115900D02*
D03*
X136000Y75900D02*
D03*
X132000Y67900D02*
D03*
X136000Y59900D02*
D03*
X132000Y51900D02*
D03*
X136000Y43900D02*
D03*
Y27900D02*
D03*
Y11900D02*
D03*
X128000Y123900D02*
D03*
X124000Y83900D02*
D03*
Y67900D02*
D03*
X128000Y43900D02*
D03*
X120000Y123900D02*
D03*
X116000Y83900D02*
D03*
Y35900D02*
D03*
Y3900D02*
D03*
X112000Y123900D02*
D03*
X108000Y115900D02*
D03*
Y83900D02*
D03*
X112000Y75900D02*
D03*
Y11900D02*
D03*
X108000Y3900D02*
D03*
X104000Y123900D02*
D03*
X100000Y115900D02*
D03*
X104000Y91900D02*
D03*
X100000Y83900D02*
D03*
X104000Y75900D02*
D03*
X100000Y19900D02*
D03*
X104000Y11900D02*
D03*
X100000Y3900D02*
D03*
X96000Y123900D02*
D03*
X92000Y115900D02*
D03*
Y99900D02*
D03*
X96000Y75900D02*
D03*
X92000Y19900D02*
D03*
X96000Y11900D02*
D03*
X92000Y3900D02*
D03*
X76000Y99900D02*
D03*
X68000Y3900D02*
D03*
X64000Y123900D02*
D03*
Y11900D02*
D03*
X60000Y3900D02*
D03*
X56000Y107900D02*
D03*
X52000Y3900D02*
D03*
X48000Y107900D02*
D03*
Y27900D02*
D03*
X36000Y115900D02*
D03*
X40000Y107900D02*
D03*
X36000Y3900D02*
D03*
X32000Y123900D02*
D03*
X28000Y115900D02*
D03*
X32000Y107900D02*
D03*
X28000Y35900D02*
D03*
X32000Y27900D02*
D03*
X28000Y3900D02*
D03*
X24000Y123900D02*
D03*
X20000Y115900D02*
D03*
X24000Y107900D02*
D03*
Y11900D02*
D03*
X20000Y3900D02*
D03*
X16000Y123900D02*
D03*
X12000Y115900D02*
D03*
X16000Y107900D02*
D03*
Y27900D02*
D03*
Y11900D02*
D03*
X12000Y3900D02*
D03*
X8000Y123900D02*
D03*
X4000Y35900D02*
D03*
Y19900D02*
D03*
X8000Y11900D02*
D03*
X62000Y28000D02*
D03*
X59500D02*
D03*
X55500D02*
D03*
X43500D02*
D03*
X38500D02*
D03*
X111500Y32500D02*
D03*
X109000Y34500D02*
D03*
Y32500D02*
D03*
X126500Y96000D02*
D03*
X129000Y90500D02*
D03*
X122800Y99400D02*
D03*
X121500Y112000D02*
D03*
X115500Y104500D02*
D03*
X106000Y101000D02*
D03*
X111500Y103000D02*
D03*
X115500Y102500D02*
D03*
X113500Y106500D02*
D03*
X118500Y33000D02*
D03*
X120500D02*
D03*
X100000Y30500D02*
D03*
X98000D02*
D03*
X67500Y46000D02*
D03*
X65000Y47000D02*
D03*
X88000Y58500D02*
D03*
Y63000D02*
D03*
X59500Y96500D02*
D03*
X51500D02*
D03*
X47000D02*
D03*
X7000Y24500D02*
D03*
Y33500D02*
D03*
X13500Y25000D02*
D03*
Y27000D02*
D03*
Y29000D02*
D03*
Y31000D02*
D03*
X107000Y51000D02*
D03*
Y48500D02*
D03*
Y46000D02*
D03*
X23000Y26000D02*
D03*
Y34500D02*
D03*
X40500Y129500D02*
D03*
X44000D02*
D03*
X47500D02*
D03*
X123000Y61000D02*
D03*
X119500D02*
D03*
X126500D02*
D03*
X96000Y59000D02*
D03*
X96500Y68000D02*
D03*
X103500Y63500D02*
D03*
X105500D02*
D03*
X107500D02*
D03*
X113500Y15500D02*
D03*
X64500Y28000D02*
D03*
X53000D02*
D03*
X41000D02*
D03*
X38000Y17000D02*
D03*
Y24500D02*
D03*
X35500D02*
D03*
X33000D02*
D03*
X124500Y8000D02*
D03*
Y6000D02*
D03*
Y35000D02*
D03*
Y33000D02*
D03*
X122500D02*
D03*
X100000Y43500D02*
D03*
X96000D02*
D03*
X77500Y50500D02*
D03*
Y59000D02*
D03*
Y67000D02*
D03*
X45000Y50500D02*
D03*
X53000D02*
D03*
X61500D02*
D03*
X69500D02*
D03*
X12000D02*
D03*
X20000D02*
D03*
X28500D02*
D03*
X36500D02*
D03*
X45000Y59000D02*
D03*
X53000D02*
D03*
X61500D02*
D03*
X69500D02*
D03*
X12000D02*
D03*
X20000D02*
D03*
X28500D02*
D03*
X36500D02*
D03*
X44500Y67000D02*
D03*
X52500D02*
D03*
X61000D02*
D03*
X69000D02*
D03*
X12000D02*
D03*
X20000D02*
D03*
X28500D02*
D03*
X36500D02*
D03*
X53000Y75500D02*
D03*
X61000D02*
D03*
X69500D02*
D03*
X77500D02*
D03*
X20000D02*
D03*
X28000D02*
D03*
X36500D02*
D03*
X44500D02*
D03*
X53000Y84000D02*
D03*
X61000D02*
D03*
X69500D02*
D03*
X77500D02*
D03*
X20000D02*
D03*
X28000D02*
D03*
X36500D02*
D03*
X44500D02*
D03*
Y92000D02*
D03*
X36500D02*
D03*
X28000D02*
D03*
X20000D02*
D03*
X89000Y78000D02*
D03*
X90000Y49500D02*
D03*
X125000Y25500D02*
D03*
Y14000D02*
D03*
M02*
