G04*
G04 #@! TF.GenerationSoftware,Altium Limited,Altium Designer,25.1.2 (22)*
G04*
G04 Layer_Physical_Order=3*
G04 Layer_Color=16440176*
%FSLAX25Y25*%
%MOIN*%
G70*
G04*
G04 #@! TF.SameCoordinates,FC2E8108-2B61-49F6-95E9-6E453CE652F1*
G04*
G04*
G04 #@! TF.FilePolarity,Positive*
G04*
G01*
G75*
%ADD12C,0.01000*%
%ADD13C,0.00600*%
%ADD17C,0.02000*%
%ADD64C,0.02559*%
%ADD73C,0.01600*%
%ADD74C,0.02000*%
%ADD75C,0.00800*%
%ADD77C,0.01200*%
%ADD78O,0.08268X0.03937*%
%ADD79O,0.07087X0.03937*%
%ADD80C,0.19685*%
%ADD81C,0.01600*%
G36*
X156461Y1046D02*
X150860D01*
X150746Y1445D01*
X151168Y1995D01*
X151467Y2717D01*
X151503Y2992D01*
X147000D01*
X142497D01*
X142533Y2717D01*
X142832Y1995D01*
X143254Y1445D01*
X143140Y1046D01*
X134994D01*
X134880Y1445D01*
X135302Y1995D01*
X135601Y2717D01*
X135637Y2992D01*
X130543D01*
X125450D01*
X125486Y2717D01*
X125785Y1995D01*
X126207Y1445D01*
X126092Y1046D01*
X87203D01*
X87109Y1434D01*
X87683Y1727D01*
X89063Y2730D01*
X90270Y3937D01*
X91273Y5317D01*
X92048Y6838D01*
X92576Y8461D01*
X92843Y10147D01*
Y10500D01*
X71157D01*
Y10147D01*
X71425Y8461D01*
X71952Y6838D01*
X72727Y5317D01*
X73730Y3937D01*
X74937Y2730D01*
X76317Y1727D01*
X76891Y1434D01*
X76797Y1046D01*
X1020D01*
Y132839D01*
X76570D01*
X76664Y132450D01*
X76317Y132273D01*
X74937Y131270D01*
X73730Y130063D01*
X72727Y128683D01*
X71952Y127162D01*
X71425Y125539D01*
X71157Y123853D01*
Y123500D01*
X92843D01*
Y123853D01*
X92576Y125539D01*
X92048Y127162D01*
X91273Y128683D01*
X90270Y130063D01*
X89063Y131270D01*
X87683Y132273D01*
X87336Y132450D01*
X87430Y132839D01*
X156461D01*
Y1046D01*
D02*
G37*
%LPC*%
G36*
X92843Y122500D02*
X82500D01*
Y112157D01*
X82853D01*
X84539Y112425D01*
X86162Y112952D01*
X87683Y113727D01*
X89063Y114730D01*
X90270Y115937D01*
X91273Y117317D01*
X92048Y118838D01*
X92576Y120461D01*
X92843Y122147D01*
Y122500D01*
D02*
G37*
G36*
X81500D02*
X71157D01*
Y122147D01*
X71425Y120461D01*
X71952Y118838D01*
X72727Y117317D01*
X73730Y115937D01*
X74937Y114730D01*
X76317Y113727D01*
X77838Y112952D01*
X79461Y112425D01*
X81147Y112157D01*
X81500D01*
Y122500D01*
D02*
G37*
G36*
X48000Y123762D02*
X40000D01*
Y116288D01*
X48000D01*
Y117500D01*
X52500D01*
Y118217D01*
X52783Y118500D01*
X56358Y118500D01*
X57338Y118452D01*
X59261Y118069D01*
X61072Y117319D01*
X62702Y116230D01*
X63429Y115571D01*
X63429Y115571D01*
X63429Y115571D01*
X63943Y115057D01*
X64597Y114336D01*
X65680Y112720D01*
X66430Y110925D01*
X66818Y109019D01*
X66871Y108047D01*
X66871D01*
X66871Y108047D01*
X66889Y105135D01*
X66900Y104652D01*
X66620Y104366D01*
X66416D01*
Y97405D01*
X70576D01*
Y104292D01*
X69947D01*
X69947Y107390D01*
X69947Y108062D01*
X69815Y109398D01*
X69554Y110716D01*
X69164Y112001D01*
X68650Y113242D01*
X68016Y114427D01*
X67270Y115544D01*
X66418Y116582D01*
X65943Y117057D01*
X65943Y117057D01*
Y117057D01*
X65650Y117350D01*
X65082Y117898D01*
X63855Y118895D01*
X62548Y119783D01*
X61169Y120556D01*
X60450Y120882D01*
X59725Y121045D01*
X58259Y121282D01*
X56781Y121429D01*
X55296Y121483D01*
X54554Y121465D01*
X54554Y121465D01*
X54554Y121465D01*
X52530Y121465D01*
Y122500D01*
X48000D01*
Y123762D01*
D02*
G37*
G36*
X122500Y113649D02*
X117000D01*
X116541Y113459D01*
X116351Y113000D01*
Y98500D01*
X116166Y98224D01*
X111000D01*
X110532Y98130D01*
X110135Y97865D01*
X109133Y96863D01*
X108707Y96687D01*
X108313Y96293D01*
X108100Y95779D01*
Y95222D01*
X108313Y94707D01*
X108707Y94313D01*
X109221Y94100D01*
X109778D01*
X110293Y94313D01*
X110687Y94707D01*
X110863Y95133D01*
X111507Y95776D01*
X117854D01*
X117928Y95725D01*
X118105Y95476D01*
X118141Y95376D01*
X118100Y95279D01*
Y95138D01*
X118095Y95114D01*
X112909Y89927D01*
X100536D01*
X100383Y90297D01*
X111686Y101600D01*
X111778D01*
X112293Y101813D01*
X112687Y102207D01*
X112900Y102722D01*
Y103279D01*
X112687Y103793D01*
X112481Y103999D01*
X112612Y104433D01*
X112767Y104464D01*
X113131Y104707D01*
X113524Y105100D01*
X113778D01*
X114293Y105313D01*
X114687Y105707D01*
X114900Y106221D01*
Y106779D01*
X114687Y107293D01*
X114293Y107687D01*
X113778Y107900D01*
X113222D01*
X112707Y107687D01*
X112313Y107293D01*
X112150Y106898D01*
X111873Y106622D01*
X106500D01*
X106500Y106622D01*
X106071Y106536D01*
X105707Y106293D01*
X105707Y106293D01*
X94535Y95122D01*
X65965D01*
X56622Y104465D01*
Y104642D01*
X56687Y104707D01*
X56900Y105221D01*
Y105779D01*
X56687Y106293D01*
X56293Y106687D01*
X55778Y106900D01*
X55221D01*
X54707Y106687D01*
X54313Y106293D01*
X54100Y105779D01*
Y105221D01*
X54313Y104707D01*
X54378Y104642D01*
Y104000D01*
X54378Y104000D01*
X54464Y103571D01*
X54707Y103207D01*
X59614Y98300D01*
X59448Y97900D01*
X59222D01*
X58707Y97687D01*
X58313Y97293D01*
X58100Y96779D01*
Y96222D01*
X58313Y95707D01*
X58707Y95313D01*
X59222Y95100D01*
X59314D01*
X62392Y92022D01*
X62227Y91622D01*
X57965D01*
X52900Y96686D01*
Y96779D01*
X52687Y97293D01*
X52293Y97687D01*
X51779Y97900D01*
X51222D01*
X50707Y97687D01*
X50313Y97293D01*
X50100Y96779D01*
Y96222D01*
X50268Y95817D01*
X49929Y95590D01*
X48009Y97509D01*
X47892Y97588D01*
X47793Y97687D01*
X47663Y97741D01*
X47546Y97819D01*
X47408Y97846D01*
X47278Y97900D01*
X47138D01*
X47000Y97927D01*
X46862Y97900D01*
X46722D01*
X46592Y97846D01*
X46454Y97819D01*
X46337Y97741D01*
X46207Y97687D01*
X46108Y97588D01*
X45991Y97509D01*
X45913Y97392D01*
X45813Y97293D01*
X45759Y97163D01*
X45681Y97046D01*
X45654Y96908D01*
X45600Y96779D01*
Y96638D01*
X45573Y96500D01*
X45600Y96362D01*
Y96222D01*
X45654Y96092D01*
X45681Y95954D01*
X45759Y95837D01*
X45813Y95707D01*
X45913Y95608D01*
X45991Y95491D01*
X53991Y87491D01*
X53991Y87491D01*
X54454Y87181D01*
X55000Y87073D01*
X55000Y87073D01*
X113500D01*
X113500Y87073D01*
X114046Y87181D01*
X114509Y87491D01*
X120509Y93491D01*
X120509Y93491D01*
X120819Y93954D01*
X120927Y94500D01*
X120927Y94500D01*
Y95000D01*
X120900Y95138D01*
Y95279D01*
X120859Y95376D01*
X120895Y95476D01*
X121072Y95725D01*
X121146Y95776D01*
X124885D01*
X125213Y95448D01*
X125313Y95207D01*
X125707Y94813D01*
X126222Y94600D01*
X126778D01*
X127293Y94813D01*
X127687Y95207D01*
X127900Y95722D01*
Y96279D01*
X127687Y96793D01*
X127293Y97187D01*
X126778Y97400D01*
X126778Y97457D01*
X127154Y97851D01*
X131351D01*
Y89769D01*
X110041Y68459D01*
X109851Y68000D01*
Y46769D01*
X105470Y42388D01*
X105022Y42506D01*
X104856Y42906D01*
X104406Y43356D01*
X103818Y43600D01*
X103182D01*
X102594Y43356D01*
X102144Y42906D01*
X101971Y42490D01*
X100409Y40927D01*
X62091D01*
X55509Y47509D01*
X55046Y47819D01*
X54500Y47927D01*
X54500Y47927D01*
X52744D01*
X52624Y48007D01*
X52467Y48039D01*
X52318Y48100D01*
X52158D01*
X52000Y48131D01*
X50000D01*
X49842Y48100D01*
X49682D01*
X49533Y48039D01*
X49376Y48007D01*
X49242Y47918D01*
X49094Y47856D01*
X48980Y47743D01*
X48847Y47653D01*
X48757Y47520D01*
X48644Y47406D01*
X48582Y47258D01*
X48493Y47124D01*
X48461Y46967D01*
X48400Y46818D01*
Y46658D01*
X48369Y46500D01*
X48400Y46342D01*
Y46182D01*
X48461Y46033D01*
X48493Y45876D01*
X48582Y45742D01*
X48644Y45594D01*
X48757Y45480D01*
X48847Y45347D01*
X48980Y45257D01*
X49094Y45144D01*
X49242Y45082D01*
X49376Y44993D01*
X49533Y44962D01*
X49682Y44900D01*
X49842D01*
X50000Y44869D01*
X52000D01*
X52158Y44900D01*
X52318D01*
X52467Y44962D01*
X52624Y44993D01*
X52744Y45073D01*
X53909D01*
X59962Y39019D01*
X59809Y38649D01*
X37000D01*
X36541Y38459D01*
X36351Y38000D01*
Y32500D01*
X36541Y32041D01*
X37000Y31851D01*
X101231D01*
X102791Y30291D01*
X103250Y30101D01*
X103709Y30291D01*
X117459Y44041D01*
X117649Y44500D01*
Y65731D01*
X137959Y86041D01*
X138149Y86500D01*
X138149Y104500D01*
X137959Y104959D01*
X137500Y105149D01*
X123149D01*
Y113000D01*
X122959Y113459D01*
X122500Y113649D01*
D02*
G37*
G36*
X89279Y79400D02*
X88722D01*
X88207Y79187D01*
X87813Y78793D01*
X87600Y78278D01*
Y77722D01*
X87628Y77655D01*
X87351Y77378D01*
X87152Y77081D01*
X87082Y76729D01*
Y64062D01*
X86813Y63793D01*
X86600Y63279D01*
Y62722D01*
X86813Y62207D01*
X87207Y61813D01*
X87722Y61600D01*
X88279D01*
X88793Y61813D01*
X89187Y62207D01*
X89400Y62722D01*
Y63279D01*
X89187Y63793D01*
X88918Y64062D01*
Y76349D01*
X89168Y76600D01*
X89279D01*
X89793Y76813D01*
X90187Y77207D01*
X90400Y77722D01*
Y78278D01*
X90187Y78793D01*
X89793Y79187D01*
X89279Y79400D01*
D02*
G37*
G36*
X88279Y59900D02*
X87722D01*
X87207Y59687D01*
X86813Y59293D01*
X86600Y58779D01*
Y58222D01*
X86813Y57707D01*
X87207Y57313D01*
X87722Y57100D01*
X87958D01*
X88980Y56078D01*
Y50460D01*
X88813Y50293D01*
X88600Y49779D01*
Y49222D01*
X88813Y48707D01*
X89207Y48313D01*
X89722Y48100D01*
X90279D01*
X90793Y48313D01*
X91187Y48707D01*
X91400Y49222D01*
Y49779D01*
X91187Y50293D01*
X91020Y50460D01*
Y56500D01*
X90942Y56890D01*
X90721Y57221D01*
X89400Y58542D01*
Y58779D01*
X89187Y59293D01*
X88793Y59687D01*
X88279Y59900D01*
D02*
G37*
G36*
X65279Y48400D02*
X64722D01*
X64207Y48187D01*
X63813Y47793D01*
X63600Y47278D01*
Y46722D01*
X63813Y46207D01*
X64207Y45813D01*
X64722Y45600D01*
X65279D01*
X65700Y45775D01*
X65904Y45748D01*
X66149Y45603D01*
X66313Y45207D01*
X66707Y44813D01*
X67221Y44600D01*
X67778D01*
X68293Y44813D01*
X68687Y45207D01*
X68900Y45722D01*
Y46279D01*
X68687Y46793D01*
X68293Y47187D01*
X67778Y47400D01*
X67221D01*
X66800Y47225D01*
X66596Y47253D01*
X66351Y47397D01*
X66187Y47793D01*
X65793Y48187D01*
X65279Y48400D01*
D02*
G37*
G36*
X132709Y40502D02*
X131043D01*
Y38008D01*
X135637D01*
X135601Y38283D01*
X135302Y39005D01*
X134826Y39625D01*
X134206Y40101D01*
X133484Y40400D01*
X132709Y40502D01*
D02*
G37*
G36*
X148575D02*
X147500D01*
Y38008D01*
X151503D01*
X151467Y38283D01*
X151168Y39005D01*
X150692Y39625D01*
X150072Y40101D01*
X149350Y40400D01*
X148575Y40502D01*
D02*
G37*
G36*
X146500D02*
X145425D01*
X144650Y40400D01*
X143928Y40101D01*
X143308Y39625D01*
X142832Y39005D01*
X142533Y38283D01*
X142497Y38008D01*
X146500D01*
Y40502D01*
D02*
G37*
G36*
X130043D02*
X128378D01*
X127603Y40400D01*
X126881Y40101D01*
X126261Y39625D01*
X125785Y39005D01*
X125486Y38283D01*
X125450Y38008D01*
X130043D01*
Y40502D01*
D02*
G37*
G36*
X151503Y37008D02*
X147500D01*
Y34514D01*
X148575D01*
X149350Y34616D01*
X150072Y34915D01*
X150692Y35391D01*
X151168Y36011D01*
X151467Y36733D01*
X151503Y37008D01*
D02*
G37*
G36*
X146500D02*
X142497D01*
X142533Y36733D01*
X142832Y36011D01*
X143308Y35391D01*
X143928Y34915D01*
X144650Y34616D01*
X145425Y34514D01*
X146500D01*
Y37008D01*
D02*
G37*
G36*
X135637D02*
X131043D01*
Y34514D01*
X132709D01*
X133484Y34616D01*
X134206Y34915D01*
X134826Y35391D01*
X135302Y36011D01*
X135601Y36733D01*
X135637Y37008D01*
D02*
G37*
G36*
X130043D02*
X125450D01*
X125486Y36733D01*
X125785Y36011D01*
X126261Y35391D01*
X126881Y34915D01*
X127603Y34616D01*
X128378Y34514D01*
X130043D01*
Y37008D01*
D02*
G37*
G36*
X132886Y33757D02*
X132138D01*
X131447Y33471D01*
X130918Y32943D01*
X130632Y32252D01*
Y31504D01*
X130918Y30813D01*
X131447Y30285D01*
X132138Y29998D01*
X132886D01*
X133577Y30285D01*
X134105Y30813D01*
X134391Y31504D01*
Y32252D01*
X134105Y32943D01*
X133577Y33471D01*
X132886Y33757D01*
D02*
G37*
G36*
X14500Y32649D02*
X10000D01*
X9541Y32459D01*
X9351Y32000D01*
Y18500D01*
X9541Y18041D01*
X10000Y17851D01*
X70500D01*
X70959Y18041D01*
X74269Y21351D01*
X77550D01*
X77646Y20951D01*
X76317Y20273D01*
X74937Y19270D01*
X73730Y18063D01*
X72727Y16683D01*
X71952Y15162D01*
X71425Y13539D01*
X71157Y11853D01*
Y11500D01*
X92843D01*
Y11853D01*
X92576Y13539D01*
X92048Y15162D01*
X91273Y16683D01*
X90270Y18063D01*
X89063Y19270D01*
X87683Y20273D01*
X86354Y20951D01*
X86450Y21351D01*
X116851D01*
Y13000D01*
X117041Y12541D01*
X117500Y12351D01*
X123500D01*
X123959Y12541D01*
X124060Y12784D01*
X124207Y12813D01*
X124722Y12600D01*
X125278D01*
X125793Y12813D01*
X126187Y13207D01*
X126400Y13722D01*
Y14278D01*
X126187Y14793D01*
X125793Y15187D01*
X125278Y15400D01*
X124722D01*
X124549Y15329D01*
X124149Y15596D01*
Y23904D01*
X124549Y24171D01*
X124722Y24100D01*
X125278D01*
X125793Y24313D01*
X126187Y24707D01*
X126400Y25221D01*
Y25778D01*
X126187Y26293D01*
X125793Y26687D01*
X125278Y26900D01*
X124722D01*
X124549Y26829D01*
X124149Y27096D01*
Y28500D01*
X123959Y28959D01*
X123500Y29149D01*
X117500D01*
X117041Y28959D01*
X116851Y28500D01*
Y27149D01*
X71500D01*
X71041Y26959D01*
X67731Y23649D01*
X15149D01*
Y32000D01*
X14959Y32459D01*
X14500Y32649D01*
D02*
G37*
G36*
X132886Y11002D02*
X132138D01*
X131447Y10715D01*
X130918Y10187D01*
X130632Y9496D01*
Y8748D01*
X130918Y8057D01*
X131447Y7529D01*
X132138Y7243D01*
X132886D01*
X133577Y7529D01*
X134105Y8057D01*
X134391Y8748D01*
Y9496D01*
X134105Y10187D01*
X133577Y10715D01*
X132886Y11002D01*
D02*
G37*
G36*
X132709Y6486D02*
X131043D01*
Y3992D01*
X135637D01*
X135601Y4267D01*
X135302Y4989D01*
X134826Y5609D01*
X134206Y6085D01*
X133484Y6384D01*
X132709Y6486D01*
D02*
G37*
G36*
X148575D02*
X147500D01*
Y3992D01*
X151503D01*
X151467Y4267D01*
X151168Y4989D01*
X150692Y5609D01*
X150072Y6085D01*
X149350Y6384D01*
X148575Y6486D01*
D02*
G37*
G36*
X146500D02*
X145425D01*
X144650Y6384D01*
X143928Y6085D01*
X143308Y5609D01*
X142832Y4989D01*
X142533Y4267D01*
X142497Y3992D01*
X146500D01*
Y6486D01*
D02*
G37*
G36*
X130043D02*
X128378D01*
X127603Y6384D01*
X126881Y6085D01*
X126261Y5609D01*
X125785Y4989D01*
X125486Y4267D01*
X125450Y3992D01*
X130043D01*
Y6486D01*
D02*
G37*
%LPD*%
G36*
X122500Y104500D02*
X137500D01*
X137500Y86500D01*
X117000Y66000D01*
Y44500D01*
X103250Y30750D01*
X101500Y32500D01*
X37000D01*
Y38000D01*
X102000D01*
X110500Y46500D01*
Y68000D01*
X132000Y89500D01*
Y98500D01*
X117000D01*
Y113000D01*
X122500D01*
Y104500D01*
D02*
G37*
G36*
X14500Y23000D02*
X68000D01*
X71500Y26500D01*
X117500D01*
Y28500D01*
X123500D01*
Y13000D01*
X117500D01*
Y22000D01*
X74000D01*
X70500Y18500D01*
X10000D01*
Y32000D01*
X14500D01*
Y23000D01*
D02*
G37*
D12*
X55500Y104000D02*
X65500Y94000D01*
X55500Y104000D02*
Y105500D01*
X59500Y96500D02*
X63500Y92500D01*
X65500Y94000D02*
X95000D01*
X57500Y90500D02*
X99000D01*
X51500Y96500D02*
X57500Y90500D01*
X95000Y94000D02*
X106500Y105500D01*
X97500Y92500D02*
X106000Y101000D01*
X63500Y92500D02*
X97500D01*
X99000Y90500D02*
X111500Y103000D01*
X106500Y105500D02*
X112338D01*
X113338Y106500D01*
X113500D01*
D13*
X88000Y76729D02*
X89000Y77729D01*
X88000Y63000D02*
Y76729D01*
X89000Y77729D02*
Y78000D01*
D17*
X113000Y59000D02*
D03*
Y64500D02*
D03*
X50000Y46500D02*
D03*
X52000D02*
D03*
X53500Y117400D02*
D03*
X57600D02*
D03*
X103500Y35500D02*
D03*
X105000Y34000D02*
D03*
X67110Y96132D02*
D03*
X50000Y116500D02*
D03*
Y123500D02*
D03*
X122500Y14000D02*
D03*
X120000D02*
D03*
X56134Y122963D02*
D03*
X65535Y106254D02*
D03*
X62344Y121559D02*
D03*
X65087Y119912D02*
D03*
X70591Y112183D02*
D03*
X60000Y116500D02*
D03*
X59311Y122579D02*
D03*
X69252Y115089D02*
D03*
X53373Y122948D02*
D03*
X63954Y112388D02*
D03*
X69730Y96204D02*
D03*
X67397Y117697D02*
D03*
X61897Y114840D02*
D03*
X71385Y105300D02*
D03*
X65186Y109435D02*
D03*
X103500Y42000D02*
D03*
X103000Y33000D02*
D03*
X64000Y37000D02*
D03*
X62000D02*
D03*
X60000D02*
D03*
X42500D02*
D03*
X40500D02*
D03*
X38500D02*
D03*
X101500Y34500D02*
D03*
X98500D02*
D03*
X96000D02*
D03*
X117000Y24500D02*
D03*
X119500D02*
D03*
X122000D02*
D03*
Y26500D02*
D03*
D64*
X132512Y31878D02*
D03*
Y9122D02*
D03*
D73*
X61500Y39500D02*
X101000D01*
X52000Y46500D02*
X54500D01*
X61500Y39500D01*
X113500Y88500D02*
X119500Y94500D01*
Y95000D01*
X55000Y88500D02*
X113500D01*
X101000Y39500D02*
X103500Y42000D01*
X47000Y96500D02*
X55000Y88500D01*
D74*
X50000Y46500D02*
X52000D01*
D75*
X88000Y58500D02*
X90000Y56500D01*
Y49500D02*
Y56500D01*
D77*
X125392Y97000D02*
X126392Y96000D01*
X111000Y97000D02*
X125392D01*
X109500Y95500D02*
X111000Y97000D01*
X126392Y96000D02*
X126500D01*
D78*
X130543Y3492D02*
D03*
Y37508D02*
D03*
D79*
X147000Y3492D02*
D03*
Y37508D02*
D03*
D80*
X82000Y11000D02*
D03*
Y123000D02*
D03*
D81*
X114000Y32500D02*
D03*
X40000Y17000D02*
D03*
X1800Y30300D02*
D03*
Y27800D02*
D03*
X3500Y33500D02*
D03*
X55500Y105500D02*
D03*
X115500Y95000D02*
D03*
X119500D02*
D03*
X139000Y94000D02*
D03*
X130500Y93000D02*
D03*
X134000Y108000D02*
D03*
X126500Y113000D02*
D03*
X121500Y110000D02*
D03*
X121100Y99400D02*
D03*
X109500Y95500D02*
D03*
X107500Y113500D02*
D03*
X152000Y123900D02*
D03*
X148000Y115900D02*
D03*
X152000Y107900D02*
D03*
X148000Y99900D02*
D03*
X152000Y91900D02*
D03*
X148000Y83900D02*
D03*
X152000Y75900D02*
D03*
X148000Y67900D02*
D03*
X152000Y59900D02*
D03*
X148000Y51900D02*
D03*
X152000Y43900D02*
D03*
Y27900D02*
D03*
X148000Y19900D02*
D03*
X152000Y11900D02*
D03*
X144000Y123900D02*
D03*
X140000Y115900D02*
D03*
X144000Y107900D02*
D03*
X140000Y99900D02*
D03*
X144000Y91900D02*
D03*
X140000Y83900D02*
D03*
X144000Y75900D02*
D03*
X140000Y67900D02*
D03*
X144000Y59900D02*
D03*
X140000Y51900D02*
D03*
X144000Y43900D02*
D03*
X140000Y35900D02*
D03*
X144000Y27900D02*
D03*
X140000Y19900D02*
D03*
X144000Y11900D02*
D03*
X140000Y3900D02*
D03*
X136000Y123900D02*
D03*
X132000Y115900D02*
D03*
X136000Y75900D02*
D03*
X132000Y67900D02*
D03*
X136000Y59900D02*
D03*
X132000Y51900D02*
D03*
X136000Y43900D02*
D03*
Y27900D02*
D03*
Y11900D02*
D03*
X128000Y123900D02*
D03*
X124000Y83900D02*
D03*
Y67900D02*
D03*
X128000Y43900D02*
D03*
X120000Y123900D02*
D03*
X116000Y83900D02*
D03*
Y35900D02*
D03*
Y3900D02*
D03*
X112000Y123900D02*
D03*
X108000Y115900D02*
D03*
Y83900D02*
D03*
X112000Y75900D02*
D03*
Y11900D02*
D03*
X108000Y3900D02*
D03*
X104000Y123900D02*
D03*
X100000Y115900D02*
D03*
X104000Y91900D02*
D03*
X100000Y83900D02*
D03*
X104000Y75900D02*
D03*
X100000Y19900D02*
D03*
X104000Y11900D02*
D03*
X100000Y3900D02*
D03*
X96000Y123900D02*
D03*
X92000Y115900D02*
D03*
Y99900D02*
D03*
X96000Y75900D02*
D03*
X92000Y19900D02*
D03*
X96000Y11900D02*
D03*
X92000Y3900D02*
D03*
X76000Y99900D02*
D03*
X68000Y3900D02*
D03*
X64000Y123900D02*
D03*
Y11900D02*
D03*
X60000Y3900D02*
D03*
X56000Y107900D02*
D03*
X52000Y3900D02*
D03*
X48000Y107900D02*
D03*
Y27900D02*
D03*
X36000Y115900D02*
D03*
X40000Y107900D02*
D03*
X36000Y3900D02*
D03*
X32000Y123900D02*
D03*
X28000Y115900D02*
D03*
X32000Y107900D02*
D03*
X28000Y35900D02*
D03*
X32000Y27900D02*
D03*
X28000Y3900D02*
D03*
X24000Y123900D02*
D03*
X20000Y115900D02*
D03*
X24000Y107900D02*
D03*
Y11900D02*
D03*
X20000Y3900D02*
D03*
X16000Y123900D02*
D03*
X12000Y115900D02*
D03*
X16000Y107900D02*
D03*
Y27900D02*
D03*
Y11900D02*
D03*
X12000Y3900D02*
D03*
X8000Y123900D02*
D03*
X4000Y35900D02*
D03*
Y19900D02*
D03*
X8000Y11900D02*
D03*
X62000Y28000D02*
D03*
X59500D02*
D03*
X55500D02*
D03*
X43500D02*
D03*
X38500D02*
D03*
X111500Y32500D02*
D03*
X109000Y34500D02*
D03*
Y32500D02*
D03*
X126500Y96000D02*
D03*
X129000Y90500D02*
D03*
X122800Y99400D02*
D03*
X121500Y112000D02*
D03*
X115500Y104500D02*
D03*
X106000Y101000D02*
D03*
X111500Y103000D02*
D03*
X115500Y102500D02*
D03*
X113500Y106500D02*
D03*
X118500Y33000D02*
D03*
X120500D02*
D03*
X100000Y30500D02*
D03*
X98000D02*
D03*
X67500Y46000D02*
D03*
X65000Y47000D02*
D03*
X88000Y58500D02*
D03*
Y63000D02*
D03*
X59500Y96500D02*
D03*
X51500D02*
D03*
X47000D02*
D03*
X7000Y24500D02*
D03*
Y33500D02*
D03*
X13500Y25000D02*
D03*
Y27000D02*
D03*
Y29000D02*
D03*
Y31000D02*
D03*
X107000Y51000D02*
D03*
Y48500D02*
D03*
Y46000D02*
D03*
X23000Y26000D02*
D03*
Y34500D02*
D03*
X40500Y129500D02*
D03*
X44000D02*
D03*
X47500D02*
D03*
X123000Y61000D02*
D03*
X119500D02*
D03*
X126500D02*
D03*
X96000Y59000D02*
D03*
X96500Y68000D02*
D03*
X103500Y63500D02*
D03*
X105500D02*
D03*
X107500D02*
D03*
X113500Y15500D02*
D03*
X64500Y28000D02*
D03*
X53000D02*
D03*
X41000D02*
D03*
X38000Y17000D02*
D03*
Y24500D02*
D03*
X35500D02*
D03*
X33000D02*
D03*
X124500Y8000D02*
D03*
Y6000D02*
D03*
Y35000D02*
D03*
Y33000D02*
D03*
X122500D02*
D03*
X100000Y43500D02*
D03*
X96000D02*
D03*
X77500Y50500D02*
D03*
Y59000D02*
D03*
Y67000D02*
D03*
X45000Y50500D02*
D03*
X53000D02*
D03*
X61500D02*
D03*
X69500D02*
D03*
X12000D02*
D03*
X20000D02*
D03*
X28500D02*
D03*
X36500D02*
D03*
X45000Y59000D02*
D03*
X53000D02*
D03*
X61500D02*
D03*
X69500D02*
D03*
X12000D02*
D03*
X20000D02*
D03*
X28500D02*
D03*
X36500D02*
D03*
X44500Y67000D02*
D03*
X52500D02*
D03*
X61000D02*
D03*
X69000D02*
D03*
X12000D02*
D03*
X20000D02*
D03*
X28500D02*
D03*
X36500D02*
D03*
X53000Y75500D02*
D03*
X61000D02*
D03*
X69500D02*
D03*
X77500D02*
D03*
X20000D02*
D03*
X28000D02*
D03*
X36500D02*
D03*
X44500D02*
D03*
X53000Y84000D02*
D03*
X61000D02*
D03*
X69500D02*
D03*
X77500D02*
D03*
X20000D02*
D03*
X28000D02*
D03*
X36500D02*
D03*
X44500D02*
D03*
Y92000D02*
D03*
X36500D02*
D03*
X28000D02*
D03*
X20000D02*
D03*
X89000Y78000D02*
D03*
X90000Y49500D02*
D03*
X125000Y25500D02*
D03*
Y14000D02*
D03*
M02*
