G04*
G04 #@! TF.GenerationSoftware,Altium Limited,Altium Designer,25.1.2 (22)*
G04*
G04 Layer_Color=8421504*
%FSLAX25Y25*%
%MOIN*%
G70*
G04*
G04 #@! TF.SameCoordinates,D6FEADD7-E070-4FDB-8EC0-6F1EE518F817*
G04*
G04*
G04 #@! TF.FilePolarity,Positive*
G04*
G01*
G75*
%ADD14R,0.03900X0.11200*%
%ADD15R,0.02400X0.06700*%
%ADD16C,0.02000*%
%ADD17R,0.01772X0.01181*%
%ADD18R,0.04134X0.03937*%
%ADD19R,0.08661X0.04134*%
%ADD20R,0.02362X0.02520*%
%ADD21R,0.01772X0.02559*%
%ADD22R,0.02400X0.02000*%
%ADD23R,0.01800X0.03100*%
%ADD24R,0.01200X0.03200*%
%ADD25R,0.05700X0.06900*%
%ADD26R,0.04134X0.04134*%
%ADD27R,0.02756X0.01378*%
%ADD28R,0.02362X0.02559*%
%ADD29R,0.01437X0.00591*%
%ADD30R,0.01200X0.02400*%
%ADD31R,0.03000X0.04300*%
%ADD32R,0.02000X0.02700*%
%ADD33R,0.02520X0.02362*%
%ADD34R,0.01000X0.03000*%
%ADD35R,0.02559X0.01772*%
%ADD36R,0.08661X0.02559*%
%ADD37R,0.09055X0.02559*%
%ADD38R,0.02775X0.00981*%
%ADD39R,0.05512X0.06299*%
%ADD40R,0.00800X0.02800*%
%ADD41R,0.01600X0.02800*%
%ADD42R,0.03543X0.03937*%
%ADD43R,0.02008X0.02480*%
G36*
X74299Y97795D02*
X71346D01*
Y103898D01*
X74299D01*
Y97795D01*
D02*
G37*
G36*
X69968D02*
X67016D01*
Y103898D01*
X69968D01*
Y97795D01*
D02*
G37*
G36*
X65638D02*
X62685D01*
Y103898D01*
X65638D01*
Y97795D01*
D02*
G37*
G36*
X61307D02*
X58354D01*
Y103898D01*
X61307D01*
Y97795D01*
D02*
G37*
G36*
X56976D02*
X54024D01*
Y103898D01*
X56976D01*
Y97795D01*
D02*
G37*
G36*
X52646D02*
X49693D01*
Y103898D01*
X52646D01*
Y97795D01*
D02*
G37*
G36*
X48315D02*
X45362D01*
Y103898D01*
X48315D01*
Y97795D01*
D02*
G37*
G36*
X43984D02*
X41032D01*
Y103898D01*
X43984D01*
Y97795D01*
D02*
G37*
G36*
X39654D02*
X36701D01*
Y103898D01*
X39654D01*
Y97795D01*
D02*
G37*
G36*
X35323D02*
X32370D01*
Y103898D01*
X35323D01*
Y97795D01*
D02*
G37*
G36*
X30992D02*
X28039D01*
Y103898D01*
X30992D01*
Y97795D01*
D02*
G37*
G36*
X26661D02*
X23709D01*
Y103898D01*
X26661D01*
Y97795D01*
D02*
G37*
G36*
X22331D02*
X19378D01*
Y103898D01*
X22331D01*
Y97795D01*
D02*
G37*
G36*
X18000D02*
X15047D01*
Y103898D01*
X18000D01*
Y97795D01*
D02*
G37*
G36*
X86898Y96024D02*
X80795D01*
Y98976D01*
X86898D01*
Y96024D01*
D02*
G37*
G36*
X8551D02*
X2449D01*
Y98976D01*
X8551D01*
Y96024D01*
D02*
G37*
G36*
X86898Y91693D02*
X80795D01*
Y94646D01*
X86898D01*
Y91693D01*
D02*
G37*
G36*
X8551D02*
X2449D01*
Y94646D01*
X8551D01*
Y91693D01*
D02*
G37*
G36*
X86898Y87362D02*
X80795D01*
Y90315D01*
X86898D01*
Y87362D01*
D02*
G37*
G36*
X8551D02*
X2449D01*
Y90315D01*
X8551D01*
Y87362D01*
D02*
G37*
G36*
X86898Y83031D02*
X80795D01*
Y85984D01*
X86898D01*
Y83031D01*
D02*
G37*
G36*
X8551D02*
X2449D01*
Y85984D01*
X8551D01*
Y83031D01*
D02*
G37*
G36*
X86898Y78701D02*
X80795D01*
Y81653D01*
X86898D01*
Y78701D01*
D02*
G37*
G36*
X8551D02*
X2449D01*
Y81653D01*
X8551D01*
Y78701D01*
D02*
G37*
G36*
X86898Y74370D02*
X80795D01*
Y77323D01*
X86898D01*
Y74370D01*
D02*
G37*
G36*
X8551D02*
X2449D01*
Y77323D01*
X8551D01*
Y74370D01*
D02*
G37*
G36*
X86898Y70039D02*
X80795D01*
Y72992D01*
X86898D01*
Y70039D01*
D02*
G37*
G36*
X8551D02*
X2449D01*
Y72992D01*
X8551D01*
Y70039D01*
D02*
G37*
G36*
X86898Y65709D02*
X80795D01*
Y68661D01*
X86898D01*
Y65709D01*
D02*
G37*
G36*
X8551D02*
X2449D01*
Y68661D01*
X8551D01*
Y65709D01*
D02*
G37*
G36*
X86898Y61378D02*
X80795D01*
Y64331D01*
X86898D01*
Y61378D01*
D02*
G37*
G36*
X8551D02*
X2449D01*
Y64331D01*
X8551D01*
Y61378D01*
D02*
G37*
G36*
X86898Y57047D02*
X80795D01*
Y60000D01*
X86898D01*
Y57047D01*
D02*
G37*
G36*
X8551D02*
X2449D01*
Y60000D01*
X8551D01*
Y57047D01*
D02*
G37*
G36*
X86898Y52716D02*
X80795D01*
Y55669D01*
X86898D01*
Y52716D01*
D02*
G37*
G36*
X8551D02*
X2449D01*
Y55669D01*
X8551D01*
Y52716D01*
D02*
G37*
G36*
X86898Y48386D02*
X80795D01*
Y51339D01*
X86898D01*
Y48386D01*
D02*
G37*
G36*
X8551D02*
X2449D01*
Y51339D01*
X8551D01*
Y48386D01*
D02*
G37*
G36*
X86898Y44055D02*
X80795D01*
Y47008D01*
X86898D01*
Y44055D01*
D02*
G37*
G36*
X8551D02*
X2449D01*
Y47008D01*
X8551D01*
Y44055D01*
D02*
G37*
G36*
X74299Y39134D02*
X71346D01*
Y45236D01*
X74299D01*
Y39134D01*
D02*
G37*
G36*
X69968D02*
X67016D01*
Y45236D01*
X69968D01*
Y39134D01*
D02*
G37*
G36*
X65638D02*
X62685D01*
Y45236D01*
X65638D01*
Y39134D01*
D02*
G37*
G36*
X61307D02*
X58354D01*
Y45236D01*
X61307D01*
Y39134D01*
D02*
G37*
G36*
X56976D02*
X54024D01*
Y45236D01*
X56976D01*
Y39134D01*
D02*
G37*
G36*
X52646D02*
X49693D01*
Y45236D01*
X52646D01*
Y39134D01*
D02*
G37*
G36*
X48315D02*
X45362D01*
Y45236D01*
X48315D01*
Y39134D01*
D02*
G37*
G36*
X43984D02*
X41032D01*
Y45236D01*
X43984D01*
Y39134D01*
D02*
G37*
G36*
X39654D02*
X36701D01*
Y45236D01*
X39654D01*
Y39134D01*
D02*
G37*
G36*
X35323D02*
X32370D01*
Y45236D01*
X35323D01*
Y39134D01*
D02*
G37*
G36*
X30992D02*
X28039D01*
Y45236D01*
X30992D01*
Y39134D01*
D02*
G37*
G36*
X26661D02*
X23709D01*
Y45236D01*
X26661D01*
Y39134D01*
D02*
G37*
G36*
X22331D02*
X19378D01*
Y45236D01*
X22331D01*
Y39134D01*
D02*
G37*
G36*
X18000D02*
X15047D01*
Y45236D01*
X18000D01*
Y39134D01*
D02*
G37*
G36*
X8813Y32146D02*
X8849Y32135D01*
X8883Y32117D01*
X8912Y32093D01*
X8936Y32064D01*
X8954Y32030D01*
X8965Y31994D01*
X8969Y31957D01*
Y29587D01*
X8965Y29549D01*
X8954Y29513D01*
X8936Y29479D01*
X8912Y29450D01*
X8883Y29426D01*
X8849Y29408D01*
X8813Y29397D01*
X8776Y29394D01*
X5224D01*
X5187Y29397D01*
X5151Y29408D01*
X5117Y29426D01*
X5088Y29450D01*
X5064Y29479D01*
X5046Y29513D01*
X5035Y29549D01*
X5032Y29587D01*
Y31957D01*
X5035Y31994D01*
X5046Y32030D01*
X5064Y32064D01*
X5088Y32093D01*
X5117Y32117D01*
X5151Y32135D01*
X5187Y32146D01*
X5224Y32150D01*
X8776D01*
X8813Y32146D01*
D02*
G37*
G36*
Y28603D02*
X8849Y28592D01*
X8883Y28574D01*
X8912Y28550D01*
X8936Y28521D01*
X8954Y28487D01*
X8965Y28451D01*
X8969Y28413D01*
Y26043D01*
X8965Y26006D01*
X8954Y25969D01*
X8936Y25936D01*
X8912Y25907D01*
X8883Y25883D01*
X8849Y25865D01*
X8813Y25854D01*
X8776Y25850D01*
X5224D01*
X5187Y25854D01*
X5151Y25865D01*
X5117Y25883D01*
X5088Y25907D01*
X5064Y25936D01*
X5046Y25969D01*
X5035Y26006D01*
X5032Y26043D01*
Y28413D01*
X5035Y28451D01*
X5046Y28487D01*
X5064Y28521D01*
X5088Y28550D01*
X5117Y28574D01*
X5151Y28592D01*
X5187Y28603D01*
X5224Y28606D01*
X8776D01*
X8813Y28603D01*
D02*
G37*
D14*
X42673Y6900D02*
D03*
X3500D02*
D03*
D15*
X35390Y19498D02*
D03*
X30468D02*
D03*
X25547D02*
D03*
X20626D02*
D03*
X15705D02*
D03*
X10784D02*
D03*
D16*
X92000Y88000D02*
D03*
X5000Y110500D02*
D03*
Y116000D02*
D03*
X92000Y78000D02*
D03*
Y93000D02*
D03*
Y83000D02*
D03*
D17*
X3161Y31559D02*
D03*
Y29000D02*
D03*
Y26441D02*
D03*
X10839D02*
D03*
Y29000D02*
D03*
Y31559D02*
D03*
D18*
X37992Y120000D02*
D03*
X50000D02*
D03*
D19*
X43996Y114193D02*
D03*
Y125807D02*
D03*
D20*
X104000Y28000D02*
D03*
X100535D02*
D03*
D21*
X100654Y23500D02*
D03*
X104000D02*
D03*
X130673Y14000D02*
D03*
X127327D02*
D03*
X127500Y25500D02*
D03*
X130847D02*
D03*
D22*
X55500Y116000D02*
D03*
Y120000D02*
D03*
D23*
X113000Y61800D02*
D03*
Y51500D02*
D03*
D24*
X124531Y98700D02*
D03*
X126500D02*
D03*
X128469D02*
D03*
Y110100D02*
D03*
X126500D02*
D03*
X124531D02*
D03*
D25*
X126500Y104400D02*
D03*
D26*
X15736Y50846D02*
D03*
Y59114D02*
D03*
Y67382D02*
D03*
Y75650D02*
D03*
Y83917D02*
D03*
Y92185D02*
D03*
X24004Y50846D02*
D03*
Y59114D02*
D03*
Y67382D02*
D03*
Y75650D02*
D03*
Y83917D02*
D03*
Y92185D02*
D03*
X32272Y50846D02*
D03*
Y59114D02*
D03*
Y67382D02*
D03*
Y75650D02*
D03*
Y83917D02*
D03*
Y92185D02*
D03*
X40539Y50846D02*
D03*
Y59114D02*
D03*
Y67382D02*
D03*
Y75650D02*
D03*
Y83917D02*
D03*
Y92185D02*
D03*
X48807Y50846D02*
D03*
Y59114D02*
D03*
Y67382D02*
D03*
Y75650D02*
D03*
Y83917D02*
D03*
Y92185D02*
D03*
X57075Y50846D02*
D03*
Y59114D02*
D03*
Y67382D02*
D03*
Y75650D02*
D03*
Y83917D02*
D03*
Y92185D02*
D03*
X65342Y50846D02*
D03*
Y59114D02*
D03*
Y67382D02*
D03*
Y75650D02*
D03*
Y83917D02*
D03*
Y92185D02*
D03*
X73610Y50846D02*
D03*
Y59114D02*
D03*
Y67382D02*
D03*
Y75650D02*
D03*
Y83917D02*
D03*
Y92185D02*
D03*
D27*
X96346Y70091D02*
D03*
Y56508D02*
D03*
D28*
X99693Y69500D02*
D03*
Y57098D02*
D03*
X93000Y69500D02*
D03*
Y57098D02*
D03*
D29*
X124209Y92022D02*
D03*
Y93400D02*
D03*
Y94778D02*
D03*
X128791D02*
D03*
Y93400D02*
D03*
Y92022D02*
D03*
D30*
X108791Y21664D02*
D03*
X111350D02*
D03*
X113909D02*
D03*
Y29564D02*
D03*
X111350D02*
D03*
X108791D02*
D03*
D31*
X109480Y25614D02*
D03*
X113221D02*
D03*
D32*
X97000Y23500D02*
D03*
Y27500D02*
D03*
D33*
X119000Y30465D02*
D03*
Y27000D02*
D03*
X118500Y110400D02*
D03*
Y106935D02*
D03*
Y98668D02*
D03*
Y102132D02*
D03*
X138500Y88000D02*
D03*
Y91465D02*
D03*
X105500Y57000D02*
D03*
Y60465D02*
D03*
X100240Y41000D02*
D03*
Y37535D02*
D03*
X96240Y41000D02*
D03*
Y37535D02*
D03*
X60000Y34500D02*
D03*
Y31035D02*
D03*
X38500Y34500D02*
D03*
Y31035D02*
D03*
X42500Y34500D02*
D03*
Y31035D02*
D03*
D34*
X113453Y110600D02*
D03*
X111484D02*
D03*
X109516D02*
D03*
X107547D02*
D03*
Y98200D02*
D03*
X109516D02*
D03*
X111484D02*
D03*
X113453D02*
D03*
D35*
X115500Y90400D02*
D03*
Y93747D02*
D03*
X111500Y90400D02*
D03*
Y93747D02*
D03*
X119500Y90400D02*
D03*
Y93747D02*
D03*
X134000Y98500D02*
D03*
Y95153D02*
D03*
Y88000D02*
D03*
Y91347D02*
D03*
Y105847D02*
D03*
Y102500D02*
D03*
X113000Y42500D02*
D03*
Y45847D02*
D03*
X105500Y66154D02*
D03*
Y69500D02*
D03*
X64000Y31154D02*
D03*
Y34500D02*
D03*
D36*
X122803Y52495D02*
D03*
D37*
X123000Y58400D02*
D03*
D38*
X104330Y45563D02*
D03*
Y47532D02*
D03*
Y49500D02*
D03*
Y51468D02*
D03*
X92500D02*
D03*
Y49500D02*
D03*
Y47532D02*
D03*
Y45563D02*
D03*
D39*
X98415Y48516D02*
D03*
D40*
X26937Y32000D02*
D03*
X24969D02*
D03*
X21032D02*
D03*
X19063D02*
D03*
Y28500D02*
D03*
X21032D02*
D03*
X24969D02*
D03*
X26937D02*
D03*
D41*
X23000Y32000D02*
D03*
Y28500D02*
D03*
D42*
X48685Y33000D02*
D03*
X54000D02*
D03*
D43*
X71981Y108217D02*
D03*
X68359D02*
D03*
M02*
