G04*
G04 #@! TF.GenerationSoftware,Altium Limited,Altium Designer,25.1.2 (22)*
G04*
G04 Layer_Color=16711935*
%FSLAX25Y25*%
%MOIN*%
G70*
G04*
G04 #@! TF.SameCoordinates,D6FEADD7-E070-4FDB-8EC0-6F1EE518F817*
G04*
G04*
G04 #@! TF.FilePolarity,Negative*
G04*
G01*
G75*
%ADD50R,0.02172X0.02959*%
%ADD64C,0.02559*%
%ADD65O,0.09068X0.04737*%
%ADD66O,0.07887X0.04737*%
%ADD67C,0.20485*%
%ADD81R,0.04528X0.01181*%
%ADD82R,0.04528X0.02362*%
%ADD83R,0.02800X0.00900*%
%ADD84R,0.03100X0.00900*%
D50*
X75846Y48000D02*
D03*
X72500D02*
D03*
X75846Y44000D02*
D03*
X72500D02*
D03*
D64*
X132512Y31878D02*
D03*
Y9122D02*
D03*
D65*
X130543Y3492D02*
D03*
Y37508D02*
D03*
D66*
X147000Y3492D02*
D03*
Y37508D02*
D03*
D67*
X82000Y11000D02*
D03*
Y123000D02*
D03*
D81*
X128279Y27390D02*
D03*
Y25421D02*
D03*
Y23453D02*
D03*
Y13610D02*
D03*
Y15579D02*
D03*
Y17547D02*
D03*
Y21484D02*
D03*
Y19516D02*
D03*
D82*
Y11051D02*
D03*
Y29949D02*
D03*
Y7902D02*
D03*
Y33098D02*
D03*
D83*
X120250Y15925D02*
D03*
Y17500D02*
D03*
Y19075D02*
D03*
X116750D02*
D03*
Y17500D02*
D03*
D84*
X116900Y15925D02*
D03*
M02*
