G04*
G04 #@! TF.GenerationSoftware,Altium Limited,Altium Designer,25.1.2 (22)*
G04*
G04 Layer_Physical_Order=2*
G04 Layer_Color=36540*
%FSLAX25Y25*%
%MOIN*%
G70*
G04*
G04 #@! TF.SameCoordinates,D6FEADD7-E070-4FDB-8EC0-6F1EE518F817*
G04*
G04*
G04 #@! TF.FilePolarity,Positive*
G04*
G01*
G75*
%ADD16C,0.02000*%
%ADD64C,0.02559*%
%ADD77O,0.08268X0.03937*%
%ADD78O,0.07087X0.03937*%
%ADD79C,0.19685*%
%ADD80C,0.01600*%
G36*
X156461Y1046D02*
X150860D01*
X150746Y1445D01*
X151168Y1995D01*
X151467Y2717D01*
X151503Y2992D01*
X147000D01*
X142497D01*
X142533Y2717D01*
X142832Y1995D01*
X143254Y1445D01*
X143140Y1046D01*
X134994D01*
X134880Y1445D01*
X135302Y1995D01*
X135601Y2717D01*
X135637Y2992D01*
X130543D01*
X125450D01*
X125486Y2717D01*
X125785Y1995D01*
X126207Y1445D01*
X126092Y1046D01*
X87203D01*
X87109Y1434D01*
X87683Y1727D01*
X89063Y2730D01*
X90270Y3937D01*
X91273Y5317D01*
X92048Y6838D01*
X92576Y8461D01*
X92843Y10147D01*
Y10500D01*
X71157D01*
Y10147D01*
X71425Y8461D01*
X71952Y6838D01*
X72727Y5317D01*
X73730Y3937D01*
X74937Y2730D01*
X76317Y1727D01*
X76891Y1434D01*
X76797Y1046D01*
X1020D01*
Y132839D01*
X76570D01*
X76664Y132450D01*
X76317Y132273D01*
X74937Y131270D01*
X73730Y130063D01*
X72727Y128683D01*
X71952Y127162D01*
X71425Y125539D01*
X71157Y123853D01*
Y123500D01*
X92843D01*
Y123853D01*
X92576Y125539D01*
X92048Y127162D01*
X91273Y128683D01*
X90270Y130063D01*
X89063Y131270D01*
X87683Y132273D01*
X87336Y132450D01*
X87430Y132839D01*
X156461D01*
Y1046D01*
D02*
G37*
%LPC*%
G36*
X92843Y122500D02*
X82500D01*
Y112157D01*
X82853D01*
X84539Y112425D01*
X86162Y112952D01*
X87683Y113727D01*
X89063Y114730D01*
X90270Y115937D01*
X91273Y117317D01*
X92048Y118838D01*
X92576Y120461D01*
X92843Y122147D01*
Y122500D01*
D02*
G37*
G36*
X81500D02*
X71157D01*
Y122147D01*
X71425Y120461D01*
X71952Y118838D01*
X72727Y117317D01*
X73730Y115937D01*
X74937Y114730D01*
X76317Y113727D01*
X77838Y112952D01*
X79461Y112425D01*
X81147Y112157D01*
X81500D01*
Y122500D01*
D02*
G37*
G36*
X121279Y111900D02*
X120721D01*
X120207Y111687D01*
X119961Y111441D01*
X119802Y111297D01*
X119441Y111439D01*
X119293Y111587D01*
X118779Y111800D01*
X118221D01*
X117707Y111587D01*
X117313Y111193D01*
X117100Y110679D01*
Y110122D01*
X117313Y109607D01*
X117707Y109213D01*
X118221Y109000D01*
X118779D01*
X119293Y109213D01*
X119539Y109459D01*
X119698Y109603D01*
X120059Y109461D01*
X120207Y109313D01*
X120721Y109100D01*
X121279D01*
X121793Y109313D01*
X122187Y109707D01*
X122400Y110222D01*
Y110778D01*
X122187Y111293D01*
X121793Y111687D01*
X121279Y111900D01*
D02*
G37*
G36*
X113778Y107900D02*
X113222D01*
X112707Y107687D01*
X112313Y107293D01*
X112100Y106779D01*
Y106221D01*
X112313Y105707D01*
X112707Y105313D01*
X113222Y105100D01*
X113778D01*
X114293Y105313D01*
X114687Y105707D01*
X114900Y106221D01*
Y106779D01*
X114687Y107293D01*
X114293Y107687D01*
X113778Y107900D01*
D02*
G37*
G36*
X111778Y104400D02*
X111222D01*
X110707Y104187D01*
X110313Y103793D01*
X110100Y103279D01*
Y102722D01*
X110313Y102207D01*
X110707Y101813D01*
X111222Y101600D01*
X111778D01*
X112293Y101813D01*
X112687Y102207D01*
X112900Y102722D01*
Y103279D01*
X112687Y103793D01*
X112293Y104187D01*
X111778Y104400D01*
D02*
G37*
G36*
X106279Y102400D02*
X105721D01*
X105207Y102187D01*
X104813Y101793D01*
X104600Y101278D01*
Y100722D01*
X104813Y100207D01*
X105207Y99813D01*
X105721Y99600D01*
X106279D01*
X106793Y99813D01*
X107187Y100207D01*
X107400Y100722D01*
Y101278D01*
X107187Y101793D01*
X106793Y102187D01*
X106279Y102400D01*
D02*
G37*
G36*
X55778D02*
X55221D01*
X54707Y102187D01*
X54313Y101793D01*
X54100Y101278D01*
Y100722D01*
X54313Y100207D01*
X54707Y99813D01*
X55221Y99600D01*
X55778D01*
X56293Y99813D01*
X56687Y100207D01*
X56900Y100722D01*
Y101278D01*
X56687Y101793D01*
X56293Y102187D01*
X55778Y102400D01*
D02*
G37*
G36*
X51279Y101900D02*
X50722D01*
X50207Y101687D01*
X49813Y101293D01*
X49600Y100778D01*
Y100222D01*
X49813Y99707D01*
X50207Y99313D01*
X50722Y99100D01*
X51279D01*
X51793Y99313D01*
X52187Y99707D01*
X52400Y100222D01*
Y100778D01*
X52187Y101293D01*
X51793Y101687D01*
X51279Y101900D01*
D02*
G37*
G36*
X46779Y100900D02*
X46222D01*
X45707Y100687D01*
X45313Y100293D01*
X45100Y99778D01*
Y99221D01*
X45313Y98707D01*
X45707Y98313D01*
X46222Y98100D01*
X46779D01*
X47293Y98313D01*
X47687Y98707D01*
X47900Y99221D01*
Y99778D01*
X47687Y100293D01*
X47293Y100687D01*
X46779Y100900D01*
D02*
G37*
G36*
X122278Y100400D02*
X121721D01*
X121207Y100187D01*
X120813Y99793D01*
X120600Y99278D01*
Y98721D01*
X120813Y98207D01*
X121207Y97813D01*
X121721Y97600D01*
X122278D01*
X122793Y97813D01*
X123187Y98207D01*
X123400Y98721D01*
Y99278D01*
X123187Y99793D01*
X122793Y100187D01*
X122278Y100400D01*
D02*
G37*
G36*
X52530Y122500D02*
X47500D01*
Y117500D01*
X52500D01*
Y118217D01*
X52783Y118500D01*
X56358Y118500D01*
X57338Y118452D01*
X59261Y118069D01*
X61072Y117319D01*
X62702Y116230D01*
X63429Y115571D01*
X63429Y115571D01*
X63429Y115571D01*
X63943Y115057D01*
X64597Y114336D01*
X65680Y112720D01*
X66430Y110925D01*
X66818Y109019D01*
X66871Y108047D01*
X66871D01*
X66871Y108047D01*
X66889Y105135D01*
X66900Y104652D01*
X66620Y104366D01*
X66416D01*
Y97405D01*
X70576D01*
Y104292D01*
X69947D01*
X69947Y107390D01*
X69947Y108062D01*
X69815Y109398D01*
X69554Y110716D01*
X69164Y112001D01*
X68650Y113242D01*
X68016Y114427D01*
X67270Y115544D01*
X66418Y116582D01*
X65943Y117057D01*
X65943Y117057D01*
Y117057D01*
X65650Y117350D01*
X65082Y117898D01*
X63855Y118895D01*
X62548Y119783D01*
X61169Y120556D01*
X60450Y120882D01*
X59725Y121045D01*
X58259Y121282D01*
X56781Y121429D01*
X55296Y121483D01*
X54554Y121465D01*
X54554Y121465D01*
X54554Y121465D01*
X52530Y121465D01*
Y122500D01*
D02*
G37*
G36*
X118787Y100076D02*
X118230D01*
X117715Y99863D01*
X117321Y99469D01*
X117108Y98954D01*
Y98397D01*
X117321Y97883D01*
X117715Y97489D01*
X118230Y97276D01*
X118787D01*
X119301Y97489D01*
X119695Y97883D01*
X119908Y98397D01*
Y98954D01*
X119695Y99469D01*
X119301Y99863D01*
X118787Y100076D01*
D02*
G37*
G36*
X109778Y97900D02*
X109221D01*
X108707Y97687D01*
X108313Y97293D01*
X108100Y96779D01*
Y96222D01*
X108313Y95707D01*
X108707Y95313D01*
X109221Y95100D01*
X109778D01*
X110293Y95313D01*
X110687Y95707D01*
X110900Y96222D01*
Y96779D01*
X110687Y97293D01*
X110293Y97687D01*
X109778Y97900D01*
D02*
G37*
G36*
X126778Y97400D02*
X126222D01*
X125707Y97187D01*
X125313Y96793D01*
X125100Y96279D01*
Y95722D01*
X125313Y95207D01*
X125707Y94813D01*
X126222Y94600D01*
X126778D01*
X127293Y94813D01*
X127687Y95207D01*
X127900Y95722D01*
Y96279D01*
X127687Y96793D01*
X127293Y97187D01*
X126778Y97400D01*
D02*
G37*
G36*
X61278Y96400D02*
X60721D01*
X60207Y96187D01*
X59813Y95793D01*
X59600Y95279D01*
Y94722D01*
X59813Y94207D01*
X60207Y93813D01*
X60721Y93600D01*
X61278D01*
X61793Y93813D01*
X62187Y94207D01*
X62400Y94722D01*
Y95279D01*
X62187Y95793D01*
X61793Y96187D01*
X61278Y96400D01*
D02*
G37*
G36*
X119779Y95147D02*
X119221D01*
X118707Y94933D01*
X118313Y94539D01*
X118100Y94025D01*
Y93468D01*
X118313Y92953D01*
X118707Y92560D01*
X119221Y92347D01*
X119779D01*
X120293Y92560D01*
X120687Y92953D01*
X120900Y93468D01*
Y94025D01*
X120687Y94539D01*
X120293Y94933D01*
X119779Y95147D01*
D02*
G37*
G36*
X89279Y79400D02*
X88722D01*
X88207Y79187D01*
X87813Y78793D01*
X87600Y78278D01*
Y77722D01*
X87813Y77207D01*
X88207Y76813D01*
X88722Y76600D01*
X89279D01*
X89793Y76813D01*
X90187Y77207D01*
X90400Y77722D01*
Y78278D01*
X90187Y78793D01*
X89793Y79187D01*
X89279Y79400D01*
D02*
G37*
G36*
X113318Y65600D02*
X112682D01*
X112094Y65356D01*
X111644Y64906D01*
X111400Y64318D01*
Y63682D01*
X111644Y63094D01*
X112094Y62644D01*
X112682Y62400D01*
X113318D01*
X113906Y62644D01*
X114356Y63094D01*
X114600Y63682D01*
Y64318D01*
X114356Y64906D01*
X113906Y65356D01*
X113318Y65600D01*
D02*
G37*
G36*
X84125Y64254D02*
X83568D01*
X83053Y64041D01*
X82660Y63647D01*
X82446Y63133D01*
Y62576D01*
X82660Y62061D01*
X83053Y61668D01*
X83568Y61454D01*
X84125D01*
X84640Y61668D01*
X85033Y62061D01*
X85246Y62576D01*
Y63133D01*
X85033Y63647D01*
X84640Y64041D01*
X84125Y64254D01*
D02*
G37*
G36*
X113318Y61100D02*
X112682D01*
X112094Y60856D01*
X111644Y60406D01*
X111400Y59818D01*
Y59182D01*
X111644Y58594D01*
X112094Y58144D01*
X112682Y57900D01*
X113318D01*
X113906Y58144D01*
X114356Y58594D01*
X114600Y59182D01*
Y59818D01*
X114356Y60406D01*
X113906Y60856D01*
X113318Y61100D01*
D02*
G37*
G36*
X84125Y59924D02*
X83568D01*
X83053Y59711D01*
X82660Y59317D01*
X82446Y58802D01*
Y58245D01*
X82660Y57731D01*
X83053Y57337D01*
X83568Y57124D01*
X84125D01*
X84640Y57337D01*
X85033Y57731D01*
X85246Y58245D01*
Y58802D01*
X85033Y59317D01*
X84640Y59711D01*
X84125Y59924D01*
D02*
G37*
G36*
X90279Y50900D02*
X89722D01*
X89207Y50687D01*
X88813Y50293D01*
X88600Y49779D01*
Y49222D01*
X88813Y48707D01*
X89207Y48313D01*
X89722Y48100D01*
X90279D01*
X90793Y48313D01*
X91187Y48707D01*
X91400Y49222D01*
Y49779D01*
X91187Y50293D01*
X90793Y50687D01*
X90279Y50900D01*
D02*
G37*
G36*
X68278Y43900D02*
X67721D01*
X67207Y43687D01*
X66813Y43293D01*
X66600Y42779D01*
Y42222D01*
X66813Y41707D01*
X67207Y41313D01*
X67721Y41100D01*
X68278D01*
X68793Y41313D01*
X69187Y41707D01*
X69400Y42222D01*
Y42779D01*
X69187Y43293D01*
X68793Y43687D01*
X68278Y43900D01*
D02*
G37*
G36*
X64779D02*
X64222D01*
X63707Y43687D01*
X63313Y43293D01*
X63100Y42779D01*
Y42222D01*
X63313Y41707D01*
X63707Y41313D01*
X64222Y41100D01*
X64779D01*
X65293Y41313D01*
X65687Y41707D01*
X65900Y42222D01*
Y42779D01*
X65687Y43293D01*
X65293Y43687D01*
X64779Y43900D01*
D02*
G37*
G36*
X103818Y43600D02*
X103182D01*
X102594Y43356D01*
X102144Y42906D01*
X101900Y42318D01*
Y41682D01*
X102144Y41094D01*
X102594Y40644D01*
X103182Y40400D01*
X103818D01*
X104406Y40644D01*
X104856Y41094D01*
X105100Y41682D01*
Y42318D01*
X104856Y42906D01*
X104406Y43356D01*
X103818Y43600D01*
D02*
G37*
G36*
X51318Y42100D02*
X50682D01*
X50094Y41856D01*
X49644Y41406D01*
X49400Y40818D01*
Y40182D01*
X49644Y39594D01*
X50094Y39144D01*
X50682Y38900D01*
X51318D01*
X51906Y39144D01*
X52356Y39594D01*
X52600Y40182D01*
Y40818D01*
X52356Y41406D01*
X51906Y41856D01*
X51318Y42100D01*
D02*
G37*
G36*
X64318Y38600D02*
X63682D01*
X63094Y38356D01*
X63000Y38263D01*
X62906Y38356D01*
X62318Y38600D01*
X61682D01*
X61094Y38356D01*
X61000Y38263D01*
X60906Y38356D01*
X60318Y38600D01*
X59682D01*
X59094Y38356D01*
X58644Y37906D01*
X58400Y37318D01*
Y36682D01*
X58644Y36094D01*
X59094Y35644D01*
X59682Y35400D01*
X60318D01*
X60906Y35644D01*
X61000Y35737D01*
X61094Y35644D01*
X61682Y35400D01*
X62318D01*
X62906Y35644D01*
X63000Y35737D01*
X63094Y35644D01*
X63682Y35400D01*
X64318D01*
X64906Y35644D01*
X65356Y36094D01*
X65600Y36682D01*
Y37318D01*
X65356Y37906D01*
X64906Y38356D01*
X64318Y38600D01*
D02*
G37*
G36*
X42818D02*
X42182D01*
X41594Y38356D01*
X41500Y38263D01*
X41406Y38356D01*
X40818Y38600D01*
X40182D01*
X39594Y38356D01*
X39500Y38263D01*
X39406Y38356D01*
X38818Y38600D01*
X38182D01*
X37594Y38356D01*
X37144Y37906D01*
X36900Y37318D01*
Y36682D01*
X37144Y36094D01*
X37594Y35644D01*
X38182Y35400D01*
X38818D01*
X39406Y35644D01*
X39500Y35737D01*
X39594Y35644D01*
X40182Y35400D01*
X40818D01*
X41406Y35644D01*
X41500Y35737D01*
X41594Y35644D01*
X42182Y35400D01*
X42818D01*
X43406Y35644D01*
X43856Y36094D01*
X44100Y36682D01*
Y37318D01*
X43856Y37906D01*
X43406Y38356D01*
X42818Y38600D01*
D02*
G37*
G36*
X132709Y40502D02*
X131043D01*
Y38008D01*
X135637D01*
X135601Y38283D01*
X135302Y39005D01*
X134826Y39625D01*
X134206Y40101D01*
X133484Y40400D01*
X132709Y40502D01*
D02*
G37*
G36*
X148575D02*
X147500D01*
Y38008D01*
X151503D01*
X151467Y38283D01*
X151168Y39005D01*
X150692Y39625D01*
X150072Y40101D01*
X149350Y40400D01*
X148575Y40502D01*
D02*
G37*
G36*
X146500D02*
X145425D01*
X144650Y40400D01*
X143928Y40101D01*
X143308Y39625D01*
X142832Y39005D01*
X142533Y38283D01*
X142497Y38008D01*
X146500D01*
Y40502D01*
D02*
G37*
G36*
X130043D02*
X128378D01*
X127603Y40400D01*
X126881Y40101D01*
X126261Y39625D01*
X125785Y39005D01*
X125486Y38283D01*
X125450Y38008D01*
X130043D01*
Y40502D01*
D02*
G37*
G36*
X101318Y36600D02*
X100682D01*
X100094Y36356D01*
X99750Y36013D01*
X99406Y36356D01*
X98818Y36600D01*
X98182D01*
X97594Y36356D01*
X97250Y36013D01*
X96906Y36356D01*
X96318Y36600D01*
X95682D01*
X95094Y36356D01*
X94644Y35906D01*
X94400Y35318D01*
Y34682D01*
X94644Y34094D01*
X95094Y33644D01*
X95682Y33400D01*
X96318D01*
X96906Y33644D01*
X97250Y33987D01*
X97594Y33644D01*
X98182Y33400D01*
X98818D01*
X99406Y33644D01*
X99750Y33987D01*
X100094Y33644D01*
X100682Y33400D01*
X100900D01*
Y33182D01*
X101144Y32594D01*
X101594Y32144D01*
X102182Y31900D01*
X102818D01*
X103406Y32144D01*
X103856Y32594D01*
X104100Y33182D01*
Y33818D01*
X103856Y34406D01*
X103406Y34856D01*
X102818Y35100D01*
X102600D01*
Y35318D01*
X102356Y35906D01*
X101906Y36356D01*
X101318Y36600D01*
D02*
G37*
G36*
X151503Y37008D02*
X147500D01*
Y34514D01*
X148575D01*
X149350Y34616D01*
X150072Y34915D01*
X150692Y35391D01*
X151168Y36011D01*
X151467Y36733D01*
X151503Y37008D01*
D02*
G37*
G36*
X146500D02*
X142497D01*
X142533Y36733D01*
X142832Y36011D01*
X143308Y35391D01*
X143928Y34915D01*
X144650Y34616D01*
X145425Y34514D01*
X146500D01*
Y37008D01*
D02*
G37*
G36*
X135637D02*
X131043D01*
Y34514D01*
X132709D01*
X133484Y34616D01*
X134206Y34915D01*
X134826Y35391D01*
X135302Y36011D01*
X135601Y36733D01*
X135637Y37008D01*
D02*
G37*
G36*
X130043D02*
X125450D01*
X125486Y36733D01*
X125785Y36011D01*
X126261Y35391D01*
X126881Y34915D01*
X127603Y34616D01*
X128378Y34514D01*
X130043D01*
Y37008D01*
D02*
G37*
G36*
X132886Y33757D02*
X132138D01*
X131447Y33471D01*
X130918Y32943D01*
X130632Y32252D01*
Y31504D01*
X130918Y30813D01*
X131447Y30285D01*
X132138Y29998D01*
X132886D01*
X133577Y30285D01*
X134105Y30813D01*
X134391Y31504D01*
Y32252D01*
X134105Y32943D01*
X133577Y33471D01*
X132886Y33757D01*
D02*
G37*
G36*
X122318Y28100D02*
X121682D01*
X121094Y27856D01*
X120644Y27406D01*
X120400Y26818D01*
Y26292D01*
X120157Y26065D01*
X120039Y26009D01*
X119818Y26100D01*
X119182D01*
X118594Y25856D01*
X118250Y25513D01*
X117906Y25856D01*
X117318Y26100D01*
X116682D01*
X116094Y25856D01*
X115644Y25406D01*
X115400Y24818D01*
Y24182D01*
X115644Y23594D01*
X116094Y23144D01*
X116682Y22900D01*
X117318D01*
X117906Y23144D01*
X118250Y23487D01*
X118594Y23144D01*
X119182Y22900D01*
X119818D01*
X120406Y23144D01*
X120750Y23487D01*
X121094Y23144D01*
X121682Y22900D01*
X122318D01*
X122906Y23144D01*
X123356Y23594D01*
X123600Y24182D01*
Y24354D01*
X124000Y24520D01*
X124207Y24313D01*
X124722Y24100D01*
X125278D01*
X125793Y24313D01*
X126187Y24707D01*
X126400Y25221D01*
Y25778D01*
X126187Y26293D01*
X125793Y26687D01*
X125278Y26900D01*
X124722D01*
X124207Y26687D01*
X124000Y26480D01*
X123600Y26646D01*
Y26818D01*
X123356Y27406D01*
X122906Y27856D01*
X122318Y28100D01*
D02*
G37*
G36*
X13279Y32400D02*
X12721D01*
X12207Y32187D01*
X11813Y31793D01*
X11600Y31278D01*
Y30722D01*
X11813Y30207D01*
X12020Y30000D01*
X11813Y29793D01*
X11600Y29278D01*
Y28721D01*
X11813Y28207D01*
X12020Y28000D01*
X11813Y27793D01*
X11600Y27279D01*
Y26722D01*
X11813Y26207D01*
X12020Y26000D01*
X11813Y25793D01*
X11600Y25278D01*
Y24722D01*
X11813Y24207D01*
X12207Y23813D01*
X12721Y23600D01*
X13279D01*
X13793Y23813D01*
X14187Y24207D01*
X14400Y24722D01*
Y25278D01*
X14187Y25793D01*
X13980Y26000D01*
X14187Y26207D01*
X14400Y26722D01*
Y27279D01*
X14187Y27793D01*
X13980Y28000D01*
X14187Y28207D01*
X14400Y28721D01*
Y29278D01*
X14187Y29793D01*
X13980Y30000D01*
X14187Y30207D01*
X14400Y30722D01*
Y31278D01*
X14187Y31793D01*
X13793Y32187D01*
X13279Y32400D01*
D02*
G37*
G36*
X122818Y15600D02*
X122182D01*
X121594Y15356D01*
X121250Y15013D01*
X120906Y15356D01*
X120318Y15600D01*
X119682D01*
X119094Y15356D01*
X118644Y14906D01*
X118400Y14318D01*
Y13682D01*
X118644Y13094D01*
X119094Y12644D01*
X119682Y12400D01*
X120318D01*
X120906Y12644D01*
X121250Y12987D01*
X121594Y12644D01*
X122182Y12400D01*
X122818D01*
X123406Y12644D01*
X123856Y13094D01*
X123915Y13105D01*
X124207Y12813D01*
X124722Y12600D01*
X125278D01*
X125793Y12813D01*
X126187Y13207D01*
X126400Y13722D01*
Y14278D01*
X126187Y14793D01*
X125793Y15187D01*
X125278Y15400D01*
X124722D01*
X124207Y15187D01*
X123915Y14895D01*
X123856Y14906D01*
X123406Y15356D01*
X122818Y15600D01*
D02*
G37*
G36*
X82853Y21843D02*
X82500D01*
Y11500D01*
X92843D01*
Y11853D01*
X92576Y13539D01*
X92048Y15162D01*
X91273Y16683D01*
X90270Y18063D01*
X89063Y19270D01*
X87683Y20273D01*
X86162Y21048D01*
X84539Y21576D01*
X82853Y21843D01*
D02*
G37*
G36*
X81500D02*
X81147D01*
X79461Y21576D01*
X77838Y21048D01*
X76317Y20273D01*
X74937Y19270D01*
X73730Y18063D01*
X72727Y16683D01*
X71952Y15162D01*
X71425Y13539D01*
X71157Y11853D01*
Y11500D01*
X81500D01*
Y21843D01*
D02*
G37*
G36*
X132886Y11002D02*
X132138D01*
X131447Y10715D01*
X130918Y10187D01*
X130632Y9496D01*
Y8748D01*
X130918Y8057D01*
X131447Y7529D01*
X132138Y7243D01*
X132886D01*
X133577Y7529D01*
X134105Y8057D01*
X134391Y8748D01*
Y9496D01*
X134105Y10187D01*
X133577Y10715D01*
X132886Y11002D01*
D02*
G37*
G36*
X132709Y6486D02*
X131043D01*
Y3992D01*
X135637D01*
X135601Y4267D01*
X135302Y4989D01*
X134826Y5609D01*
X134206Y6085D01*
X133484Y6384D01*
X132709Y6486D01*
D02*
G37*
G36*
X148575D02*
X147500D01*
Y3992D01*
X151503D01*
X151467Y4267D01*
X151168Y4989D01*
X150692Y5609D01*
X150072Y6085D01*
X149350Y6384D01*
X148575Y6486D01*
D02*
G37*
G36*
X146500D02*
X145425D01*
X144650Y6384D01*
X143928Y6085D01*
X143308Y5609D01*
X142832Y4989D01*
X142533Y4267D01*
X142497Y3992D01*
X146500D01*
Y6486D01*
D02*
G37*
G36*
X130043D02*
X128378D01*
X127603Y6384D01*
X126881Y6085D01*
X126261Y5609D01*
X125785Y4989D01*
X125486Y4267D01*
X125450Y3992D01*
X130043D01*
Y6486D01*
D02*
G37*
%LPD*%
D16*
X122500Y14000D02*
D03*
X120000D02*
D03*
X152000Y123900D02*
D03*
X155000Y117900D02*
D03*
X152000Y111900D02*
D03*
X155000Y105900D02*
D03*
X152000Y99900D02*
D03*
X155000Y93900D02*
D03*
X152000Y87900D02*
D03*
X155000Y81900D02*
D03*
X152000Y75900D02*
D03*
X155000Y69900D02*
D03*
X152000Y63900D02*
D03*
X155000Y57900D02*
D03*
X152000Y51900D02*
D03*
X155000Y45900D02*
D03*
X152000Y39900D02*
D03*
X155000Y33900D02*
D03*
X152000Y27900D02*
D03*
X155000Y21900D02*
D03*
X152000Y15900D02*
D03*
X155000Y9900D02*
D03*
X146000Y123900D02*
D03*
X149000Y117900D02*
D03*
X146000Y111900D02*
D03*
X149000Y105900D02*
D03*
X146000Y99900D02*
D03*
X149000Y93900D02*
D03*
X146000Y87900D02*
D03*
X149000Y81900D02*
D03*
X146000Y75900D02*
D03*
X149000Y69900D02*
D03*
X146000Y63900D02*
D03*
X149000Y57900D02*
D03*
X146000Y51900D02*
D03*
X149000Y45900D02*
D03*
X146000Y27900D02*
D03*
X149000Y21900D02*
D03*
X146000Y15900D02*
D03*
X149000Y9900D02*
D03*
X140000Y123900D02*
D03*
X143000Y117900D02*
D03*
X140000Y111900D02*
D03*
X143000Y105900D02*
D03*
X140000Y99900D02*
D03*
X143000Y93900D02*
D03*
Y81900D02*
D03*
X140000Y75900D02*
D03*
X143000Y69900D02*
D03*
X140000Y63900D02*
D03*
X143000Y57900D02*
D03*
X140000Y51900D02*
D03*
X143000Y45900D02*
D03*
X140000Y39900D02*
D03*
X143000Y33900D02*
D03*
X140000Y27900D02*
D03*
X143000Y21900D02*
D03*
X140000Y15900D02*
D03*
X143000Y9900D02*
D03*
X140000Y3900D02*
D03*
X134000Y123900D02*
D03*
X137000Y117900D02*
D03*
X134000Y111900D02*
D03*
X137000Y105900D02*
D03*
Y81900D02*
D03*
X134000Y75900D02*
D03*
X137000Y69900D02*
D03*
X134000Y63900D02*
D03*
X137000Y57900D02*
D03*
X134000Y51900D02*
D03*
X137000Y45900D02*
D03*
Y33900D02*
D03*
Y21900D02*
D03*
Y9900D02*
D03*
X128000Y123900D02*
D03*
X131000Y117900D02*
D03*
Y105900D02*
D03*
X128000Y75900D02*
D03*
X131000Y69900D02*
D03*
X128000Y63900D02*
D03*
X131000Y57900D02*
D03*
Y45900D02*
D03*
X122000Y123900D02*
D03*
X125000Y117900D02*
D03*
X122000Y87900D02*
D03*
X125000Y69900D02*
D03*
X122000Y63900D02*
D03*
X125000Y45900D02*
D03*
X122000Y39900D02*
D03*
Y3900D02*
D03*
X116000Y123900D02*
D03*
X119000Y117900D02*
D03*
Y81900D02*
D03*
X116000Y75900D02*
D03*
Y39900D02*
D03*
X119000Y33900D02*
D03*
Y9900D02*
D03*
X116000Y3900D02*
D03*
X110000Y123900D02*
D03*
X113000Y117900D02*
D03*
Y81900D02*
D03*
X110000Y75900D02*
D03*
X113000Y33900D02*
D03*
Y9900D02*
D03*
X110000Y3900D02*
D03*
X104000Y123900D02*
D03*
X107000Y117900D02*
D03*
X104000Y111900D02*
D03*
X107000Y93900D02*
D03*
Y81900D02*
D03*
X104000Y75900D02*
D03*
Y15900D02*
D03*
X107000Y9900D02*
D03*
X104000Y3900D02*
D03*
X98000Y123900D02*
D03*
X101000Y117900D02*
D03*
X98000Y111900D02*
D03*
X101000Y105900D02*
D03*
Y81900D02*
D03*
X98000Y75900D02*
D03*
Y15900D02*
D03*
X101000Y9900D02*
D03*
X98000Y3900D02*
D03*
X95000Y117900D02*
D03*
X92000Y111900D02*
D03*
X95000Y105900D02*
D03*
X92000Y99900D02*
D03*
X95000Y81900D02*
D03*
Y9900D02*
D03*
X92000Y3900D02*
D03*
X89000Y105900D02*
D03*
Y57900D02*
D03*
X83000Y105900D02*
D03*
X74000Y111900D02*
D03*
X77000Y105900D02*
D03*
X68000Y123900D02*
D03*
X71000Y117900D02*
D03*
X68000Y27900D02*
D03*
Y3900D02*
D03*
X62000Y63900D02*
D03*
Y27900D02*
D03*
X65000Y9900D02*
D03*
X62000Y3900D02*
D03*
X56000Y111900D02*
D03*
X59000Y105900D02*
D03*
X56000Y27900D02*
D03*
X59000Y9900D02*
D03*
X56000Y3900D02*
D03*
X50000Y111900D02*
D03*
X53000Y105900D02*
D03*
X50000Y87900D02*
D03*
X53000Y69900D02*
D03*
X50000Y27900D02*
D03*
X53000Y9900D02*
D03*
X50000Y3900D02*
D03*
X47000Y105900D02*
D03*
X44000Y87900D02*
D03*
Y63900D02*
D03*
Y27900D02*
D03*
X47000Y9900D02*
D03*
X38000Y123900D02*
D03*
Y111900D02*
D03*
X41000Y105900D02*
D03*
X38000Y87900D02*
D03*
Y27900D02*
D03*
Y3900D02*
D03*
X32000Y123900D02*
D03*
Y111900D02*
D03*
X35000Y105900D02*
D03*
X32000Y87900D02*
D03*
X35000Y33900D02*
D03*
X32000Y27900D02*
D03*
X35000Y9900D02*
D03*
X32000Y3900D02*
D03*
X26000Y123900D02*
D03*
X29000Y117900D02*
D03*
X26000Y111900D02*
D03*
X29000Y105900D02*
D03*
X26000Y87900D02*
D03*
X29000Y33900D02*
D03*
Y9900D02*
D03*
X26000Y3900D02*
D03*
X20000Y123900D02*
D03*
X23000Y117900D02*
D03*
X20000Y111900D02*
D03*
X23000Y105900D02*
D03*
X20000Y87900D02*
D03*
Y63900D02*
D03*
X23000Y9900D02*
D03*
X20000Y3900D02*
D03*
X14000Y123900D02*
D03*
X17000Y117900D02*
D03*
X14000Y111900D02*
D03*
X17000Y105900D02*
D03*
X14000Y87900D02*
D03*
X17000Y9900D02*
D03*
X14000Y3900D02*
D03*
X8000Y123900D02*
D03*
X11000Y117900D02*
D03*
Y69900D02*
D03*
Y45900D02*
D03*
Y9900D02*
D03*
X8000Y3900D02*
D03*
X56134Y122963D02*
D03*
X65535Y106254D02*
D03*
X62344Y121559D02*
D03*
X65087Y119912D02*
D03*
X50000Y123500D02*
D03*
X65000Y98500D02*
D03*
X70591Y112183D02*
D03*
X53550Y117257D02*
D03*
X72000Y98000D02*
D03*
X65000Y101000D02*
D03*
X59143Y116468D02*
D03*
X59311Y122579D02*
D03*
X56303Y117097D02*
D03*
X69252Y115089D02*
D03*
X53373Y122948D02*
D03*
X46000Y120000D02*
D03*
Y122500D02*
D03*
X72000Y103000D02*
D03*
X65000Y103500D02*
D03*
X63954Y112388D02*
D03*
X46000Y117500D02*
D03*
X67110Y96132D02*
D03*
X69730Y96204D02*
D03*
X67397Y117697D02*
D03*
X50000Y116500D02*
D03*
X72000Y100500D02*
D03*
X61897Y114840D02*
D03*
X71385Y105300D02*
D03*
X65186Y109435D02*
D03*
X113000Y59500D02*
D03*
Y64000D02*
D03*
X103500Y42000D02*
D03*
X51000Y40500D02*
D03*
X102500Y33500D02*
D03*
X64000Y37000D02*
D03*
X62000D02*
D03*
X60000D02*
D03*
X42500D02*
D03*
X40500D02*
D03*
X38500D02*
D03*
X101000Y35000D02*
D03*
X98500D02*
D03*
X96000D02*
D03*
X117000Y24500D02*
D03*
X119500D02*
D03*
X122000D02*
D03*
Y26500D02*
D03*
D64*
X132512Y31878D02*
D03*
Y9122D02*
D03*
D77*
X130543Y3492D02*
D03*
Y37508D02*
D03*
D78*
X147000Y3492D02*
D03*
Y37508D02*
D03*
D79*
X82000Y11000D02*
D03*
Y123000D02*
D03*
D80*
X127838Y92708D02*
D03*
X128500Y91000D02*
D03*
X7000Y24500D02*
D03*
Y33500D02*
D03*
X2000Y26500D02*
D03*
Y29000D02*
D03*
Y31500D02*
D03*
X13000Y25000D02*
D03*
Y27000D02*
D03*
Y29000D02*
D03*
Y31000D02*
D03*
X107000Y51000D02*
D03*
Y48500D02*
D03*
Y46000D02*
D03*
X92000Y30500D02*
D03*
X97500Y32500D02*
D03*
X23000Y26000D02*
D03*
Y34500D02*
D03*
X40500Y129500D02*
D03*
X44000D02*
D03*
X47500D02*
D03*
X107500Y112500D02*
D03*
X123000Y61000D02*
D03*
X119500D02*
D03*
X126500D02*
D03*
X96500Y58000D02*
D03*
Y68500D02*
D03*
X103500Y63500D02*
D03*
X105500D02*
D03*
X107500D02*
D03*
X94000Y28500D02*
D03*
X113500Y15500D02*
D03*
X65000Y28000D02*
D03*
X53000D02*
D03*
X41000D02*
D03*
X33500Y17000D02*
D03*
X37500D02*
D03*
X38000Y24500D02*
D03*
X35500D02*
D03*
X33000D02*
D03*
X124500Y8000D02*
D03*
Y6000D02*
D03*
X125000Y35000D02*
D03*
Y33000D02*
D03*
X122000D02*
D03*
X114000Y31500D02*
D03*
X99500Y32000D02*
D03*
X101000Y30500D02*
D03*
X98500Y43000D02*
D03*
X94500D02*
D03*
X77500Y50500D02*
D03*
Y59000D02*
D03*
Y67000D02*
D03*
X45000Y50500D02*
D03*
X53000D02*
D03*
X61500D02*
D03*
X69500D02*
D03*
X12000D02*
D03*
X20000D02*
D03*
X28500D02*
D03*
X36500D02*
D03*
X45000Y59000D02*
D03*
X53000D02*
D03*
X61500D02*
D03*
X69500D02*
D03*
X12000D02*
D03*
X20000D02*
D03*
X28500D02*
D03*
X36500D02*
D03*
X44500Y67000D02*
D03*
X52500D02*
D03*
X61000D02*
D03*
X69000D02*
D03*
X12000D02*
D03*
X20000D02*
D03*
X28500D02*
D03*
X36500D02*
D03*
X53000Y75500D02*
D03*
X61000D02*
D03*
X69500D02*
D03*
X77500D02*
D03*
X20000D02*
D03*
X28000D02*
D03*
X36500D02*
D03*
X44500D02*
D03*
X53000Y84000D02*
D03*
X61000D02*
D03*
X69500D02*
D03*
X77500D02*
D03*
X20000D02*
D03*
X28000D02*
D03*
X36500D02*
D03*
X44500D02*
D03*
Y92000D02*
D03*
X36500D02*
D03*
X28000D02*
D03*
X20000D02*
D03*
X115500Y93500D02*
D03*
X134000Y107500D02*
D03*
X138500Y93500D02*
D03*
X115500Y104500D02*
D03*
X126500Y112000D02*
D03*
X115500Y102500D02*
D03*
X61000Y95000D02*
D03*
X89000Y78000D02*
D03*
X83846Y62854D02*
D03*
X90000Y49500D02*
D03*
X83846Y58524D02*
D03*
X122000Y99000D02*
D03*
X118508Y98676D02*
D03*
X118500Y110400D02*
D03*
X121000Y110500D02*
D03*
X125000Y25500D02*
D03*
Y14000D02*
D03*
X68000Y42500D02*
D03*
X64500D02*
D03*
X126500Y96000D02*
D03*
X109500Y96500D02*
D03*
X111500Y103000D02*
D03*
X55500Y101000D02*
D03*
X119500Y93747D02*
D03*
X46500Y99500D02*
D03*
X106000Y101000D02*
D03*
X113500Y106500D02*
D03*
X51000Y100500D02*
D03*
M02*
