M48
;Layer_Color=9474304
;FILE_FORMAT=4:3
METRIC,LZ
;TYPE=PLATED
T01F00S00C0.203
T03F00S00C2.200
;TYPE=NON_PLATED
T04F00S00C0.650
%
T01
X0002032Y0000991
X0003556
X000508
X0006604
X0008128
X0009652
X000889Y0002515
X0007366
X0005842
X0004318
X0002794
X0003302Y000635
Y0006858
Y0007366
Y0007874
X0001778Y0008509
X0000508Y0008001
Y0007366
Y0006731
X0001778Y0006223
X0005842Y0006604
Y0008763
X0007366Y0008611
X000889
X0009779Y0009398
X0010287
X0010795
X0010414Y0007112
X0011176Y0007087
X00127
X0013462Y0007112
X0014224Y0007087
X0012954Y0010287
X0013462Y0012827
X001143
X0009271
X0007239
X000508
X0003048
X0002794Y0011659
X0003048Y0014986
X000508
Y0016231
X0007239Y0014986
X0009271
X001143
X0011176Y0016231
X0013462Y0014986
X0009652Y0007087
Y0006223
X0009017
X0008382
X0008128Y0007087
X0008509Y0004318
X0009525
X0011938Y0002515
X0013462
X0014224Y0000991
X00127
X0015748
X0017272
X001651Y0002515
X0014986
X0015748Y0007087
X001651Y0007112
X0017272Y0007087
X0016256Y0009398
X0015748
X001524
X0016383Y0010795
X0017272
X0017653Y0012827
X0019685
Y0014986
X0021297Y0014865
Y0015965
X0022606Y0014707
X0024511Y0014732
X0026289Y0016129
X0026797
X0027305
X0028702Y0016256
Y0015113
X0030353Y0015494
X0031242
X0032131
X0032512Y0016231
X0034036
X003556
X0037084
X0038608
X003937Y0014707
X0037846
X0036322
X0034798
X0033274
X0034036Y0013183
X003556
X0037084
X0038608
X003937Y0011659
X0037846
X0036322
X0034798
X0033274
X003175
X0030988Y0010135
X0029464
X0030226Y0008611
X0030988Y0008382
X003175
Y000889
Y0006477
X0030988Y0006223
Y0006731
X0030353Y0006223
X0029718
X0028956Y0008001
X0028702Y0008611
X0026035Y0008509
X0025654Y000889
X0025019
X0024384
X0024765Y0008255
X0025273Y0008128
X0025654Y0007747
X0023368
X0023876Y0007239
X0024003Y0010922
X0025019
X0026289Y0010668
X0027178Y0011684
Y0012319
Y0012954
X002286Y0012573
X0015621Y0012827
Y0014986
X0015748Y0016231
X0017653Y0014986
X0030988Y0016231
X003556Y0010135
X0036322Y0008611
X0034798
X003556Y0007087
X0037084
X0038608
X003937Y0008611
X0038608Y0010135
X003937Y0005563
X0037846
X0036322
X0034798
X003556Y0004039
X0037084
X0038608
X003937Y0002515
X0037846
X0036322
X0034798
X003556Y0000991
X0031623Y0001524
Y0002032
X003175Y0003556
X0030226Y0002515
X0028702
X0027178
X0025654
X002413
X0024892Y0004039
X0026416
X0028829Y0003937
X0029464Y0000991
X0030988
X002794
X0026416
X0024892
X0023368
X0024511Y0017399
X0024892Y0019279
X0026416
X002794
X0029464
X0030226Y0020803
X0028702
X0027178
X0025654
X002413
X0022606Y0019812
X0019685Y0019177
X0017653
X0015494
Y0017018
X0017526
X0019685
Y0021336
X0017653
X0015494
Y002413
X0017046Y0024417
X0017712Y0024436
X0018288Y0024892
Y0025527
Y0026162
X0018132Y0026746
X0019558Y0026899
X0021082
X0022606
X002413
X0025654
X0026416Y0028423
X0027305Y0028575
X0027178Y0029947
X0028702
X0030226
X003175
X0033274
X0034798
X0036322
X0037846
X003937
X0038608Y0031471
X0037084
X003556
X0034036
X0032512
X0030988
X0029464
X002794
X0026416
X0024892
X0025654Y0029947
X002413
X0024892Y0028423
X0023368
Y0025375
X0026924Y0025654
X0028321Y0026162
X0029337Y0026035
Y0026543
X0028829Y0027051
X0030099Y0028042
X0030734Y0028067
X0032131Y0028448
X0034036Y0028423
Y0027305
X0034798Y0026899
X0036322
X0037846
X003937
X0038608Y0028423
X0037084
X003556
Y0025375
X0037084
X0038608
X003937Y0023851
X0037846
X0036322
X0035179Y0023749
X0032512Y0023368
X0032131Y0024384
X0030988Y0025146
X0030101Y0025064
X0030353Y0023812
X0029337Y0023749
X0027178Y0023851
X0027813Y0024511
X0030988Y0022327
X0032512Y0019279
X0034036
X003556
X0037084
X0038608
X003937Y0020803
X0037846
X0036322
X0034798
Y0017755
X0036322
X0037846
X003937
X0038608Y0022327
X0037084
X0033274Y0026899
Y0017755
X003175
X001651Y0025019
Y0025654
Y0026289
X0016646Y0026989
X0016557Y0027797
X0016244Y0028547
X0015722Y0029169
X0015022Y0029583
X0014301Y0029743
X0015065Y0031135
X0015835Y0030876
X0016532Y0030458
X0017119Y0029895
X0018034Y0029947
X001759Y0029233
X001793Y0028494
X0018796Y0028423
X0017272Y0031471
X0014986Y0026899
X0013462
X0011938
X0010414
X000889
X0007366
X0005842
X0004318
X000508Y0028423
X0006604
X0008128
X0009652
X00127
Y0029591
X0013602Y0029783
X0013557Y0031229
X0014258Y0031233
X00127Y0031369
X0011684Y0031115
Y003048
Y0029845
X0012065Y0032893
X0011176
X0010287
X0009652Y0031471
X0008128
X0006604
X000508
X0003556
X0002032
X0002794Y0029947
X0004318
X0005842
X0007366
X0003556Y0028423
Y0022327
X000508
Y0021336
X0007112
X0006604Y0022327
X0008128
X0009652
X0009271Y0021336
X0011303
X0011176Y0022327
X0011303Y0023368
X0009271
X0007112
X000508
Y0019177
X0007112
X0009271
X0011303
Y0017018
X0013335
X0013462Y0017755
Y0019177
Y0021336
X00127Y0022327
X0012954Y0025527
X0014097Y0025654
X0011811Y0025273
X0014224Y0028423
X0009271Y0017018
X0007239
X000508
X0003048
X0002794Y0017755
T03
X0020828Y0002794
Y0031242
T04
X0033658Y0002317
Y0008097
M30
