M48
;Layer_Color=9474304
;FILE_FORMAT=2:5
INCH,LZ
;TYPE=PLATED
T01F00S00C0.00800
T03F00S00C0.08661
;TYPE=NON_PLATED
T04F00S00C0.02559
%
T01
X0012Y00039
X002
X0028
X0036
X00375Y0017
X00335
X0033Y00245
X00355
X0038
X00385Y0028
X0041
X00435
X0048Y00279
X0053Y0028
X00555
X0052Y0046
X005
X0053Y00505
X0045
X00365
X00285
X002
X0012
Y0059
X002
X00285
X00365
X0045
X0053
X00425Y0037
X00405
X00385
X0028Y00359
X0023Y00345
Y0026
X0016Y00279
X0013Y0027
Y0025
Y0029
Y0031
X0007Y00335
X0004Y00359
X0002Y00315
Y0029
Y00265
X0007Y00245
X0004Y00199
X0008Y00119
X0016
X0024
X0032Y00279
X0052Y00039
X006
X0068
X0064Y00119
X00645Y0028
X0062
X00595
X006Y0037
X0062
X0064
X0065Y0047
X00675Y0046
X00695Y00505
X00775
Y0059
X00695
X00615
Y00505
X009Y00495
X0088Y00585
Y0063
X00965Y0058
X01035Y00635
X01055
X01075
X0113Y0064
Y00595
X01195Y0061
X0123
X01265
X0136Y00599
X0144
X0152
X0148Y00519
X014
X0132
X0136Y00439
X0144
X0152
Y00279
X0144
X0136
X014Y00359
X0125Y0035
Y0033
X0123
X01205
X01185
X0116Y00359
X0114Y00315
X01115Y00325
X0109
Y00345
X0104Y0035
X01025Y00365
Y00335
X0101Y0035
X00985
X0096
X0098Y00305
X01
Y00199
X0092
X0096Y00119
X0104
X0112
X01135Y00155
X012Y0014
X01225
X0125
X01245Y0008
Y0006
X0116Y00039
X0108
X01
X0092
X00945Y0043
X00985
X01035Y0042
X0107Y0046
Y00485
Y0051
X0128Y00439
X0125Y00255
X0122Y00245
Y00265
X01195Y00245
X0117
X014Y00199
X0148
X0152Y00119
X0144
X0136
X014Y00039
Y00679
X0148
X0152Y00759
X0144
X0136
X014Y00839
X0148
X0152Y00919
X0144
X01385Y00935
X014Y00999
X0148
X0152Y01079
X0144
X0134Y01075
X0132Y01159
X014
X0148
X0152Y01239
X0144
X0136
X0128
X012
X0112
X0104
X0096
X01Y01159
X0108
X01075Y01125
X01135Y01065
X01155Y01045
Y01025
X01115Y0103
X0106Y0101
X01095Y00965
X01155Y00945
X01195
X01205Y0099
X01225
X01265Y0096
X013Y0093
Y0091
X0124Y00839
X0116
X0108
X01
X0104Y00919
Y00759
X0112
X0096
X00965Y00685
X0089Y0078
X00775Y00755
X00695
X0061
Y0067
X0069
X00775
Y0084
X00695
X0061
X00595Y00965
X006711Y0096132
X006973Y0096204
X0076Y00999
X0071385Y01053
X0065535Y0106254
X0065186Y0109435
X0063954Y0112388
X0061897Y011484
X0059143Y0116468
X0056568Y0117429
X0059311Y0122579
X0062344Y0121559
X0064Y01239
X0065087Y0119912
X0067397Y0117697
X0069252Y0115089
X0070591Y0112183
X0092Y01159
Y00999
X01205Y011
Y0112
X01265
X0124Y00679
X0132
X00525Y0067
X00445
X00365
X00285
X002
X0012
X002Y00755
X0028
X00365
X00445
X0053
Y0084
X00445
X00365
Y0092
X00445
X0047Y00965
X00515
X00555Y0105
X0056Y01079
X0048
X004
X0032
X0024
X0016
X002Y01159
X0028
X0036
X0032Y01239
X0024
X0016
X0008
X0012Y01159
X002Y0092
Y0084
X0028
Y0092
X005Y01165
X0053512Y0117373
X0053373Y0122948
X0056134Y0122963
X005Y01235
X00475Y01295
X0044
X00405
T03
X0082Y0011
Y0123
T04
X0132512Y0009122
Y0031878
M30
