%TF.GenerationSoftware,Altium Limited,Altium Designer,25.1.2 (22)*%
G04 Layer_Color=255*
%FSLAX45Y45*%
%MOMM*%
%TF.SameCoordinates,3D214C36-D050-49FB-A800-149662506FFD*%
%TF.FilePolarity,Positive*%
%TF.FileFunction,Pads,Top*%
%TF.Part,Single*%
G01*
G75*
%TA.AperFunction,SMDPad,CuDef*%
%ADD11R,0.45000X0.30000*%
%ADD12R,1.00000X1.60000*%
%ADD13R,1.05000X1.00000*%
%ADD14R,2.20000X1.05000*%
%ADD15R,0.60000X0.64000*%
%ADD16R,0.45000X0.65000*%
%ADD17R,0.60960X0.50800*%
%ADD18C,0.50800*%
%ADD19R,0.45720X0.78740*%
%ADD20R,0.30480X0.81280*%
%ADD21R,1.44780X1.75260*%
%TA.AperFunction,BGAPad,CuDef*%
%ADD22R,1.10000X1.10000*%
%TA.AperFunction,ConnectorPad*%
%ADD23R,1.50000X0.80000*%
%ADD24R,0.80000X1.50000*%
%TA.AperFunction,SMDPad,CuDef*%
%ADD25R,0.70000X0.35000*%
%ADD26R,0.60000X0.65000*%
%ADD27R,0.36500X0.15000*%
%ADD28R,0.30480X0.60960*%
%ADD29R,0.76200X1.09220*%
%ADD30R,0.50800X0.68580*%
%ADD31R,0.64000X0.60000*%
%ADD32R,0.25400X0.76200*%
%TA.AperFunction,ConnectorPad*%
%ADD33R,0.99060X2.84480*%
%ADD34R,0.60960X1.70180*%
%TA.AperFunction,SMDPad,CuDef*%
%ADD35R,0.65000X0.45000*%
%ADD36R,2.20000X0.65000*%
%ADD37R,2.30000X0.65000*%
%ADD38R,0.70480X0.24920*%
%ADD39R,1.40000X1.60000*%
%ADD40R,0.20320X0.71120*%
%ADD41R,0.40640X0.71120*%
%ADD42R,0.90000X1.00000*%
%ADD43R,0.51000X0.63000*%
%TA.AperFunction,ComponentPad*%
%ADD50C,0.65000*%
%ADD51O,2.10000X1.00000*%
%ADD52O,1.80000X1.00000*%
%TA.AperFunction,ViaPad*%
%ADD53C,5.00000*%
D11*
X80300Y801600D02*
D03*
Y736600D02*
D03*
Y671600D02*
D03*
X275300D02*
D03*
Y736600D02*
D03*
Y801600D02*
D03*
D12*
X177800Y736600D02*
D03*
D13*
X965000Y3048000D02*
D03*
X1270000D02*
D03*
D14*
X1117500Y2900500D02*
D03*
Y3195500D02*
D03*
D15*
X2641600Y711200D02*
D03*
X2553600D02*
D03*
D16*
X2556600Y596900D02*
D03*
X2641600D02*
D03*
X3319100Y355600D02*
D03*
X3234100D02*
D03*
X3238500Y647700D02*
D03*
X3323500D02*
D03*
D17*
X1409700Y2946400D02*
D03*
Y3048000D02*
D03*
D18*
X127000Y2806700D02*
D03*
Y2946400D02*
D03*
X2336800Y1981200D02*
D03*
Y2235200D02*
D03*
Y2108200D02*
D03*
D19*
X2870200Y1569720D02*
D03*
Y1308100D02*
D03*
D20*
X3163100Y2506980D02*
D03*
X3213100D02*
D03*
X3263100D02*
D03*
Y2796540D02*
D03*
X3213100D02*
D03*
X3163100D02*
D03*
D21*
X3213100Y2651760D02*
D03*
D22*
X399700Y1291500D02*
D03*
Y1501500D02*
D03*
Y1711500D02*
D03*
Y1921500D02*
D03*
Y2131500D02*
D03*
Y2341500D02*
D03*
X609700Y1291500D02*
D03*
Y1501500D02*
D03*
Y1711500D02*
D03*
Y1921500D02*
D03*
Y2131500D02*
D03*
Y2341500D02*
D03*
X819700Y1291500D02*
D03*
Y1501500D02*
D03*
Y1711500D02*
D03*
Y1921500D02*
D03*
Y2131500D02*
D03*
Y2341500D02*
D03*
X1029700Y1291500D02*
D03*
Y1501500D02*
D03*
Y1711500D02*
D03*
Y1921500D02*
D03*
Y2131500D02*
D03*
Y2341500D02*
D03*
X1239700Y1291500D02*
D03*
Y1501500D02*
D03*
Y1711500D02*
D03*
Y1921500D02*
D03*
Y2131500D02*
D03*
Y2341500D02*
D03*
X1449700Y1291500D02*
D03*
Y1501500D02*
D03*
Y1711500D02*
D03*
Y1921500D02*
D03*
Y2131500D02*
D03*
Y2341500D02*
D03*
X1659700Y1291500D02*
D03*
Y1501500D02*
D03*
Y1711500D02*
D03*
Y1921500D02*
D03*
Y2131500D02*
D03*
Y2341500D02*
D03*
X1869700Y1291500D02*
D03*
Y1501500D02*
D03*
Y1711500D02*
D03*
Y1921500D02*
D03*
Y2131500D02*
D03*
Y2341500D02*
D03*
D23*
X2129700Y2476500D02*
D03*
Y2366500D02*
D03*
Y2256500D02*
D03*
Y2146500D02*
D03*
Y2036500D02*
D03*
Y1926500D02*
D03*
Y1816500D02*
D03*
Y1706500D02*
D03*
Y1596500D02*
D03*
Y1486500D02*
D03*
Y1376500D02*
D03*
Y1266500D02*
D03*
Y1156500D02*
D03*
X139700D02*
D03*
Y1266500D02*
D03*
Y1376500D02*
D03*
Y1486500D02*
D03*
Y1596500D02*
D03*
Y1706500D02*
D03*
Y1816500D02*
D03*
Y1926500D02*
D03*
Y2036500D02*
D03*
Y2146500D02*
D03*
Y2256500D02*
D03*
Y2366500D02*
D03*
Y2476500D02*
D03*
D24*
X1849700Y1071500D02*
D03*
X1739700D02*
D03*
X1629700D02*
D03*
X1519700D02*
D03*
X1409700D02*
D03*
X1299700D02*
D03*
X1189700D02*
D03*
X1079700D02*
D03*
X969700D02*
D03*
X859700D02*
D03*
X749700D02*
D03*
X639700D02*
D03*
X529700D02*
D03*
X419700D02*
D03*
Y2561500D02*
D03*
X529700D02*
D03*
X639700D02*
D03*
X749700D02*
D03*
X859700D02*
D03*
X969700D02*
D03*
X1079700D02*
D03*
X1189700D02*
D03*
X1299700D02*
D03*
X1409700D02*
D03*
X1519700D02*
D03*
X1629700D02*
D03*
X1739700D02*
D03*
X1849700D02*
D03*
D25*
X2447200Y1780300D02*
D03*
Y1435300D02*
D03*
D26*
X2532200Y1765300D02*
D03*
Y1450300D02*
D03*
X2362200Y1765300D02*
D03*
Y1450300D02*
D03*
D27*
X3154900Y2337360D02*
D03*
Y2372360D02*
D03*
Y2407360D02*
D03*
X3271300D02*
D03*
Y2372360D02*
D03*
Y2337360D02*
D03*
D28*
X2763300Y550270D02*
D03*
X2828300D02*
D03*
X2893300D02*
D03*
Y750930D02*
D03*
X2828300D02*
D03*
X2763300D02*
D03*
D29*
X2780800Y650600D02*
D03*
X2875800D02*
D03*
D30*
X2463800Y596900D02*
D03*
Y698500D02*
D03*
D31*
X3022600Y773800D02*
D03*
Y685800D02*
D03*
X3009900Y2804160D02*
D03*
Y2716160D02*
D03*
Y2506160D02*
D03*
Y2594160D02*
D03*
X3517900Y2235200D02*
D03*
Y2323200D02*
D03*
X2679700Y1447800D02*
D03*
Y1535800D02*
D03*
X2546100Y1041400D02*
D03*
Y953400D02*
D03*
X2444500Y1041400D02*
D03*
Y953400D02*
D03*
X1524000Y876300D02*
D03*
Y788300D02*
D03*
X977900Y876300D02*
D03*
Y788300D02*
D03*
X1079500Y876300D02*
D03*
Y788300D02*
D03*
D32*
X2881700Y2809240D02*
D03*
X2831700D02*
D03*
X2781700D02*
D03*
X2731700D02*
D03*
Y2494280D02*
D03*
X2781700D02*
D03*
X2831700D02*
D03*
X2881700D02*
D03*
D33*
X1083900Y175260D02*
D03*
X88900D02*
D03*
D34*
X898900Y495260D02*
D03*
X773900D02*
D03*
X648900D02*
D03*
X523900D02*
D03*
X398900D02*
D03*
X273900D02*
D03*
D35*
X2933700Y2296160D02*
D03*
Y2381160D02*
D03*
X2832100Y2296160D02*
D03*
Y2381160D02*
D03*
X3035300Y2296160D02*
D03*
Y2381160D02*
D03*
X3403600Y2501900D02*
D03*
Y2416900D02*
D03*
Y2235200D02*
D03*
Y2320200D02*
D03*
Y2688500D02*
D03*
Y2603500D02*
D03*
X2870200Y1079500D02*
D03*
Y1164500D02*
D03*
X2679700Y1680300D02*
D03*
Y1765300D02*
D03*
X1625600Y791300D02*
D03*
Y876300D02*
D03*
D36*
X3119200Y1333360D02*
D03*
D37*
X3124200Y1483360D02*
D03*
D38*
X2649980Y1157300D02*
D03*
Y1207300D02*
D03*
Y1257300D02*
D03*
Y1307300D02*
D03*
X2349500D02*
D03*
Y1257300D02*
D03*
Y1207300D02*
D03*
Y1157300D02*
D03*
D39*
X2499740Y1232300D02*
D03*
D40*
X684200Y812800D02*
D03*
X634200D02*
D03*
X534200D02*
D03*
X484200D02*
D03*
Y723900D02*
D03*
X534200D02*
D03*
X634200D02*
D03*
X684200D02*
D03*
D41*
X584200Y812800D02*
D03*
Y723900D02*
D03*
D42*
X1236600Y838200D02*
D03*
X1371600D02*
D03*
D43*
X1828326Y2748722D02*
D03*
X1736326D02*
D03*
D50*
X3365800Y809700D02*
D03*
Y231700D02*
D03*
D51*
X3315800Y88700D02*
D03*
Y952700D02*
D03*
D52*
X3733800Y88700D02*
D03*
Y952700D02*
D03*
D53*
X2082800Y279400D02*
D03*
Y3124200D02*
D03*
%TF.MD5,578a951387a14f14c100ea1466a83c7c*%
M02*
