%TF.GenerationSoftware,Altium Limited,Altium Designer,25.1.2 (22)*%
G04 Layer_Physical_Order=1*
G04 Layer_Color=255*
%FSLAX45Y45*%
%MOMM*%
%TF.SameCoordinates,3D214C36-D050-49FB-A800-149662506FFD*%
%TF.FilePolarity,Positive*%
%TF.FileFunction,Copper,L1,Top,Signal*%
%TF.Part,Single*%
G01*
G75*
%TA.AperFunction,Conductor*%
%ADD10C,0.45720*%
%TA.AperFunction,SMDPad,CuDef*%
%ADD11R,0.45000X0.30000*%
%ADD12R,1.00000X1.60000*%
%ADD13R,1.05000X1.00000*%
%ADD14R,2.20000X1.05000*%
%ADD15R,0.60000X0.64000*%
%ADD16R,0.45000X0.65000*%
%ADD17R,0.60960X0.50800*%
%ADD18C,0.50800*%
%ADD19R,0.45720X0.78740*%
%ADD20R,0.30480X0.81280*%
%ADD21R,1.44780X1.75260*%
%TA.AperFunction,BGAPad,CuDef*%
%ADD22R,1.10000X1.10000*%
%TA.AperFunction,ConnectorPad*%
%ADD23R,1.50000X0.80000*%
%ADD24R,0.80000X1.50000*%
%TA.AperFunction,SMDPad,CuDef*%
%ADD25R,0.70000X0.35000*%
%ADD26R,0.60000X0.65000*%
%ADD27R,0.36500X0.15000*%
%ADD28R,0.30480X0.60960*%
%ADD29R,0.76200X1.09220*%
%ADD30R,0.50800X0.68580*%
%ADD31R,0.64000X0.60000*%
%ADD32R,0.25400X0.76200*%
%TA.AperFunction,ConnectorPad*%
%ADD33R,0.99060X2.84480*%
%ADD34R,0.60960X1.70180*%
%TA.AperFunction,SMDPad,CuDef*%
%ADD35R,0.65000X0.45000*%
%ADD36R,2.20000X0.65000*%
%ADD37R,2.30000X0.65000*%
%ADD38R,0.70480X0.24920*%
%ADD39R,1.40000X1.60000*%
%ADD40R,0.20320X0.71120*%
%ADD41R,0.40640X0.71120*%
%ADD42R,0.90000X1.00000*%
%ADD43R,0.51000X0.63000*%
%TA.AperFunction,Conductor*%
%ADD44C,0.30480*%
%ADD45C,0.15240*%
%ADD46C,0.20320*%
%ADD47C,0.25400*%
%ADD48C,0.22860*%
%ADD49C,0.40640*%
%TA.AperFunction,ComponentPad*%
%ADD50C,0.65000*%
%ADD51O,2.10000X1.00000*%
%ADD52O,1.80000X1.00000*%
%TA.AperFunction,ViaPad*%
%ADD53C,5.00000*%
%ADD54C,0.40640*%
%ADD55C,0.50800*%
G36*
X3974104Y26556D02*
X3831855D01*
X3828951Y36716D01*
X3839662Y50675D01*
X3847259Y69017D01*
X3848179Y76000D01*
X3733800D01*
X3619421D01*
X3620341Y69017D01*
X3627938Y50675D01*
X3638649Y36716D01*
X3635745Y26556D01*
X3428856D01*
X3425951Y36716D01*
X3436662Y50675D01*
X3444260Y69017D01*
X3445179Y76000D01*
X3315801D01*
X3186421D01*
X3187341Y69017D01*
X3194938Y50675D01*
X3205649Y36716D01*
X3202744Y26556D01*
X2214948D01*
X2212576Y36436D01*
X2227141Y43857D01*
X2262211Y69337D01*
X2292863Y99989D01*
X2318343Y135059D01*
X2338023Y173683D01*
X2351419Y214910D01*
X2358200Y257725D01*
Y266700D01*
X1807400D01*
Y257725D01*
X1814181Y214910D01*
X1827577Y173683D01*
X1847257Y135059D01*
X1872737Y99989D01*
X1903389Y69337D01*
X1938459Y43857D01*
X1953024Y36436D01*
X1950652Y26556D01*
X1148670D01*
Y319592D01*
X1600200D01*
X1609119Y321366D01*
X1616681Y326419D01*
X2277081Y986819D01*
X2282134Y994380D01*
X2283908Y1003300D01*
Y1210272D01*
X2283833Y1210649D01*
X2290685Y1217943D01*
X2299020Y1214595D01*
Y1129600D01*
X2321013D01*
Y1016002D01*
X2321012Y1016000D01*
X2323181Y1005099D01*
X2329356Y995857D01*
X2374656Y950557D01*
X2374657Y950556D01*
X2383899Y944381D01*
X2394800Y942212D01*
X2396504Y932303D01*
Y863600D01*
X2401336Y851936D01*
X2413000Y847104D01*
X2533167D01*
X2595104Y785167D01*
Y654484D01*
X2594339Y644640D01*
X2584944Y644640D01*
X2518860D01*
Y627977D01*
X2504440D01*
Y646430D01*
X2423160D01*
Y547370D01*
X2504440D01*
Y565823D01*
X2518860D01*
Y549160D01*
X2590005D01*
X2594340Y549160D01*
X2603918Y547754D01*
X2643546Y508126D01*
X2655210Y503294D01*
X2778540D01*
X2781572Y504550D01*
X2787660D01*
X2793780Y504550D01*
Y504549D01*
X2797820D01*
X2797821Y504550D01*
X2858779D01*
Y504549D01*
X2862820D01*
Y504550D01*
X2923780D01*
Y579494D01*
X3136900D01*
X3148564Y584326D01*
X3153396Y595990D01*
Y607162D01*
X3163556Y613951D01*
X3167927Y612140D01*
X3182073D01*
X3190600Y615672D01*
X3200548Y610017D01*
X3200760Y609720D01*
Y599960D01*
X3276240D01*
Y695440D01*
X3200760D01*
Y685680D01*
X3200548Y685383D01*
X3190600Y679728D01*
X3182073Y683260D01*
X3167927D01*
X3163556Y681449D01*
X3153396Y688238D01*
Y715800D01*
X3148564Y727464D01*
X3136900Y732296D01*
X2938300D01*
X2926635Y727464D01*
X2920877Y721705D01*
X2877273Y721706D01*
X2876719Y724492D01*
X2870544Y733734D01*
X2870543Y733734D01*
X2858780Y745497D01*
Y796650D01*
X2797820D01*
Y796650D01*
X2793780D01*
Y796650D01*
X2734296D01*
Y843700D01*
X2729464Y855364D01*
X2593340Y991488D01*
Y998640D01*
X2581132D01*
X2578100Y999896D01*
X2413208D01*
X2411497Y999187D01*
X2406600D01*
X2377987Y1027800D01*
Y1129600D01*
X2399980D01*
Y1229600D01*
Y1335000D01*
X2299020D01*
Y1335000D01*
X2288860Y1334225D01*
X2258113Y1364972D01*
X2249711Y1370586D01*
X2239800Y1372558D01*
X2219940D01*
Y1431260D01*
Y1541260D01*
Y1651260D01*
Y1761740D01*
X2039460D01*
Y1651260D01*
Y1541260D01*
Y1431260D01*
Y1321260D01*
Y1211260D01*
Y1101260D01*
X2103802D01*
Y946627D01*
X1567843Y410668D01*
X840507D01*
X819620Y431555D01*
Y595590D01*
X764805D01*
X710098Y650297D01*
Y723900D01*
Y812800D01*
X709600Y815302D01*
Y863600D01*
X608800D01*
Y815302D01*
X608302Y812800D01*
Y723900D01*
Y595590D01*
X603180D01*
Y394930D01*
X661658D01*
X730169Y326419D01*
X737731Y321366D01*
X746650Y319592D01*
X1019130D01*
Y26556D01*
X153670D01*
Y332740D01*
X25896D01*
Y1045467D01*
X35283Y1049355D01*
X237519Y847119D01*
X245081Y842066D01*
X245414Y842000D01*
X244413Y831840D01*
X237560D01*
Y819632D01*
X236304Y816600D01*
Y596563D01*
X235332Y595590D01*
X228180D01*
Y583382D01*
X226924Y580350D01*
Y410170D01*
X228180Y407138D01*
Y394930D01*
X240388D01*
X243420Y393674D01*
X330200D01*
X341864Y398506D01*
X343020Y401296D01*
X353180Y399275D01*
Y394930D01*
X444620D01*
Y595590D01*
X444620Y595590D01*
X444620D01*
X449645Y603520D01*
X498143Y652018D01*
X508303Y647809D01*
Y595590D01*
X478180D01*
Y394930D01*
X569620D01*
Y595590D01*
X560098D01*
Y723900D01*
Y812800D01*
X559600Y815302D01*
Y863600D01*
X557349D01*
X555734Y871720D01*
X550681Y879281D01*
X499081Y930881D01*
X491519Y935934D01*
X482600Y937708D01*
X314454D01*
X163008Y1089154D01*
Y1101260D01*
X229940D01*
Y1211260D01*
Y1321260D01*
Y1431260D01*
Y1541260D01*
Y1651260D01*
Y1761260D01*
Y1907385D01*
X237552Y1908899D01*
X245114Y1913951D01*
X308581Y1977419D01*
X313634Y1984980D01*
X315408Y1993900D01*
Y2781300D01*
X313634Y2790219D01*
X308581Y2797781D01*
X167640Y2938722D01*
Y2954484D01*
X161453Y2969421D01*
X150021Y2980853D01*
X135084Y2987040D01*
X118916D01*
X103979Y2980853D01*
X92547Y2969421D01*
X86360Y2954484D01*
Y2938316D01*
X92547Y2923379D01*
X103979Y2911947D01*
X118916Y2905760D01*
X134678D01*
X268792Y2771646D01*
Y2711145D01*
X259405Y2707257D01*
X167640Y2799022D01*
Y2814784D01*
X161453Y2829721D01*
X150021Y2841153D01*
X135084Y2847340D01*
X118916D01*
X103979Y2841153D01*
X92547Y2829721D01*
X86360Y2814784D01*
Y2798616D01*
X92547Y2783679D01*
X103979Y2772247D01*
X118916Y2766060D01*
X134678D01*
X230692Y2670046D01*
Y2541589D01*
X229940Y2531740D01*
X49460D01*
Y2421260D01*
Y2311260D01*
Y2201260D01*
Y2091260D01*
Y1981260D01*
Y1871260D01*
Y1761260D01*
Y1651260D01*
Y1541260D01*
Y1431260D01*
Y1289808D01*
X47300D01*
X38381Y1288034D01*
X36056Y1286481D01*
X25896Y1291911D01*
Y3374104D01*
X1944882D01*
X1947253Y3364224D01*
X1938459Y3359743D01*
X1903389Y3334263D01*
X1872737Y3303611D01*
X1847257Y3268541D01*
X1827577Y3229917D01*
X1814181Y3188690D01*
X1807400Y3145875D01*
Y3136900D01*
X2358200D01*
Y3145875D01*
X2351419Y3188690D01*
X2338023Y3229917D01*
X2318343Y3268541D01*
X2292863Y3303611D01*
X2262211Y3334263D01*
X2227141Y3359743D01*
X2218347Y3364224D01*
X2220718Y3374104D01*
X3974104D01*
Y26556D01*
D02*
G37*
G36*
X3136900Y595990D02*
X2837700D01*
Y705210D01*
X2927710Y705210D01*
X2938300Y715800D01*
X3136900D01*
Y595990D01*
D02*
G37*
G36*
X2717800Y843700D02*
Y580750D01*
X2778540D01*
Y519790D01*
X2655210D01*
X2611600Y563400D01*
Y792000D01*
X2540000Y863600D01*
X2413000D01*
Y982899D01*
X2413208Y983400D01*
X2578100D01*
X2717800Y843700D01*
D02*
G37*
G36*
X355600Y622300D02*
X330200Y601497D01*
Y410170D01*
X243420D01*
Y580350D01*
X252800Y589730D01*
Y816600D01*
X355600D01*
Y622300D01*
D02*
G37*
%LPC*%
G36*
X3230550Y2936788D02*
X3230549Y2936787D01*
X2819401D01*
X2819400Y2936788D01*
X2808498Y2934619D01*
X2799256Y2928444D01*
X2799256Y2928443D01*
X2761556Y2890744D01*
X2755381Y2881502D01*
X2753212Y2870600D01*
X2753213Y2870599D01*
Y2809240D01*
X2753760Y2806488D01*
Y2755900D01*
X2803213D01*
Y2637602D01*
X2801954Y2636343D01*
X2796540Y2623273D01*
Y2609127D01*
X2796998Y2608020D01*
X2788385Y2602264D01*
X2620063Y2770587D01*
X2609981Y2777324D01*
X2598088Y2779689D01*
X1869066D01*
Y2795462D01*
X1787586D01*
Y2701983D01*
X1869066D01*
Y2717535D01*
X2585215D01*
X2691630Y2611120D01*
X2687422Y2600960D01*
X2685327D01*
X2672257Y2595546D01*
X2662254Y2585543D01*
X2656840Y2572473D01*
Y2558327D01*
X2662254Y2545257D01*
X2672257Y2535254D01*
X2685327Y2529840D01*
X2699473D01*
X2703213Y2527341D01*
Y2494280D01*
X2703760Y2491528D01*
Y2440940D01*
X2747019D01*
X2751154Y2430957D01*
X2761157Y2420954D01*
X2774227Y2415540D01*
X2784360D01*
Y2343421D01*
X2784359D01*
Y2333899D01*
X2784360D01*
Y2258420D01*
X2879840D01*
Y2258420D01*
X2885960D01*
Y2258420D01*
X2981440D01*
Y2258420D01*
X2987560D01*
Y2258420D01*
X3083040D01*
Y2300938D01*
X3112023Y2329921D01*
X3121410Y2326033D01*
Y2314620D01*
X3174502D01*
Y2298700D01*
X3176474Y2288789D01*
X3182088Y2280388D01*
X3245588Y2216888D01*
X3253989Y2211274D01*
X3263900Y2209302D01*
X3355860D01*
Y2197460D01*
X3451340D01*
Y2204123D01*
X3470660D01*
Y2189960D01*
X3565140D01*
Y2280440D01*
X3470660D01*
Y2266277D01*
X3458741D01*
X3451341Y2272940D01*
Y2282461D01*
X3451340D01*
Y2357940D01*
X3434677D01*
Y2379160D01*
X3451340D01*
Y2454639D01*
X3451341D01*
Y2464161D01*
X3451340D01*
Y2539640D01*
X3434677D01*
Y2565760D01*
X3451340D01*
Y2641240D01*
X3355860D01*
Y2565760D01*
X3372523D01*
Y2539640D01*
X3355860D01*
Y2532977D01*
X3293580D01*
Y2548890D01*
X3300730D01*
Y2754630D01*
X3293580D01*
Y2852420D01*
X3291587D01*
Y2875750D01*
X3289419Y2886652D01*
X3283244Y2895894D01*
X3283243Y2895894D01*
X3250694Y2928444D01*
X3241451Y2934619D01*
X3230550Y2936788D01*
D02*
G37*
G36*
X2358200Y3111500D02*
X2095500D01*
Y2848800D01*
X2104475D01*
X2147290Y2855581D01*
X2188517Y2868977D01*
X2227141Y2888657D01*
X2262211Y2914137D01*
X2292863Y2944789D01*
X2318343Y2979859D01*
X2338023Y3018483D01*
X2351419Y3059710D01*
X2358200Y3102525D01*
Y3111500D01*
D02*
G37*
G36*
X2070100D02*
X1807400D01*
Y3102525D01*
X1814181Y3059710D01*
X1827577Y3018483D01*
X1847257Y2979859D01*
X1872737Y2944789D01*
X1903389Y2914137D01*
X1938459Y2888657D01*
X1977083Y2868977D01*
X2018310Y2855581D01*
X2061125Y2848800D01*
X2070100D01*
Y3111500D01*
D02*
G37*
G36*
X1335200Y3110700D02*
X1204800D01*
Y2985300D01*
X1335200D01*
Y3011743D01*
X1366520D01*
Y3009900D01*
X1450291D01*
X1465525Y3008701D01*
X1506343Y2998902D01*
X1545127Y2982837D01*
X1580919Y2960903D01*
X1605079Y2940269D01*
X1612495Y2933639D01*
X1612522Y2933602D01*
X1619305Y2926249D01*
X1644464Y2896793D01*
X1669949Y2855204D01*
X1688615Y2810141D01*
X1698126Y2770522D01*
Y2704523D01*
X1703443D01*
Y2649200D01*
X1687000D01*
Y2473800D01*
X1792400D01*
Y2649200D01*
X1775957D01*
Y2713963D01*
X1776434Y2714188D01*
X1774526Y2738433D01*
Y2792922D01*
X1767196D01*
X1757675Y2832580D01*
X1734649Y2888170D01*
X1703209Y2939474D01*
X1664142Y2985216D01*
X1664142Y2985217D01*
X1664142D01*
X1656495Y2991555D01*
X1623601Y3019649D01*
X1578093Y3047536D01*
X1528783Y3067961D01*
X1476884Y3080421D01*
X1452880Y3082310D01*
Y3086100D01*
X1366520D01*
Y3084257D01*
X1335200D01*
Y3110700D01*
D02*
G37*
G36*
X584940Y2651740D02*
X474460D01*
Y2471260D01*
X584940D01*
Y2651740D01*
D02*
G37*
G36*
X1574940D02*
X694460D01*
Y2471260D01*
X1491213D01*
Y2446825D01*
X1491212Y2446824D01*
X1493381Y2435922D01*
X1499556Y2426680D01*
X1513840Y2412396D01*
Y2405927D01*
X1519254Y2392857D01*
X1529257Y2382854D01*
X1542327Y2377440D01*
X1556473D01*
X1569543Y2382854D01*
X1579546Y2392857D01*
X1584960Y2405927D01*
Y2420073D01*
X1579546Y2433143D01*
X1569543Y2443146D01*
X1559508Y2447303D01*
X1548187Y2458624D01*
Y2471260D01*
X1574940D01*
Y2651740D01*
D02*
G37*
G36*
X2219940Y2421740D02*
X2039460D01*
Y2311260D01*
Y2201260D01*
Y2091260D01*
Y1981260D01*
Y1871260D01*
X2219940D01*
Y1895423D01*
X2251627D01*
X2323850Y1823200D01*
X2319642Y1813040D01*
X2316960D01*
Y1717560D01*
X2331123D01*
Y1498040D01*
X2316960D01*
Y1402560D01*
X2407440D01*
Y1498040D01*
X2393277D01*
Y1717560D01*
X2407440D01*
Y1813040D01*
X2393277D01*
Y1828800D01*
X2390912Y1840693D01*
X2384175Y1850775D01*
X2289504Y1945446D01*
X2289047Y1948404D01*
X2293803Y1954683D01*
X2305251Y1955275D01*
X2313779Y1946747D01*
X2328716Y1940560D01*
X2344884D01*
X2359821Y1946747D01*
X2371253Y1958179D01*
X2377440Y1973116D01*
Y1989284D01*
X2371253Y2004221D01*
X2359821Y2015653D01*
X2344884Y2021840D01*
X2328716D01*
X2313779Y2015653D01*
X2302634Y2004508D01*
X2287582D01*
X2283205Y2008884D01*
X2282220Y2015637D01*
X2282309Y2018399D01*
X2282979Y2021417D01*
X2329122Y2067560D01*
X2344884D01*
X2359821Y2073747D01*
X2371253Y2085179D01*
X2377440Y2100116D01*
Y2116284D01*
X2371253Y2131221D01*
X2359821Y2142653D01*
X2344884Y2148840D01*
X2328716D01*
X2313779Y2142653D01*
X2302347Y2131221D01*
X2296160Y2116284D01*
Y2100522D01*
X2255446Y2059808D01*
X2219940D01*
Y2201260D01*
Y2306287D01*
X2230100Y2308938D01*
X2296160Y2242878D01*
Y2227116D01*
X2302347Y2212179D01*
X2313779Y2200747D01*
X2328716Y2194560D01*
X2344884D01*
X2359821Y2200747D01*
X2371253Y2212179D01*
X2377440Y2227116D01*
Y2243284D01*
X2371253Y2258221D01*
X2359821Y2269653D01*
X2344884Y2275840D01*
X2329122D01*
X2254361Y2350601D01*
X2246800Y2355653D01*
X2237880Y2357428D01*
X2219940D01*
Y2421740D01*
D02*
G37*
G36*
X2577440Y1813040D02*
X2486960D01*
Y1717560D01*
X2501123D01*
Y1498040D01*
X2486960D01*
Y1402560D01*
X2577440D01*
Y1417973D01*
X2632460D01*
Y1402560D01*
X2726940D01*
Y1493040D01*
X2632460D01*
Y1480127D01*
X2577440D01*
Y1498040D01*
X2563277D01*
Y1717560D01*
X2577440D01*
Y1734223D01*
X2631960D01*
Y1727560D01*
X2727440D01*
Y1803040D01*
X2631960D01*
Y1796377D01*
X2577440D01*
Y1813040D01*
D02*
G37*
G36*
X2878284Y1666240D02*
X2862116D01*
X2847179Y1660053D01*
X2835747Y1648621D01*
X2829560Y1633684D01*
Y1617516D01*
X2832100Y1611384D01*
Y1525516D01*
X2829560Y1519384D01*
Y1503216D01*
X2835747Y1488279D01*
X2847179Y1476847D01*
X2862116Y1470660D01*
X2878284D01*
X2893221Y1476847D01*
X2904653Y1488279D01*
X2910840Y1503216D01*
Y1519384D01*
X2908300Y1525516D01*
Y1611384D01*
X2910840Y1617516D01*
Y1633684D01*
X2904653Y1648621D01*
X2893221Y1660053D01*
X2878284Y1666240D01*
D02*
G37*
G36*
X1339700Y1162996D02*
X1259700D01*
X1256668Y1161740D01*
X1122733D01*
X1119700Y1162996D01*
X929700D01*
X926668Y1161740D01*
X914460D01*
Y1149532D01*
X913204Y1146500D01*
Y996500D01*
X914460Y993468D01*
Y981260D01*
X921611D01*
X929404Y973467D01*
Y846300D01*
X930660Y843268D01*
Y831060D01*
X942868D01*
X945900Y829804D01*
X1111500D01*
X1114532Y831060D01*
X1126740D01*
Y843268D01*
X1127996Y846300D01*
Y899467D01*
X1131365Y902836D01*
X1136196Y914500D01*
Y981260D01*
X1243204D01*
Y963133D01*
X1183511Y903440D01*
X1176360D01*
Y891232D01*
X1175104Y888200D01*
Y788200D01*
X1176360Y785168D01*
Y772960D01*
X1188568D01*
X1191600Y771704D01*
X1281600D01*
X1284632Y772960D01*
X1296840D01*
Y785168D01*
X1298096Y788200D01*
Y881368D01*
X1351364Y934636D01*
X1356196Y946300D01*
Y1146500D01*
X1354940Y1149532D01*
Y1161740D01*
X1342732D01*
X1339700Y1162996D01*
D02*
G37*
G36*
X2584980Y1327540D02*
X2414500D01*
Y1137060D01*
X2584980D01*
Y1327540D01*
D02*
G37*
G36*
X3244440Y1381100D02*
X2993960D01*
Y1285620D01*
X3082943D01*
Y1254618D01*
X2944082Y1115757D01*
X2919423D01*
X2917940Y1117240D01*
Y1126760D01*
X2917940Y1127400D01*
Y1202240D01*
X2898687D01*
Y1253490D01*
X2908300D01*
Y1362710D01*
X2832100D01*
Y1253490D01*
X2841713D01*
Y1202240D01*
X2822460D01*
Y1127400D01*
X2822460Y1126760D01*
Y1117240D01*
X2812648Y1115757D01*
X2648473D01*
X2634598Y1112997D01*
X2626282Y1107440D01*
X2620816D01*
X2605879Y1101253D01*
X2594447Y1089821D01*
X2588260Y1074884D01*
Y1058716D01*
X2594447Y1043779D01*
X2605879Y1032347D01*
X2620816Y1026160D01*
X2636984D01*
X2651921Y1032347D01*
X2662817Y1043243D01*
X2822460D01*
Y1041760D01*
X2917940D01*
Y1043243D01*
X2959099D01*
X2959100Y1043243D01*
X2972975Y1046003D01*
X2984737Y1053863D01*
X3144837Y1213963D01*
X3152697Y1225725D01*
X3155457Y1239600D01*
X3155457Y1239601D01*
Y1285620D01*
X3244440D01*
Y1381100D01*
D02*
G37*
G36*
X804940Y1161740D02*
X364460D01*
Y981260D01*
X804940D01*
Y1161740D01*
D02*
G37*
G36*
X3370800Y1028751D02*
X3328501D01*
Y965400D01*
X3445179D01*
X3444260Y972383D01*
X3436662Y990725D01*
X3424576Y1006476D01*
X3408826Y1018562D01*
X3390484Y1026159D01*
X3370800Y1028751D01*
D02*
G37*
G36*
X3773800D02*
X3746500D01*
Y965400D01*
X3848179D01*
X3847259Y972383D01*
X3839662Y990725D01*
X3827576Y1006476D01*
X3811825Y1018562D01*
X3793483Y1026159D01*
X3773800Y1028751D01*
D02*
G37*
G36*
X3721100D02*
X3693800D01*
X3674117Y1026159D01*
X3655775Y1018562D01*
X3640024Y1006476D01*
X3627938Y990725D01*
X3620341Y972383D01*
X3619421Y965400D01*
X3721100D01*
Y1028751D01*
D02*
G37*
G36*
X3303101D02*
X3260800D01*
X3241116Y1026159D01*
X3222775Y1018562D01*
X3207024Y1006476D01*
X3194938Y990725D01*
X3187341Y972383D01*
X3186421Y965400D01*
X3303101D01*
Y1028751D01*
D02*
G37*
G36*
X3848179Y940000D02*
X3746500D01*
Y876649D01*
X3773800D01*
X3793483Y879241D01*
X3811825Y886838D01*
X3827576Y898924D01*
X3839662Y914675D01*
X3847259Y933016D01*
X3848179Y940000D01*
D02*
G37*
G36*
X3721100D02*
X3619421D01*
X3620341Y933016D01*
X3627938Y914675D01*
X3640024Y898924D01*
X3655775Y886838D01*
X3674117Y879241D01*
X3693800Y876649D01*
X3721100D01*
Y940000D01*
D02*
G37*
G36*
X3445179D02*
X3328501D01*
Y876649D01*
X3370800D01*
X3390484Y879241D01*
X3408826Y886838D01*
X3424576Y898924D01*
X3436662Y914675D01*
X3444260Y933016D01*
X3445179Y940000D01*
D02*
G37*
G36*
X3303101D02*
X3186421D01*
X3187341Y933016D01*
X3194938Y914675D01*
X3207024Y898924D01*
X3222775Y886838D01*
X3241116Y879241D01*
X3260800Y876649D01*
X3303101D01*
Y940000D01*
D02*
G37*
G36*
X1559700Y1162996D02*
X1479700D01*
X1476668Y1161740D01*
X1464460D01*
Y1149532D01*
X1463204Y1146500D01*
Y996500D01*
X1464460Y993468D01*
Y981260D01*
X1471611D01*
X1475504Y977367D01*
Y846300D01*
X1476760Y843268D01*
Y831060D01*
X1488968D01*
X1492000Y829804D01*
X1556000D01*
X1559032Y831060D01*
X1571240D01*
Y837304D01*
X1658100D01*
X1661132Y838560D01*
X1673340D01*
Y850768D01*
X1674596Y853800D01*
Y965200D01*
X1672152Y971100D01*
X1678643Y981260D01*
X1794940D01*
Y1161740D01*
X1562732D01*
X1559700Y1162996D01*
D02*
G37*
G36*
X3375296Y857440D02*
X3356304D01*
X3338757Y850172D01*
X3325328Y836743D01*
X3318060Y819196D01*
Y800204D01*
X3325328Y782657D01*
X3338757Y769228D01*
X3356304Y761960D01*
X3375296D01*
X3392843Y769228D01*
X3406272Y782657D01*
X3413540Y800204D01*
Y819196D01*
X3406272Y836743D01*
X3392843Y850172D01*
X3375296Y857440D01*
D02*
G37*
G36*
X3271840Y403340D02*
X3196360D01*
Y396239D01*
X3186200Y389451D01*
X3182073Y391160D01*
X3167927D01*
X3154857Y385746D01*
X3144854Y375743D01*
X3139440Y362673D01*
Y348527D01*
X3144854Y335457D01*
X3154857Y325454D01*
X3167927Y320040D01*
X3182073D01*
X3186200Y321749D01*
X3196360Y314961D01*
Y307860D01*
X3271840D01*
Y403340D01*
D02*
G37*
G36*
X2104475Y554800D02*
X2095500D01*
Y292100D01*
X2358200D01*
Y301075D01*
X2351419Y343890D01*
X2338023Y385117D01*
X2318343Y423741D01*
X2292863Y458811D01*
X2262211Y489463D01*
X2227141Y514943D01*
X2188517Y534623D01*
X2147290Y548019D01*
X2104475Y554800D01*
D02*
G37*
G36*
X2070100D02*
X2061125D01*
X2018310Y548019D01*
X1977083Y534623D01*
X1938459Y514943D01*
X1903389Y489463D01*
X1872737Y458811D01*
X1847257Y423741D01*
X1827577Y385117D01*
X1814181Y343890D01*
X1807400Y301075D01*
Y292100D01*
X2070100D01*
Y554800D01*
D02*
G37*
G36*
X3375296Y279440D02*
X3356304D01*
X3338757Y272172D01*
X3325328Y258743D01*
X3318060Y241196D01*
Y222204D01*
X3325328Y204657D01*
X3338757Y191228D01*
X3356304Y183960D01*
X3375296D01*
X3392843Y191228D01*
X3406272Y204657D01*
X3413540Y222204D01*
Y241196D01*
X3406272Y258743D01*
X3392843Y272172D01*
X3375296Y279440D01*
D02*
G37*
G36*
X3370800Y164751D02*
X3328501D01*
Y101400D01*
X3445179D01*
X3444260Y108384D01*
X3436662Y126725D01*
X3424576Y142476D01*
X3408826Y154562D01*
X3390484Y162159D01*
X3370800Y164751D01*
D02*
G37*
G36*
X3773800D02*
X3746500D01*
Y101400D01*
X3848179D01*
X3847259Y108384D01*
X3839662Y126725D01*
X3827576Y142476D01*
X3811825Y154562D01*
X3793483Y162159D01*
X3773800Y164751D01*
D02*
G37*
G36*
X3721100D02*
X3693800D01*
X3674117Y162159D01*
X3655775Y154562D01*
X3640024Y142476D01*
X3627938Y126725D01*
X3620341Y108384D01*
X3619421Y101400D01*
X3721100D01*
Y164751D01*
D02*
G37*
G36*
X3303101D02*
X3260800D01*
X3241116Y162159D01*
X3222775Y154562D01*
X3207024Y142476D01*
X3194938Y126725D01*
X3187341Y108384D01*
X3186421Y101400D01*
X3303101D01*
Y164751D01*
D02*
G37*
%LPD*%
G36*
X3178340Y2835795D02*
Y2755900D01*
X3147860D01*
X3129600Y2774160D01*
X2977900D01*
Y2834160D01*
X3144840D01*
X3147860Y2837180D01*
X3177766D01*
X3178340Y2835795D01*
D02*
G37*
G36*
X3234613Y2863950D02*
Y2852420D01*
X3232620D01*
Y2754630D01*
X3195684D01*
X3194836Y2755900D01*
Y2835795D01*
X3193580Y2838827D01*
Y2850831D01*
X3193581Y2850831D01*
X3193581Y2852421D01*
X3184078Y2852421D01*
X3183420Y2852420D01*
X3180798Y2852420D01*
X3177766Y2853676D01*
X3147860D01*
X3144828Y2852420D01*
X3132620D01*
Y2850656D01*
X2977900D01*
X2974868Y2849400D01*
X2962660D01*
Y2837192D01*
X2961404Y2834160D01*
Y2774160D01*
X2962660Y2771128D01*
Y2758920D01*
X2974868D01*
X2977900Y2757664D01*
X3116567D01*
X3125470Y2754630D01*
Y2552656D01*
X2977900D01*
X2974868Y2551400D01*
X2962660D01*
Y2539192D01*
X2961404Y2536160D01*
Y2534647D01*
X2909640D01*
Y2547620D01*
X2812777D01*
Y2565000D01*
X2810671Y2575589D01*
X2813731Y2579667D01*
X2818252Y2583446D01*
X2825027Y2580640D01*
X2839173D01*
X2852243Y2586054D01*
X2862246Y2596057D01*
X2867660Y2609127D01*
Y2623273D01*
X2862246Y2636343D01*
X2860187Y2638402D01*
Y2665021D01*
X2870348Y2671809D01*
X2875827Y2669540D01*
X2889973D01*
X2903043Y2674954D01*
X2913046Y2684957D01*
X2918460Y2698027D01*
Y2712173D01*
X2913046Y2725243D01*
X2910187Y2728102D01*
Y2809240D01*
X2909640Y2811992D01*
Y2862580D01*
X2827242D01*
X2823354Y2871967D01*
X2831200Y2879813D01*
X3218750D01*
X3234613Y2863950D01*
D02*
G37*
G36*
X3178340Y2466340D02*
X3147860D01*
X3138040Y2476160D01*
X2977900D01*
Y2536160D01*
X3136400D01*
X3147860Y2547620D01*
X3178340D01*
Y2466340D01*
D02*
G37*
G36*
X2961404Y2476160D02*
X2962660Y2473128D01*
Y2460920D01*
X2974868D01*
X2977900Y2459664D01*
X3131208D01*
X3132620Y2458252D01*
Y2451100D01*
X3144828D01*
X3147860Y2449844D01*
X3168353D01*
X3177540Y2445473D01*
Y2431708D01*
X3176474Y2430112D01*
X3176471Y2430100D01*
X3157755D01*
X3154900Y2430668D01*
X3071500D01*
X3062580Y2428894D01*
X3055019Y2423841D01*
X3050078Y2418900D01*
X2987560D01*
Y2343421D01*
X2987560D01*
Y2341525D01*
X2977400Y2333900D01*
X2885960D01*
Y2333900D01*
X2881384D01*
X2879840Y2344060D01*
Y2418900D01*
X2855008D01*
Y2440940D01*
X2909640D01*
Y2477672D01*
X2961404D01*
Y2476160D01*
D02*
G37*
G36*
X3237810Y2389536D02*
Y2384620D01*
X3268445D01*
X3271300Y2384052D01*
X3271903Y2384172D01*
X3355860D01*
Y2379160D01*
X3372523D01*
Y2357940D01*
X3355860D01*
Y2282461D01*
X3355859D01*
Y2272939D01*
X3355860D01*
Y2261098D01*
X3274627D01*
X3226298Y2309427D01*
Y2394785D01*
X3227650Y2395532D01*
X3237810Y2389536D01*
D02*
G37*
G36*
X1119700Y914500D02*
X1111500Y906300D01*
Y846300D01*
X945900D01*
Y980300D01*
X929700Y996500D01*
Y1146500D01*
X1119700D01*
Y914500D01*
D02*
G37*
G36*
X1339700Y946300D02*
X1281600Y888200D01*
Y788200D01*
X1191600D01*
Y888200D01*
X1259700Y956300D01*
Y1146500D01*
X1339700D01*
Y946300D01*
D02*
G37*
G36*
X1559700Y965200D02*
X1658100D01*
Y853800D01*
X1563500D01*
X1556000Y846300D01*
X1492000D01*
Y984200D01*
X1479700Y996500D01*
Y1146500D01*
X1559700D01*
Y965200D01*
D02*
G37*
D10*
X1638105Y2959295D02*
G03*
X1423765Y3048000I-214429J-214818D01*
G01*
X1735497Y2767908D02*
G03*
X1638161Y2959238I-342507J-53821D01*
G01*
X1739700Y2714178D02*
G03*
X1735497Y2767908I-346709J-92D01*
G01*
X1739700Y2561500D02*
Y2713963D01*
X1270000Y3048000D02*
X1423500D01*
D11*
X80300Y801600D02*
D03*
Y736600D02*
D03*
Y671600D02*
D03*
X275300D02*
D03*
Y736600D02*
D03*
Y801600D02*
D03*
D12*
X177800Y736600D02*
D03*
D13*
X965000Y3048000D02*
D03*
X1270000D02*
D03*
D14*
X1117500Y2900500D02*
D03*
Y3195500D02*
D03*
D15*
X2641600Y711200D02*
D03*
X2553600D02*
D03*
D16*
X2556600Y596900D02*
D03*
X2641600D02*
D03*
X3319100Y355600D02*
D03*
X3234100D02*
D03*
X3238500Y647700D02*
D03*
X3323500D02*
D03*
D17*
X1409700Y2946400D02*
D03*
Y3048000D02*
D03*
D18*
X127000Y2806700D02*
D03*
Y2946400D02*
D03*
X2336800Y1981200D02*
D03*
Y2235200D02*
D03*
Y2108200D02*
D03*
D19*
X2870200Y1569720D02*
D03*
Y1308100D02*
D03*
D20*
X3163100Y2506980D02*
D03*
X3213100D02*
D03*
X3263100D02*
D03*
Y2796540D02*
D03*
X3213100D02*
D03*
X3163100D02*
D03*
D21*
X3213100Y2651760D02*
D03*
D22*
X399700Y1291500D02*
D03*
Y1501500D02*
D03*
Y1711500D02*
D03*
Y1921500D02*
D03*
Y2131500D02*
D03*
Y2341500D02*
D03*
X609700Y1291500D02*
D03*
Y1501500D02*
D03*
Y1711500D02*
D03*
Y1921500D02*
D03*
Y2131500D02*
D03*
Y2341500D02*
D03*
X819700Y1291500D02*
D03*
Y1501500D02*
D03*
Y1711500D02*
D03*
Y1921500D02*
D03*
Y2131500D02*
D03*
Y2341500D02*
D03*
X1029700Y1291500D02*
D03*
Y1501500D02*
D03*
Y1711500D02*
D03*
Y1921500D02*
D03*
Y2131500D02*
D03*
Y2341500D02*
D03*
X1239700Y1291500D02*
D03*
Y1501500D02*
D03*
Y1711500D02*
D03*
Y1921500D02*
D03*
Y2131500D02*
D03*
Y2341500D02*
D03*
X1449700Y1291500D02*
D03*
Y1501500D02*
D03*
Y1711500D02*
D03*
Y1921500D02*
D03*
Y2131500D02*
D03*
Y2341500D02*
D03*
X1659700Y1291500D02*
D03*
Y1501500D02*
D03*
Y1711500D02*
D03*
Y1921500D02*
D03*
Y2131500D02*
D03*
Y2341500D02*
D03*
X1869700Y1291500D02*
D03*
Y1501500D02*
D03*
Y1711500D02*
D03*
Y1921500D02*
D03*
Y2131500D02*
D03*
Y2341500D02*
D03*
D23*
X2129700Y2476500D02*
D03*
Y2366500D02*
D03*
Y2256500D02*
D03*
Y2146500D02*
D03*
Y2036500D02*
D03*
Y1926500D02*
D03*
Y1816500D02*
D03*
Y1706500D02*
D03*
Y1596500D02*
D03*
Y1486500D02*
D03*
Y1376500D02*
D03*
Y1266500D02*
D03*
Y1156500D02*
D03*
X139700D02*
D03*
Y1266500D02*
D03*
Y1376500D02*
D03*
Y1486500D02*
D03*
Y1596500D02*
D03*
Y1706500D02*
D03*
Y1816500D02*
D03*
Y1926500D02*
D03*
Y2036500D02*
D03*
Y2146500D02*
D03*
Y2256500D02*
D03*
Y2366500D02*
D03*
Y2476500D02*
D03*
D24*
X1849700Y1071500D02*
D03*
X1739700D02*
D03*
X1629700D02*
D03*
X1519700D02*
D03*
X1409700D02*
D03*
X1299700D02*
D03*
X1189700D02*
D03*
X1079700D02*
D03*
X969700D02*
D03*
X859700D02*
D03*
X749700D02*
D03*
X639700D02*
D03*
X529700D02*
D03*
X419700D02*
D03*
Y2561500D02*
D03*
X529700D02*
D03*
X639700D02*
D03*
X749700D02*
D03*
X859700D02*
D03*
X969700D02*
D03*
X1079700D02*
D03*
X1189700D02*
D03*
X1299700D02*
D03*
X1409700D02*
D03*
X1519700D02*
D03*
X1629700D02*
D03*
X1739700D02*
D03*
X1849700D02*
D03*
D25*
X2447200Y1780300D02*
D03*
Y1435300D02*
D03*
D26*
X2532200Y1765300D02*
D03*
Y1450300D02*
D03*
X2362200Y1765300D02*
D03*
Y1450300D02*
D03*
D27*
X3154900Y2337360D02*
D03*
Y2372360D02*
D03*
Y2407360D02*
D03*
X3271300D02*
D03*
Y2372360D02*
D03*
Y2337360D02*
D03*
D28*
X2763300Y550270D02*
D03*
X2828300D02*
D03*
X2893300D02*
D03*
Y750930D02*
D03*
X2828300D02*
D03*
X2763300D02*
D03*
D29*
X2780800Y650600D02*
D03*
X2875800D02*
D03*
D30*
X2463800Y596900D02*
D03*
Y698500D02*
D03*
D31*
X3022600Y773800D02*
D03*
Y685800D02*
D03*
X3009900Y2804160D02*
D03*
Y2716160D02*
D03*
Y2506160D02*
D03*
Y2594160D02*
D03*
X3517900Y2235200D02*
D03*
Y2323200D02*
D03*
X2679700Y1447800D02*
D03*
Y1535800D02*
D03*
X2546100Y1041400D02*
D03*
Y953400D02*
D03*
X2444500Y1041400D02*
D03*
Y953400D02*
D03*
X1524000Y876300D02*
D03*
Y788300D02*
D03*
X977900Y876300D02*
D03*
Y788300D02*
D03*
X1079500Y876300D02*
D03*
Y788300D02*
D03*
D32*
X2881700Y2809240D02*
D03*
X2831700D02*
D03*
X2781700D02*
D03*
X2731700D02*
D03*
Y2494280D02*
D03*
X2781700D02*
D03*
X2831700D02*
D03*
X2881700D02*
D03*
D33*
X1083900Y175260D02*
D03*
X88900D02*
D03*
D34*
X898900Y495260D02*
D03*
X773900D02*
D03*
X648900D02*
D03*
X523900D02*
D03*
X398900D02*
D03*
X273900D02*
D03*
D35*
X2933700Y2296160D02*
D03*
Y2381160D02*
D03*
X2832100Y2296160D02*
D03*
Y2381160D02*
D03*
X3035300Y2296160D02*
D03*
Y2381160D02*
D03*
X3403600Y2501900D02*
D03*
Y2416900D02*
D03*
Y2235200D02*
D03*
Y2320200D02*
D03*
Y2688500D02*
D03*
Y2603500D02*
D03*
X2870200Y1079500D02*
D03*
Y1164500D02*
D03*
X2679700Y1680300D02*
D03*
Y1765300D02*
D03*
X1625600Y791300D02*
D03*
Y876300D02*
D03*
D36*
X3119200Y1333360D02*
D03*
D37*
X3124200Y1483360D02*
D03*
D38*
X2649980Y1157300D02*
D03*
Y1207300D02*
D03*
Y1257300D02*
D03*
Y1307300D02*
D03*
X2349500D02*
D03*
Y1257300D02*
D03*
Y1207300D02*
D03*
Y1157300D02*
D03*
D39*
X2499740Y1232300D02*
D03*
D40*
X684200Y812800D02*
D03*
X634200D02*
D03*
X534200D02*
D03*
X484200D02*
D03*
Y723900D02*
D03*
X534200D02*
D03*
X634200D02*
D03*
X684200D02*
D03*
D41*
X584200Y812800D02*
D03*
Y723900D02*
D03*
D42*
X1236600Y838200D02*
D03*
X1371600D02*
D03*
D43*
X1828326Y2748722D02*
D03*
X1736326D02*
D03*
D44*
X80300Y671600D02*
Y736600D01*
Y801600D01*
X1827879Y2748612D02*
X2598088D01*
X2781700Y2565000D01*
X2129700Y1926500D02*
X2264500D01*
X2362200Y1828800D01*
Y1765300D02*
Y1828800D01*
Y1450300D02*
Y1765300D01*
X2532200D02*
X2679700D01*
X2532200Y1450300D02*
Y1765300D01*
X2533450Y1449050D02*
X2678450D01*
X2463800Y596900D02*
X2556600D01*
X2781700Y2494280D02*
Y2565000D01*
X2832100Y2296160D02*
X2933700D01*
X3035300D01*
X3163100Y2796540D02*
Y2800350D01*
X3009900Y2506160D02*
X3010310Y2506570D01*
X3163100D02*
Y2506980D01*
X3263100Y2501900D02*
Y2506980D01*
Y2501900D02*
X3403600D01*
Y2603500D01*
Y2320200D02*
Y2416900D01*
Y2235200D02*
X3517900D01*
D45*
X304800Y914400D02*
X482600D01*
X139700Y1079500D02*
X304800Y914400D01*
X139700Y1079500D02*
Y1156500D01*
X3271300Y2407360D02*
X3271420Y2407480D01*
X3394180D02*
X3403600Y2416900D01*
X3271420Y2407480D02*
X3394180D01*
X2260600Y1981200D02*
X2336800D01*
X2237880Y2334120D02*
X2336800Y2235200D01*
X2162080Y2334120D02*
X2237880D01*
X2129700Y2366500D02*
X2162080Y2334120D01*
X2129700Y2036500D02*
X2265100D01*
X2336800Y2108200D01*
X139700Y1926500D02*
X143632Y1930433D01*
X228633D02*
X292100Y1993900D01*
Y2781300D01*
X143632Y1930433D02*
X228633D01*
X127000Y2946400D02*
X292100Y2781300D01*
X233100Y2036500D02*
X254000Y2057400D01*
X127000Y2806700D02*
X254000Y2679700D01*
Y2057400D02*
Y2679700D01*
X139700Y2036500D02*
X233100D01*
X482600Y914400D02*
X534200Y862800D01*
X254000Y863600D02*
X458800D01*
X481660Y840740D01*
Y815340D02*
Y840740D01*
X534200Y812800D02*
Y862800D01*
X481660Y815340D02*
X484200Y812800D01*
X38100Y1079500D02*
X254000Y863600D01*
X523900Y495260D02*
X534200Y505560D01*
X1600200Y342900D02*
X2260600Y1003300D01*
X746650Y342900D02*
X1600200D01*
X648900Y440650D02*
X746650Y342900D01*
X2260600Y1003300D02*
Y1210272D01*
X2213572Y1257300D02*
X2260600Y1210272D01*
X2138900Y1257300D02*
X2213572D01*
X2129700Y1266500D02*
X2138900Y1257300D01*
X648900Y440650D02*
Y495260D01*
X2831700Y2381560D02*
X2832100Y2381160D01*
X2831700Y2381560D02*
Y2494280D01*
X3035300Y2296160D02*
X3045300D01*
X3121500Y2372360D01*
X3154900D01*
X3071500Y2407360D02*
X3154900D01*
X3045300Y2381160D02*
X3071500Y2407360D01*
X38100Y1079500D02*
Y1257300D01*
X47300Y1266500D01*
X139700D01*
X398900Y495260D02*
X406400Y502760D01*
D46*
X3263900Y2235200D02*
X3403600D01*
X3200400Y2298700D02*
Y2420201D01*
Y2298700D02*
X3263900Y2235200D01*
X3200400Y2420201D02*
X3213100Y2432901D01*
Y2506980D01*
X2286000Y1257300D02*
X2349500D01*
X2129700Y1376500D02*
X2159540Y1346660D01*
X2239800D01*
X2279160Y1307300D01*
X2349500D01*
X534200Y723900D02*
Y812800D01*
Y505560D02*
Y723900D01*
X2129700Y935900D02*
Y1156500D01*
X1578570Y384770D02*
X2129700Y935900D01*
X829780Y384770D02*
X1578570D01*
X773900Y440650D02*
X829780Y384770D01*
X773900Y440650D02*
Y495260D01*
Y549870D01*
X684200Y639570D02*
X773900Y549870D01*
X684200Y639570D02*
Y723900D01*
X634200Y509960D02*
X648900Y495260D01*
X634200Y509960D02*
Y723900D01*
X684200D02*
Y812800D01*
X634200Y723900D02*
Y812800D01*
X484200Y723900D02*
Y821289D01*
X3175000Y647700D02*
X3238500D01*
X3175000Y355600D02*
X3234100D01*
X484200Y674700D02*
Y723900D01*
X406400Y596900D02*
X484200Y674700D01*
X406400Y502760D02*
Y596900D01*
D47*
X2781700Y2809240D02*
Y2870600D01*
X2819400Y2908300D02*
X3230550D01*
X2781700Y2870600D02*
X2819400Y2908300D01*
X3230550D02*
X3263100Y2875750D01*
Y2796540D02*
Y2875750D01*
X1549400Y2413000D02*
Y2417124D01*
X1519700Y2446824D02*
X1549400Y2417124D01*
X1519700Y2446824D02*
Y2561500D01*
X2628900Y1066800D02*
X2635773D01*
X2648473Y1079500D01*
X2870200Y1164500D02*
Y1308100D01*
X2349500Y1016000D02*
Y1157300D01*
Y1016000D02*
X2394800Y970700D01*
X2427200D01*
X2444500Y953400D01*
X2828300Y735690D02*
Y750930D01*
Y735690D02*
X2850400Y713590D01*
Y676000D02*
Y713590D01*
Y676000D02*
X2875800Y650600D01*
X2831700Y2616600D02*
X2832100Y2616200D01*
X2831700Y2616600D02*
Y2809240D01*
X2731700Y2494280D02*
Y2547605D01*
X2716821Y2562484D02*
X2731700Y2547605D01*
X2695316Y2562484D02*
X2716821D01*
X2692400Y2565400D02*
X2695316Y2562484D01*
X2881700Y2706300D02*
Y2809240D01*
Y2494280D02*
Y2506160D01*
X3009900D01*
D48*
X1727822Y2774399D02*
X1728514Y2775091D01*
X1638105Y2959295D02*
X1638161Y2959238D01*
X1739700Y2714178D02*
X1739700Y2713963D01*
D49*
X2678450Y1449050D02*
X2679700Y1447800D01*
X2870200Y1511300D02*
Y1569720D01*
Y1625600D01*
X2648473Y1079500D02*
X2959100D01*
X3119200Y1239600D01*
Y1333360D01*
D50*
X3365800Y809700D02*
D03*
Y231700D02*
D03*
D51*
X3315800Y88700D02*
D03*
Y952700D02*
D03*
D52*
X3733800Y88700D02*
D03*
Y952700D02*
D03*
D53*
X2082800Y279400D02*
D03*
Y3124200D02*
D03*
D54*
X177800Y622300D02*
D03*
Y850900D02*
D03*
X50800Y673100D02*
D03*
Y736600D02*
D03*
Y800100D02*
D03*
X330200Y635000D02*
D03*
Y685800D02*
D03*
Y736600D02*
D03*
Y787400D02*
D03*
X2717800Y1295400D02*
D03*
Y1231900D02*
D03*
Y1168400D02*
D03*
X2336800Y774700D02*
D03*
X2476500Y825500D02*
D03*
X584200Y660400D02*
D03*
Y876300D02*
D03*
X1028700Y3289300D02*
D03*
X1117600D02*
D03*
X1206500D02*
D03*
X2730500Y2857500D02*
D03*
X3124200Y1549400D02*
D03*
X3035300D02*
D03*
X3213100D02*
D03*
X2451100Y1473200D02*
D03*
Y1739900D02*
D03*
X2628900Y1612900D02*
D03*
X2679700D02*
D03*
X2730500D02*
D03*
X2387600Y723900D02*
D03*
X2882900Y393700D02*
D03*
X1651000Y711200D02*
D03*
X1346200D02*
D03*
X1041400D02*
D03*
X850900Y431800D02*
D03*
X952500D02*
D03*
X965200Y622300D02*
D03*
X901700D02*
D03*
X838200D02*
D03*
X3162300Y203200D02*
D03*
Y152400D02*
D03*
X3175000Y889000D02*
D03*
Y838200D02*
D03*
X3098800D02*
D03*
X2895600Y800100D02*
D03*
X2527300Y812800D02*
D03*
X2565400Y774700D02*
D03*
X2501900Y1092200D02*
D03*
X2400300D02*
D03*
X1968500Y1282700D02*
D03*
Y1498600D02*
D03*
Y1701800D02*
D03*
X1143000Y1282700D02*
D03*
X1346200D02*
D03*
X1562100D02*
D03*
X1765300D02*
D03*
X304800D02*
D03*
X508000D02*
D03*
X723900D02*
D03*
X927100D02*
D03*
X1143000Y1498600D02*
D03*
X1346200D02*
D03*
X1562100D02*
D03*
X1765300D02*
D03*
X304800D02*
D03*
X508000D02*
D03*
X723900D02*
D03*
X927100D02*
D03*
X1130300Y1701800D02*
D03*
X1333500D02*
D03*
X1549400D02*
D03*
X1752600D02*
D03*
X304800D02*
D03*
X508000D02*
D03*
X723900D02*
D03*
X927100D02*
D03*
X1346200Y1917700D02*
D03*
X1549400D02*
D03*
X1765300D02*
D03*
X1968500D02*
D03*
X508000D02*
D03*
X711200D02*
D03*
X927100D02*
D03*
X1130300D02*
D03*
X1346200Y2133600D02*
D03*
X1549400D02*
D03*
X1765300D02*
D03*
X1968500D02*
D03*
X508000D02*
D03*
X711200D02*
D03*
X927100D02*
D03*
X1130300D02*
D03*
Y2336800D02*
D03*
X927100D02*
D03*
X711200D02*
D03*
X508000D02*
D03*
X2933700Y2374900D02*
D03*
X3251200Y2336800D02*
D03*
X3403600Y2730500D02*
D03*
X3517900Y2374900D02*
D03*
X2933700Y2654300D02*
D03*
X3213100Y2844800D02*
D03*
X2933700Y2603500D02*
D03*
X1549400Y2413000D02*
D03*
X2260600Y1981200D02*
D03*
X2129700Y1596500D02*
D03*
X2286000Y1257300D02*
D03*
X2129700Y1486500D02*
D03*
X3098800Y2514600D02*
D03*
X3010105Y2506365D02*
D03*
X3009900Y2804160D02*
D03*
X3073400Y2806700D02*
D03*
X3175000Y647700D02*
D03*
Y355600D02*
D03*
X1727200Y1079500D02*
D03*
X1638300D02*
D03*
X3213100Y2438400D02*
D03*
X2781300Y2451100D02*
D03*
X2832100Y2616200D02*
D03*
X1409700Y2565400D02*
D03*
X3035300Y2381160D02*
D03*
X1181100Y2527300D02*
D03*
X2692400Y2565400D02*
D03*
X2882900Y2705100D02*
D03*
X1295400Y2552700D02*
D03*
D55*
X3860800Y3147060D02*
D03*
X3937000Y2994660D02*
D03*
X3860800Y2842260D02*
D03*
X3937000Y2689860D02*
D03*
X3860800Y2537460D02*
D03*
X3937000Y2385060D02*
D03*
X3860800Y2232660D02*
D03*
X3937000Y2080260D02*
D03*
X3860800Y1927860D02*
D03*
X3937000Y1775460D02*
D03*
X3860800Y1623060D02*
D03*
X3937000Y1470660D02*
D03*
X3860800Y1318260D02*
D03*
X3937000Y1165860D02*
D03*
X3860800Y1013460D02*
D03*
X3937000Y861060D02*
D03*
X3860800Y708660D02*
D03*
X3937000Y556260D02*
D03*
X3860800Y403860D02*
D03*
X3937000Y251460D02*
D03*
X3708400Y3147060D02*
D03*
X3784600Y2994660D02*
D03*
X3708400Y2842260D02*
D03*
X3784600Y2689860D02*
D03*
X3708400Y2537460D02*
D03*
X3784600Y2385060D02*
D03*
X3708400Y2232660D02*
D03*
X3784600Y2080260D02*
D03*
X3708400Y1927860D02*
D03*
X3784600Y1775460D02*
D03*
X3708400Y1623060D02*
D03*
X3784600Y1470660D02*
D03*
X3708400Y1318260D02*
D03*
X3784600Y1165860D02*
D03*
X3708400Y708660D02*
D03*
X3784600Y556260D02*
D03*
X3708400Y403860D02*
D03*
X3784600Y251460D02*
D03*
X3556000Y3147060D02*
D03*
X3632200Y2994660D02*
D03*
X3556000Y2842260D02*
D03*
X3632200Y2689860D02*
D03*
X3556000Y2537460D02*
D03*
X3632200Y2385060D02*
D03*
Y2080260D02*
D03*
X3556000Y1927860D02*
D03*
X3632200Y1775460D02*
D03*
X3556000Y1623060D02*
D03*
X3632200Y1470660D02*
D03*
X3556000Y1318260D02*
D03*
X3632200Y1165860D02*
D03*
X3556000Y1013460D02*
D03*
X3632200Y861060D02*
D03*
X3556000Y708660D02*
D03*
X3632200Y556260D02*
D03*
X3556000Y403860D02*
D03*
X3632200Y251460D02*
D03*
X3556000Y99060D02*
D03*
X3403600Y3147060D02*
D03*
X3479800Y2994660D02*
D03*
X3403600Y2842260D02*
D03*
X3479800Y2689860D02*
D03*
Y2080260D02*
D03*
X3403600Y1927860D02*
D03*
X3479800Y1775460D02*
D03*
X3403600Y1623060D02*
D03*
X3479800Y1470660D02*
D03*
X3403600Y1318260D02*
D03*
X3479800Y1165860D02*
D03*
Y861060D02*
D03*
Y556260D02*
D03*
Y251460D02*
D03*
X3251200Y3147060D02*
D03*
X3327400Y2994660D02*
D03*
Y2689860D02*
D03*
X3251200Y1927860D02*
D03*
X3327400Y1775460D02*
D03*
X3251200Y1623060D02*
D03*
X3327400Y1470660D02*
D03*
Y1165860D02*
D03*
X3098800Y3147060D02*
D03*
X3175000Y2994660D02*
D03*
X3098800Y2232660D02*
D03*
X3175000Y1775460D02*
D03*
X3098800Y1623060D02*
D03*
X3175000Y1165860D02*
D03*
X3098800Y1013460D02*
D03*
Y99060D02*
D03*
X2946400Y3147060D02*
D03*
X3022600Y2994660D02*
D03*
Y2080260D02*
D03*
X2946400Y1927860D02*
D03*
Y1013460D02*
D03*
X3022600Y861060D02*
D03*
Y251460D02*
D03*
X2946400Y99060D02*
D03*
X2794000Y3147060D02*
D03*
X2870200Y2994660D02*
D03*
Y2080260D02*
D03*
X2794000Y1927860D02*
D03*
X2870200Y861060D02*
D03*
Y251460D02*
D03*
X2794000Y99060D02*
D03*
X2641600Y3147060D02*
D03*
X2717800Y2994660D02*
D03*
X2641600Y2842260D02*
D03*
X2717800Y2385060D02*
D03*
Y2080260D02*
D03*
X2641600Y1927860D02*
D03*
Y403860D02*
D03*
X2717800Y251460D02*
D03*
X2641600Y99060D02*
D03*
X2489200Y3147060D02*
D03*
X2565400Y2994660D02*
D03*
X2489200Y2842260D02*
D03*
X2565400Y2689860D02*
D03*
Y2080260D02*
D03*
X2489200Y1927860D02*
D03*
Y403860D02*
D03*
X2565400Y251460D02*
D03*
X2489200Y99060D02*
D03*
X2413000Y2994660D02*
D03*
X2336800Y2842260D02*
D03*
X2413000Y2689860D02*
D03*
X2336800Y2537460D02*
D03*
X2413000Y2080260D02*
D03*
Y251460D02*
D03*
X2336800Y99060D02*
D03*
X2260600Y2689860D02*
D03*
Y1470660D02*
D03*
X2108200Y2689860D02*
D03*
X1879600Y2842260D02*
D03*
X1955800Y2689860D02*
D03*
X1727200Y3147060D02*
D03*
X1803400Y2994660D02*
D03*
X1727200Y708660D02*
D03*
Y99060D02*
D03*
X1574800Y1623060D02*
D03*
Y708660D02*
D03*
X1651000Y251460D02*
D03*
X1574800Y99060D02*
D03*
X1422400Y2842260D02*
D03*
X1498600Y2689860D02*
D03*
X1422400Y708660D02*
D03*
X1498600Y251460D02*
D03*
X1422400Y99060D02*
D03*
X1270000Y2842260D02*
D03*
X1346200Y2689860D02*
D03*
X1270000Y2232660D02*
D03*
X1346200Y1775460D02*
D03*
X1270000Y708660D02*
D03*
X1346200Y251460D02*
D03*
X1270000Y99060D02*
D03*
X1193800Y2689860D02*
D03*
X1117600Y2232660D02*
D03*
Y1623060D02*
D03*
Y708660D02*
D03*
X1193800Y251460D02*
D03*
X965200Y3147060D02*
D03*
Y2842260D02*
D03*
X1041400Y2689860D02*
D03*
X965200Y2232660D02*
D03*
Y708660D02*
D03*
Y99060D02*
D03*
X812800Y3147060D02*
D03*
Y2842260D02*
D03*
X889000Y2689860D02*
D03*
X812800Y2232660D02*
D03*
X889000Y861060D02*
D03*
X812800Y708660D02*
D03*
X889000Y251460D02*
D03*
X812800Y99060D02*
D03*
X660400Y3147060D02*
D03*
X736600Y2994660D02*
D03*
X660400Y2842260D02*
D03*
X736600Y2689860D02*
D03*
X660400Y2232660D02*
D03*
X736600Y861060D02*
D03*
Y251460D02*
D03*
X660400Y99060D02*
D03*
X508000Y3147060D02*
D03*
X584200Y2994660D02*
D03*
X508000Y2842260D02*
D03*
X584200Y2689860D02*
D03*
X508000Y2232660D02*
D03*
Y1623060D02*
D03*
X584200Y251460D02*
D03*
X508000Y99060D02*
D03*
X355600Y3147060D02*
D03*
X431800Y2994660D02*
D03*
X355600Y2842260D02*
D03*
X431800Y2689860D02*
D03*
X355600Y2232660D02*
D03*
X431800Y251460D02*
D03*
X355600Y99060D02*
D03*
X203200Y3147060D02*
D03*
X279400Y2994660D02*
D03*
Y1775460D02*
D03*
Y1165860D02*
D03*
Y251460D02*
D03*
X203200Y99060D02*
D03*
X1425804Y3123256D02*
D03*
X1664597Y2698860D02*
D03*
X1583535Y3087598D02*
D03*
X1653222Y3045763D02*
D03*
X1270000Y3136900D02*
D03*
X1651000Y2501900D02*
D03*
X1793004Y2849447D02*
D03*
X1360182Y2978335D02*
D03*
X1828800Y2489200D02*
D03*
X1651000Y2565400D02*
D03*
X1502219Y2958293D02*
D03*
X1506498Y3113517D02*
D03*
X1430102Y2974275D02*
D03*
X1758992Y2923268D02*
D03*
X1355679Y3122881D02*
D03*
X1168400Y3048000D02*
D03*
Y3111500D02*
D03*
X1828800Y2616200D02*
D03*
X1651000Y2628900D02*
D03*
X1624427Y2854666D02*
D03*
X1168400Y2984500D02*
D03*
X1704587Y2441748D02*
D03*
X1771151Y2443589D02*
D03*
X1711889Y2989509D02*
D03*
X1270000Y2959100D02*
D03*
X1828800Y2552700D02*
D03*
X1572194Y2916941D02*
D03*
X1813170Y2674625D02*
D03*
X1655728Y2779655D02*
D03*
X2870200Y1511300D02*
D03*
Y1625600D02*
D03*
X2628900Y1066800D02*
D03*
X1295400Y1028700D02*
D03*
X2603500Y850900D02*
D03*
X1625600Y939800D02*
D03*
X1574800D02*
D03*
X1524000D02*
D03*
X1079500D02*
D03*
X1028700D02*
D03*
X977900D02*
D03*
X2565400Y889000D02*
D03*
X2501900D02*
D03*
X2438400D02*
D03*
X2971800Y622300D02*
D03*
X3035300D02*
D03*
X3098800D02*
D03*
Y673100D02*
D03*
%TF.MD5,b02031fad6892a50290e5dc8f338ab17*%
M02*
