%TF.GenerationSoftware,Altium Limited,Altium Designer,25.1.2 (22)*%
G04 Layer_Physical_Order=3*
G04 Layer_Color=16440176*
%FSLAX45Y45*%
%MOMM*%
%TF.SameCoordinates,3D214C36-D050-49FB-A800-149662506FFD*%
%TF.FilePolarity,Positive*%
%TF.FileFunction,Copper,L3,Inr,Signal*%
%TF.Part,Single*%
G01*
G75*
%TA.AperFunction,Conductor*%
%ADD44C,0.30480*%
%ADD45C,0.15240*%
%ADD46C,0.20320*%
%ADD47C,0.25400*%
%ADD49C,0.40640*%
%TA.AperFunction,ComponentPad*%
%ADD50C,0.65000*%
%ADD51O,2.10000X1.00000*%
%ADD52O,1.80000X1.00000*%
%TA.AperFunction,ViaPad*%
%ADD53C,5.00000*%
%ADD54C,0.40640*%
%ADD55C,0.50800*%
G36*
X3974104Y26556D02*
X3831855D01*
X3828951Y36716D01*
X3839662Y50675D01*
X3847259Y69017D01*
X3848179Y76000D01*
X3733800D01*
X3619421D01*
X3620341Y69017D01*
X3627938Y50675D01*
X3638649Y36716D01*
X3635745Y26556D01*
X3428856D01*
X3425951Y36716D01*
X3436662Y50675D01*
X3444260Y69017D01*
X3445179Y76000D01*
X3315801D01*
X3186421D01*
X3187341Y69017D01*
X3194938Y50675D01*
X3205649Y36716D01*
X3202744Y26556D01*
X2214948D01*
X2212576Y36436D01*
X2227141Y43857D01*
X2262211Y69337D01*
X2292863Y99989D01*
X2318343Y135059D01*
X2338023Y173683D01*
X2351419Y214910D01*
X2358200Y257725D01*
Y266700D01*
X1807400D01*
Y257725D01*
X1814181Y214910D01*
X1827577Y173683D01*
X1847257Y135059D01*
X1872737Y99989D01*
X1903389Y69337D01*
X1938459Y43857D01*
X1953024Y36436D01*
X1950652Y26556D01*
X25896D01*
Y3374104D01*
X1944882D01*
X1947253Y3364224D01*
X1938459Y3359743D01*
X1903389Y3334263D01*
X1872737Y3303611D01*
X1847257Y3268541D01*
X1827577Y3229917D01*
X1814181Y3188690D01*
X1807400Y3145875D01*
Y3136900D01*
X2358200D01*
Y3145875D01*
X2351419Y3188690D01*
X2338023Y3229917D01*
X2318343Y3268541D01*
X2292863Y3303611D01*
X2262211Y3334263D01*
X2227141Y3359743D01*
X2218347Y3364224D01*
X2220718Y3374104D01*
X3974104D01*
Y26556D01*
D02*
G37*
%LPC*%
G36*
X2358200Y3111500D02*
X2095500D01*
Y2848800D01*
X2104475D01*
X2147290Y2855581D01*
X2188517Y2868977D01*
X2227141Y2888657D01*
X2262211Y2914137D01*
X2292863Y2944789D01*
X2318343Y2979859D01*
X2338023Y3018483D01*
X2351419Y3059710D01*
X2358200Y3102525D01*
Y3111500D01*
D02*
G37*
G36*
X2070100D02*
X1807400D01*
Y3102525D01*
X1814181Y3059710D01*
X1827577Y3018483D01*
X1847257Y2979859D01*
X1872737Y2944789D01*
X1903389Y2914137D01*
X1938459Y2888657D01*
X1977083Y2868977D01*
X2018310Y2855581D01*
X2061125Y2848800D01*
X2070100D01*
Y3111500D01*
D02*
G37*
G36*
X1334266D02*
X1206500D01*
Y2984500D01*
X1333500D01*
Y3002716D01*
X1340684Y3009900D01*
X1431489Y3009899D01*
X1456386Y3008677D01*
X1505222Y2998963D01*
X1551224Y2979907D01*
X1592623Y2952241D01*
X1611092Y2935501D01*
X1611091Y2935500D01*
X1611099Y2935501D01*
X1624144Y2922456D01*
X1640762Y2904136D01*
X1668276Y2863096D01*
X1687322Y2817504D01*
X1697179Y2769087D01*
X1698531Y2744390D01*
X1698530D01*
X1698531Y2744389D01*
X1698972Y2670422D01*
X1699258Y2658157D01*
X1692158Y2650890D01*
X1686959D01*
Y2474080D01*
X1792638D01*
Y2649027D01*
X1776658D01*
X1776657Y2727703D01*
X1776658Y2744763D01*
X1773315Y2778719D01*
X1766659Y2812183D01*
X1756755Y2844833D01*
X1743698Y2876355D01*
X1727614Y2906446D01*
X1708657Y2934815D01*
X1687011Y2961189D01*
X1674948Y2973251D01*
X1674948Y2973252D01*
Y2973252D01*
X1667515Y2980684D01*
X1653074Y2994622D01*
X1621916Y3019929D01*
X1588710Y3042483D01*
X1553699Y3062118D01*
X1535420Y3070404D01*
X1517019Y3074556D01*
X1479775Y3080574D01*
X1442231Y3084284D01*
X1404530Y3085671D01*
X1385673Y3085200D01*
X1385672Y3085201D01*
X1385672Y3085201D01*
X1334266Y3085201D01*
Y3111500D01*
D02*
G37*
G36*
X3086100Y2861296D02*
X2971800D01*
X2960136Y2856464D01*
X2955304Y2844800D01*
Y2476500D01*
X2950612Y2469477D01*
X2812178D01*
X2811446Y2471243D01*
X2801443Y2481246D01*
X2788373Y2486660D01*
X2774227D01*
X2761157Y2481246D01*
X2751154Y2471243D01*
X2745740Y2458173D01*
Y2444027D01*
X2751154Y2430957D01*
X2761157Y2420954D01*
X2774227Y2415540D01*
X2776099D01*
X2784857Y2409688D01*
X2796749Y2407323D01*
X2997898D01*
X3003439Y2397163D01*
X3000671Y2390481D01*
X2889167Y2278977D01*
X2548439D01*
X2544551Y2288364D01*
X2836827Y2580640D01*
X2839173D01*
X2852243Y2586054D01*
X2862246Y2596057D01*
X2867660Y2609127D01*
Y2623273D01*
X2862246Y2636343D01*
X2857013Y2641577D01*
X2860357Y2652601D01*
X2864278Y2653381D01*
X2873520Y2659556D01*
X2883504Y2669540D01*
X2889973D01*
X2903043Y2674954D01*
X2913046Y2684957D01*
X2918460Y2698027D01*
Y2712173D01*
X2913046Y2725243D01*
X2903043Y2735246D01*
X2889973Y2740660D01*
X2875827D01*
X2862757Y2735246D01*
X2852754Y2725243D01*
X2848597Y2715208D01*
X2841576Y2708187D01*
X2705101D01*
X2705100Y2708188D01*
X2694198Y2706019D01*
X2684956Y2699844D01*
X2684956Y2699843D01*
X2401200Y2416087D01*
X1662800D01*
X1493344Y2585544D01*
X1484102Y2591719D01*
X1473200Y2593888D01*
X1473199Y2593887D01*
X1431502D01*
X1429843Y2595546D01*
X1416773Y2600960D01*
X1402627D01*
X1389557Y2595546D01*
X1379554Y2585543D01*
X1374140Y2572473D01*
Y2558327D01*
X1379554Y2545257D01*
X1389557Y2535254D01*
X1402627Y2529840D01*
X1416773D01*
X1429843Y2535254D01*
X1431502Y2536913D01*
X1461400D01*
X1540366Y2457947D01*
X1537418Y2446527D01*
X1529257Y2443146D01*
X1519254Y2433143D01*
X1513840Y2420073D01*
Y2405927D01*
X1519254Y2392857D01*
X1529257Y2382854D01*
X1542327Y2377440D01*
X1544673D01*
X1584765Y2337347D01*
X1580557Y2327187D01*
X1561200D01*
X1330960Y2557427D01*
Y2559773D01*
X1325546Y2572843D01*
X1315543Y2582846D01*
X1302473Y2588260D01*
X1288327D01*
X1275257Y2582846D01*
X1265254Y2572843D01*
X1259840Y2559773D01*
Y2545627D01*
X1265254Y2532557D01*
X1275257Y2522554D01*
X1288327Y2517140D01*
X1290673D01*
X1519449Y2288364D01*
X1515561Y2278977D01*
X1473372D01*
X1215729Y2536620D01*
X1211246Y2547443D01*
X1201243Y2557446D01*
X1188173Y2562860D01*
X1174027D01*
X1160957Y2557446D01*
X1150954Y2547443D01*
X1145540Y2534373D01*
Y2520227D01*
X1150954Y2507157D01*
X1160957Y2497154D01*
X1171780Y2492671D01*
X1438525Y2225925D01*
X1448607Y2219188D01*
X1460500Y2216823D01*
X2902040D01*
X2913933Y2219188D01*
X2924015Y2225925D01*
X3044621Y2346531D01*
X3055443Y2351014D01*
X3065446Y2361017D01*
X3070860Y2374087D01*
Y2388233D01*
X3067161Y2397163D01*
X3072701Y2407323D01*
X3195204D01*
X3206027Y2402840D01*
X3220173D01*
X3233243Y2408254D01*
X3243246Y2418257D01*
X3248660Y2431327D01*
Y2445473D01*
X3246849Y2449844D01*
X3253638Y2460004D01*
X3272804D01*
Y2216632D01*
X2795036Y1738864D01*
X2790204Y1727200D01*
Y1187933D01*
X2678927Y1076655D01*
X2667562Y1079659D01*
X2663353Y1089821D01*
X2651921Y1101253D01*
X2636984Y1107440D01*
X2620816D01*
X2605879Y1101253D01*
X2594447Y1089821D01*
X2590064Y1079239D01*
X2550382Y1039557D01*
X1750241D01*
X1747803Y1047799D01*
X1747706Y1049717D01*
X1757346Y1059357D01*
X1762760Y1072427D01*
Y1086573D01*
X1757346Y1099643D01*
X1747343Y1109646D01*
X1734273Y1115060D01*
X1720127D01*
X1707057Y1109646D01*
X1697054Y1099643D01*
X1691640Y1086573D01*
Y1072427D01*
X1697054Y1059357D01*
X1706694Y1049717D01*
X1706597Y1047799D01*
X1704159Y1039557D01*
X1661341D01*
X1658903Y1047799D01*
X1658806Y1049717D01*
X1668446Y1059357D01*
X1673860Y1072427D01*
Y1086573D01*
X1668446Y1099643D01*
X1658443Y1109646D01*
X1645373Y1115060D01*
X1631227D01*
X1618157Y1109646D01*
X1608154Y1099643D01*
X1602740Y1086573D01*
Y1072427D01*
X1608154Y1059357D01*
X1617794Y1049717D01*
X1617697Y1047799D01*
X1615259Y1039557D01*
X1338567D01*
X1332292Y1045832D01*
X1329853Y1051721D01*
X1318421Y1063153D01*
X1303484Y1069340D01*
X1287316D01*
X1272379Y1063153D01*
X1260947Y1051721D01*
X1254760Y1036784D01*
Y1020616D01*
X1260947Y1005679D01*
X1272379Y994247D01*
X1278152Y991856D01*
X1276131Y981696D01*
X939800D01*
X928136Y976864D01*
X923304Y965200D01*
Y863600D01*
X928136Y851936D01*
X939800Y847104D01*
X2533167D01*
X2591835Y788436D01*
X2603500Y783604D01*
X2615164Y788435D01*
X2615164Y788436D01*
X2945364Y1118636D01*
X2950196Y1130300D01*
Y1694967D01*
X3402564Y2147336D01*
X3407396Y2159000D01*
Y2603500D01*
X3402564Y2615164D01*
X3390900Y2619996D01*
X3102596D01*
Y2785606D01*
X3103546Y2786557D01*
X3108960Y2799627D01*
Y2813773D01*
X3103546Y2826843D01*
X3102596Y2827794D01*
Y2844800D01*
X3097764Y2856464D01*
X3086100Y2861296D01*
D02*
G37*
G36*
X2267673Y2016760D02*
X2253527D01*
X2240457Y2011346D01*
X2230454Y2001343D01*
X2225040Y1988273D01*
Y1974127D01*
X2230454Y1961057D01*
X2237292Y1954218D01*
Y1737054D01*
X2132298Y1632060D01*
X2122627D01*
X2109557Y1626646D01*
X2099554Y1616643D01*
X2094140Y1603573D01*
Y1589427D01*
X2099554Y1576357D01*
X2109557Y1566354D01*
X2122627Y1560940D01*
X2136773D01*
X2149843Y1566354D01*
X2159846Y1576357D01*
X2165260Y1589427D01*
Y1599098D01*
X2277081Y1710919D01*
X2282134Y1718480D01*
X2283908Y1727400D01*
Y1954218D01*
X2290746Y1961057D01*
X2296160Y1974127D01*
Y1988273D01*
X2290746Y2001343D01*
X2280743Y2011346D01*
X2267673Y2016760D01*
D02*
G37*
G36*
X2136773Y1522060D02*
X2122627D01*
X2109557Y1516646D01*
X2099554Y1506643D01*
X2094140Y1493573D01*
Y1479427D01*
X2099554Y1466357D01*
X2109557Y1456354D01*
X2122627Y1450940D01*
X2128635D01*
X2260102Y1319473D01*
Y1281692D01*
X2255854Y1277443D01*
X2250440Y1264373D01*
Y1250227D01*
X2255854Y1237157D01*
X2265857Y1227154D01*
X2278927Y1221740D01*
X2293073D01*
X2306143Y1227154D01*
X2316146Y1237157D01*
X2321560Y1250227D01*
Y1264373D01*
X2316146Y1277443D01*
X2311898Y1281692D01*
Y1330200D01*
X2309926Y1340111D01*
X2304312Y1348512D01*
X2165260Y1487565D01*
Y1493573D01*
X2159846Y1506643D01*
X2149843Y1516646D01*
X2136773Y1522060D01*
D02*
G37*
G36*
X3370800Y1028751D02*
X3328501D01*
Y965400D01*
X3445179D01*
X3444260Y972383D01*
X3436662Y990725D01*
X3424576Y1006476D01*
X3408826Y1018562D01*
X3390484Y1026159D01*
X3370800Y1028751D01*
D02*
G37*
G36*
X3773800D02*
X3746500D01*
Y965400D01*
X3848179D01*
X3847259Y972383D01*
X3839662Y990725D01*
X3827576Y1006476D01*
X3811825Y1018562D01*
X3793483Y1026159D01*
X3773800Y1028751D01*
D02*
G37*
G36*
X3721100D02*
X3693800D01*
X3674117Y1026159D01*
X3655775Y1018562D01*
X3640024Y1006476D01*
X3627938Y990725D01*
X3620341Y972383D01*
X3619421Y965400D01*
X3721100D01*
Y1028751D01*
D02*
G37*
G36*
X3303101D02*
X3260800D01*
X3241116Y1026159D01*
X3222775Y1018562D01*
X3207024Y1006476D01*
X3194938Y990725D01*
X3187341Y972383D01*
X3186421Y965400D01*
X3303101D01*
Y1028751D01*
D02*
G37*
G36*
X3848179Y940000D02*
X3746500D01*
Y876649D01*
X3773800D01*
X3793483Y879241D01*
X3811825Y886838D01*
X3827576Y898924D01*
X3839662Y914675D01*
X3847259Y933016D01*
X3848179Y940000D01*
D02*
G37*
G36*
X3721100D02*
X3619421D01*
X3620341Y933016D01*
X3627938Y914675D01*
X3640024Y898924D01*
X3655775Y886838D01*
X3674117Y879241D01*
X3693800Y876649D01*
X3721100D01*
Y940000D01*
D02*
G37*
G36*
X3445179D02*
X3328501D01*
Y876649D01*
X3370800D01*
X3390484Y879241D01*
X3408826Y886838D01*
X3424576Y898924D01*
X3436662Y914675D01*
X3444260Y933016D01*
X3445179Y940000D01*
D02*
G37*
G36*
X3303101D02*
X3186421D01*
X3187341Y933016D01*
X3194938Y914675D01*
X3207024Y898924D01*
X3222775Y886838D01*
X3241116Y879241D01*
X3260800Y876649D01*
X3303101D01*
Y940000D01*
D02*
G37*
G36*
X3375296Y857440D02*
X3356304D01*
X3338757Y850172D01*
X3325328Y836743D01*
X3318060Y819196D01*
Y800204D01*
X3325328Y782657D01*
X3338757Y769228D01*
X3356304Y761960D01*
X3375296D01*
X3392843Y769228D01*
X3406272Y782657D01*
X3413540Y800204D01*
Y819196D01*
X3406272Y836743D01*
X3392843Y850172D01*
X3375296Y857440D01*
D02*
G37*
G36*
X355600Y829296D02*
X254000D01*
X242336Y824464D01*
X237504Y812800D01*
Y584200D01*
Y469900D01*
X242336Y458236D01*
X254000Y453404D01*
X1790700D01*
X1802364Y458236D01*
X1886433Y542304D01*
X1969778D01*
X1972218Y532144D01*
X1938459Y514943D01*
X1903389Y489463D01*
X1872737Y458811D01*
X1847257Y423741D01*
X1827577Y385117D01*
X1814181Y343890D01*
X1807400Y301075D01*
Y292100D01*
X2358200D01*
Y301075D01*
X2351419Y343890D01*
X2338023Y385117D01*
X2318343Y423741D01*
X2292863Y458811D01*
X2262211Y489463D01*
X2227141Y514943D01*
X2193382Y532144D01*
X2195822Y542304D01*
X3136900D01*
X3148564Y547136D01*
X3153396Y558800D01*
Y607162D01*
X3163556Y613951D01*
X3167927Y612140D01*
X3182073D01*
X3195143Y617554D01*
X3205146Y627557D01*
X3210560Y640627D01*
Y654773D01*
X3205146Y667843D01*
X3195143Y677846D01*
X3182073Y683260D01*
X3167927D01*
X3163556Y681449D01*
X3153396Y688238D01*
Y723900D01*
X3148564Y735564D01*
X3136900Y740396D01*
X2984500D01*
X2972836Y735564D01*
X2968004Y723900D01*
Y689596D01*
X1816100D01*
X1804436Y684764D01*
X1720367Y600696D01*
X372096D01*
Y812800D01*
X367264Y824464D01*
X355600Y829296D01*
D02*
G37*
G36*
X3182073Y391160D02*
X3167927D01*
X3154857Y385746D01*
X3144854Y375743D01*
X3139440Y362673D01*
Y348527D01*
X3144854Y335457D01*
X3154857Y325454D01*
X3167927Y320040D01*
X3182073D01*
X3195143Y325454D01*
X3205146Y335457D01*
X3210560Y348527D01*
Y362673D01*
X3205146Y375743D01*
X3195143Y385746D01*
X3182073Y391160D01*
D02*
G37*
G36*
X3375296Y279440D02*
X3356304D01*
X3338757Y272172D01*
X3325328Y258743D01*
X3318060Y241196D01*
Y222204D01*
X3325328Y204657D01*
X3338757Y191228D01*
X3356304Y183960D01*
X3375296D01*
X3392843Y191228D01*
X3406272Y204657D01*
X3413540Y222204D01*
Y241196D01*
X3406272Y258743D01*
X3392843Y272172D01*
X3375296Y279440D01*
D02*
G37*
G36*
X3370800Y164751D02*
X3328501D01*
Y101400D01*
X3445179D01*
X3444260Y108384D01*
X3436662Y126725D01*
X3424576Y142476D01*
X3408826Y154562D01*
X3390484Y162159D01*
X3370800Y164751D01*
D02*
G37*
G36*
X3773800D02*
X3746500D01*
Y101400D01*
X3848179D01*
X3847259Y108384D01*
X3839662Y126725D01*
X3827576Y142476D01*
X3811825Y154562D01*
X3793483Y162159D01*
X3773800Y164751D01*
D02*
G37*
G36*
X3721100D02*
X3693800D01*
X3674117Y162159D01*
X3655775Y154562D01*
X3640024Y142476D01*
X3627938Y126725D01*
X3620341Y108384D01*
X3619421Y101400D01*
X3721100D01*
Y164751D01*
D02*
G37*
G36*
X3303101D02*
X3260800D01*
X3241116Y162159D01*
X3222775Y154562D01*
X3207024Y142476D01*
X3194938Y126725D01*
X3187341Y108384D01*
X3186421Y101400D01*
X3303101D01*
Y164751D01*
D02*
G37*
%LPD*%
G36*
X3086100Y2603500D02*
X3390900D01*
Y2159000D01*
X2933700Y1701800D01*
Y1130300D01*
X2603500Y800100D01*
X2540000Y863600D01*
X939800D01*
Y965200D01*
X2590800D01*
X2806700Y1181100D01*
Y1727200D01*
X3289300Y2209800D01*
Y2476500D01*
X2971800D01*
Y2844800D01*
X3086100D01*
Y2603500D01*
D02*
G37*
G36*
X355600Y584200D02*
X1727200D01*
X1816100Y673100D01*
X2984500D01*
Y723900D01*
X3136900D01*
Y558800D01*
X1879600D01*
X1790700Y469900D01*
X254000D01*
Y584200D01*
Y812800D01*
X355600D01*
Y584200D01*
D02*
G37*
D44*
X1181100Y2527300D02*
X1460500Y2247900D01*
X2902040D02*
X3035300Y2381160D01*
X1460500Y2247900D02*
X2902040D01*
X2784049Y2451100D02*
X2796749Y2438400D01*
X2781300Y2451100D02*
X2784049D01*
X2796749Y2438400D02*
X3210351D01*
D45*
X2129700Y1596500D02*
X2260600Y1727400D01*
Y1981200D01*
D46*
X2286000Y1257300D02*
Y1330200D01*
X2129700Y1486500D02*
X2286000Y1330200D01*
D47*
X1473200Y2565400D02*
X1651000Y2387600D01*
X2413000D01*
X2705100Y2679700D01*
X2476500Y2349500D02*
X2692400Y2565400D01*
X1612900Y2349500D02*
X2476500D01*
X1549400Y2413000D02*
X1612900Y2349500D01*
X2514600Y2298700D02*
X2832100Y2616200D01*
X1549400Y2298700D02*
X2514600D01*
X1295400Y2552700D02*
X1549400Y2298700D01*
X2705100Y2679700D02*
X2853376D01*
X1409700Y2565400D02*
X1473200D01*
X2853376Y2679700D02*
X2878776Y2705100D01*
X2882900D01*
D49*
X1298149Y1028700D02*
X1323549Y1003300D01*
X2565400D01*
X1295400Y1028700D02*
X1298149D01*
X2565400Y1003300D02*
X2628900Y1066800D01*
D50*
X3365800Y809700D02*
D03*
Y231700D02*
D03*
D51*
X3315800Y88700D02*
D03*
Y952700D02*
D03*
D52*
X3733800Y88700D02*
D03*
Y952700D02*
D03*
D53*
X2082800Y279400D02*
D03*
Y3124200D02*
D03*
D54*
X177800Y622300D02*
D03*
Y850900D02*
D03*
X50800Y673100D02*
D03*
Y736600D02*
D03*
Y800100D02*
D03*
X330200Y635000D02*
D03*
Y685800D02*
D03*
Y736600D02*
D03*
Y787400D02*
D03*
X2717800Y1295400D02*
D03*
Y1231900D02*
D03*
Y1168400D02*
D03*
X2336800Y774700D02*
D03*
X2476500Y825500D02*
D03*
X584200Y660400D02*
D03*
Y876300D02*
D03*
X1028700Y3289300D02*
D03*
X1117600D02*
D03*
X1206500D02*
D03*
X2730500Y2857500D02*
D03*
X3124200Y1549400D02*
D03*
X3035300D02*
D03*
X3213100D02*
D03*
X2451100Y1473200D02*
D03*
Y1739900D02*
D03*
X2628900Y1612900D02*
D03*
X2679700D02*
D03*
X2730500D02*
D03*
X2387600Y723900D02*
D03*
X2882900Y393700D02*
D03*
X1651000Y711200D02*
D03*
X1346200D02*
D03*
X1041400D02*
D03*
X850900Y431800D02*
D03*
X952500D02*
D03*
X965200Y622300D02*
D03*
X901700D02*
D03*
X838200D02*
D03*
X3162300Y203200D02*
D03*
Y152400D02*
D03*
X3175000Y889000D02*
D03*
Y838200D02*
D03*
X3098800D02*
D03*
X2895600Y800100D02*
D03*
X2527300Y812800D02*
D03*
X2565400Y774700D02*
D03*
X2501900Y1092200D02*
D03*
X2400300D02*
D03*
X1968500Y1282700D02*
D03*
Y1498600D02*
D03*
Y1701800D02*
D03*
X1143000Y1282700D02*
D03*
X1346200D02*
D03*
X1562100D02*
D03*
X1765300D02*
D03*
X304800D02*
D03*
X508000D02*
D03*
X723900D02*
D03*
X927100D02*
D03*
X1143000Y1498600D02*
D03*
X1346200D02*
D03*
X1562100D02*
D03*
X1765300D02*
D03*
X304800D02*
D03*
X508000D02*
D03*
X723900D02*
D03*
X927100D02*
D03*
X1130300Y1701800D02*
D03*
X1333500D02*
D03*
X1549400D02*
D03*
X1752600D02*
D03*
X304800D02*
D03*
X508000D02*
D03*
X723900D02*
D03*
X927100D02*
D03*
X1346200Y1917700D02*
D03*
X1549400D02*
D03*
X1765300D02*
D03*
X1968500D02*
D03*
X508000D02*
D03*
X711200D02*
D03*
X927100D02*
D03*
X1130300D02*
D03*
X1346200Y2133600D02*
D03*
X1549400D02*
D03*
X1765300D02*
D03*
X1968500D02*
D03*
X508000D02*
D03*
X711200D02*
D03*
X927100D02*
D03*
X1130300D02*
D03*
Y2336800D02*
D03*
X927100D02*
D03*
X711200D02*
D03*
X508000D02*
D03*
X2933700Y2374900D02*
D03*
X3251200Y2336800D02*
D03*
X3403600Y2730500D02*
D03*
X3517900Y2374900D02*
D03*
X2933700Y2654300D02*
D03*
X3213100Y2844800D02*
D03*
X2933700Y2603500D02*
D03*
X1549400Y2413000D02*
D03*
X2260600Y1981200D02*
D03*
X2129700Y1596500D02*
D03*
X2286000Y1257300D02*
D03*
X2129700Y1486500D02*
D03*
X3098800Y2514600D02*
D03*
X3010105Y2506365D02*
D03*
X3009900Y2804160D02*
D03*
X3073400Y2806700D02*
D03*
X3175000Y647700D02*
D03*
Y355600D02*
D03*
X1727200Y1079500D02*
D03*
X1638300D02*
D03*
X3213100Y2438400D02*
D03*
X2781300Y2451100D02*
D03*
X2832100Y2616200D02*
D03*
X1409700Y2565400D02*
D03*
X3035300Y2381160D02*
D03*
X1181100Y2527300D02*
D03*
X2692400Y2565400D02*
D03*
X2882900Y2705100D02*
D03*
X1295400Y2552700D02*
D03*
D55*
X3860800Y3147060D02*
D03*
X3937000Y2994660D02*
D03*
X3860800Y2842260D02*
D03*
X3937000Y2689860D02*
D03*
X3860800Y2537460D02*
D03*
X3937000Y2385060D02*
D03*
X3860800Y2232660D02*
D03*
X3937000Y2080260D02*
D03*
X3860800Y1927860D02*
D03*
X3937000Y1775460D02*
D03*
X3860800Y1623060D02*
D03*
X3937000Y1470660D02*
D03*
X3860800Y1318260D02*
D03*
X3937000Y1165860D02*
D03*
X3860800Y1013460D02*
D03*
X3937000Y861060D02*
D03*
X3860800Y708660D02*
D03*
X3937000Y556260D02*
D03*
X3860800Y403860D02*
D03*
X3937000Y251460D02*
D03*
X3708400Y3147060D02*
D03*
X3784600Y2994660D02*
D03*
X3708400Y2842260D02*
D03*
X3784600Y2689860D02*
D03*
X3708400Y2537460D02*
D03*
X3784600Y2385060D02*
D03*
X3708400Y2232660D02*
D03*
X3784600Y2080260D02*
D03*
X3708400Y1927860D02*
D03*
X3784600Y1775460D02*
D03*
X3708400Y1623060D02*
D03*
X3784600Y1470660D02*
D03*
X3708400Y1318260D02*
D03*
X3784600Y1165860D02*
D03*
X3708400Y708660D02*
D03*
X3784600Y556260D02*
D03*
X3708400Y403860D02*
D03*
X3784600Y251460D02*
D03*
X3556000Y3147060D02*
D03*
X3632200Y2994660D02*
D03*
X3556000Y2842260D02*
D03*
X3632200Y2689860D02*
D03*
X3556000Y2537460D02*
D03*
X3632200Y2385060D02*
D03*
Y2080260D02*
D03*
X3556000Y1927860D02*
D03*
X3632200Y1775460D02*
D03*
X3556000Y1623060D02*
D03*
X3632200Y1470660D02*
D03*
X3556000Y1318260D02*
D03*
X3632200Y1165860D02*
D03*
X3556000Y1013460D02*
D03*
X3632200Y861060D02*
D03*
X3556000Y708660D02*
D03*
X3632200Y556260D02*
D03*
X3556000Y403860D02*
D03*
X3632200Y251460D02*
D03*
X3556000Y99060D02*
D03*
X3403600Y3147060D02*
D03*
X3479800Y2994660D02*
D03*
X3403600Y2842260D02*
D03*
X3479800Y2689860D02*
D03*
Y2080260D02*
D03*
X3403600Y1927860D02*
D03*
X3479800Y1775460D02*
D03*
X3403600Y1623060D02*
D03*
X3479800Y1470660D02*
D03*
X3403600Y1318260D02*
D03*
X3479800Y1165860D02*
D03*
Y861060D02*
D03*
Y556260D02*
D03*
Y251460D02*
D03*
X3251200Y3147060D02*
D03*
X3327400Y2994660D02*
D03*
Y2689860D02*
D03*
X3251200Y1927860D02*
D03*
X3327400Y1775460D02*
D03*
X3251200Y1623060D02*
D03*
X3327400Y1470660D02*
D03*
Y1165860D02*
D03*
X3098800Y3147060D02*
D03*
X3175000Y2994660D02*
D03*
X3098800Y2232660D02*
D03*
X3175000Y1775460D02*
D03*
X3098800Y1623060D02*
D03*
X3175000Y1165860D02*
D03*
X3098800Y1013460D02*
D03*
Y99060D02*
D03*
X2946400Y3147060D02*
D03*
X3022600Y2994660D02*
D03*
Y2080260D02*
D03*
X2946400Y1927860D02*
D03*
Y1013460D02*
D03*
X3022600Y861060D02*
D03*
Y251460D02*
D03*
X2946400Y99060D02*
D03*
X2794000Y3147060D02*
D03*
X2870200Y2994660D02*
D03*
Y2080260D02*
D03*
X2794000Y1927860D02*
D03*
X2870200Y861060D02*
D03*
Y251460D02*
D03*
X2794000Y99060D02*
D03*
X2641600Y3147060D02*
D03*
X2717800Y2994660D02*
D03*
X2641600Y2842260D02*
D03*
X2717800Y2385060D02*
D03*
Y2080260D02*
D03*
X2641600Y1927860D02*
D03*
Y403860D02*
D03*
X2717800Y251460D02*
D03*
X2641600Y99060D02*
D03*
X2489200Y3147060D02*
D03*
X2565400Y2994660D02*
D03*
X2489200Y2842260D02*
D03*
X2565400Y2689860D02*
D03*
Y2080260D02*
D03*
X2489200Y1927860D02*
D03*
Y403860D02*
D03*
X2565400Y251460D02*
D03*
X2489200Y99060D02*
D03*
X2413000Y2994660D02*
D03*
X2336800Y2842260D02*
D03*
X2413000Y2689860D02*
D03*
X2336800Y2537460D02*
D03*
X2413000Y2080260D02*
D03*
Y251460D02*
D03*
X2336800Y99060D02*
D03*
X2260600Y2689860D02*
D03*
Y1470660D02*
D03*
X2108200Y2689860D02*
D03*
X1879600Y2842260D02*
D03*
X1955800Y2689860D02*
D03*
X1727200Y3147060D02*
D03*
X1803400Y2994660D02*
D03*
X1727200Y708660D02*
D03*
Y99060D02*
D03*
X1574800Y1623060D02*
D03*
Y708660D02*
D03*
X1651000Y251460D02*
D03*
X1574800Y99060D02*
D03*
X1422400Y2842260D02*
D03*
X1498600Y2689860D02*
D03*
X1422400Y708660D02*
D03*
X1498600Y251460D02*
D03*
X1422400Y99060D02*
D03*
X1270000Y2842260D02*
D03*
X1346200Y2689860D02*
D03*
X1270000Y2232660D02*
D03*
X1346200Y1775460D02*
D03*
X1270000Y708660D02*
D03*
X1346200Y251460D02*
D03*
X1270000Y99060D02*
D03*
X1193800Y2689860D02*
D03*
X1117600Y2232660D02*
D03*
Y1623060D02*
D03*
Y708660D02*
D03*
X1193800Y251460D02*
D03*
X965200Y3147060D02*
D03*
Y2842260D02*
D03*
X1041400Y2689860D02*
D03*
X965200Y2232660D02*
D03*
Y708660D02*
D03*
Y99060D02*
D03*
X812800Y3147060D02*
D03*
Y2842260D02*
D03*
X889000Y2689860D02*
D03*
X812800Y2232660D02*
D03*
X889000Y861060D02*
D03*
X812800Y708660D02*
D03*
X889000Y251460D02*
D03*
X812800Y99060D02*
D03*
X660400Y3147060D02*
D03*
X736600Y2994660D02*
D03*
X660400Y2842260D02*
D03*
X736600Y2689860D02*
D03*
X660400Y2232660D02*
D03*
X736600Y861060D02*
D03*
Y251460D02*
D03*
X660400Y99060D02*
D03*
X508000Y3147060D02*
D03*
X584200Y2994660D02*
D03*
X508000Y2842260D02*
D03*
X584200Y2689860D02*
D03*
X508000Y2232660D02*
D03*
Y1623060D02*
D03*
X584200Y251460D02*
D03*
X508000Y99060D02*
D03*
X355600Y3147060D02*
D03*
X431800Y2994660D02*
D03*
X355600Y2842260D02*
D03*
X431800Y2689860D02*
D03*
X355600Y2232660D02*
D03*
X431800Y251460D02*
D03*
X355600Y99060D02*
D03*
X203200Y3147060D02*
D03*
X279400Y2994660D02*
D03*
Y1775460D02*
D03*
Y1165860D02*
D03*
Y251460D02*
D03*
X203200Y99060D02*
D03*
X1425804Y3123256D02*
D03*
X1664597Y2698860D02*
D03*
X1583535Y3087598D02*
D03*
X1653222Y3045763D02*
D03*
X1270000Y3136900D02*
D03*
X1651000Y2501900D02*
D03*
X1793004Y2849447D02*
D03*
X1360182Y2978335D02*
D03*
X1828800Y2489200D02*
D03*
X1651000Y2565400D02*
D03*
X1502219Y2958293D02*
D03*
X1506498Y3113517D02*
D03*
X1430102Y2974275D02*
D03*
X1758992Y2923268D02*
D03*
X1355679Y3122881D02*
D03*
X1168400Y3048000D02*
D03*
Y3111500D02*
D03*
X1828800Y2616200D02*
D03*
X1651000Y2628900D02*
D03*
X1624427Y2854666D02*
D03*
X1168400Y2984500D02*
D03*
X1704587Y2441748D02*
D03*
X1771151Y2443589D02*
D03*
X1711889Y2989509D02*
D03*
X1270000Y2959100D02*
D03*
X1828800Y2552700D02*
D03*
X1572194Y2916941D02*
D03*
X1813170Y2674625D02*
D03*
X1655728Y2779655D02*
D03*
X2870200Y1511300D02*
D03*
Y1625600D02*
D03*
X2628900Y1066800D02*
D03*
X1295400Y1028700D02*
D03*
X2603500Y850900D02*
D03*
X1625600Y939800D02*
D03*
X1574800D02*
D03*
X1524000D02*
D03*
X1079500D02*
D03*
X1028700D02*
D03*
X977900D02*
D03*
X2565400Y889000D02*
D03*
X2501900D02*
D03*
X2438400D02*
D03*
X2971800Y622300D02*
D03*
X3035300D02*
D03*
X3098800D02*
D03*
Y673100D02*
D03*
%TF.MD5,c9c2af7202b7d2d06883229cbe93a67d*%
M02*
